<?xml version="1.0" encoding="utf-8"?>
<!-- Generator: Adobe Illustrator 27.8.1, SVG Export Plug-In . SVG Version: 6.00 Build 0)  -->
<svg version="1.1" id="Layer_1" xmlns="http://www.w3.org/2000/svg" xmlns:xlink="http://www.w3.org/1999/xlink" x="0px" y="0px"
	 viewBox="0 0 100 100" style="enable-background:new 0 0 100 100;" xml:space="preserve">
<style type="text/css">
	.st0{fill:#146534;}
	.st1{fill:#FFFFFF;}
</style>
<g>
	<circle class="st0" cx="50" cy="50" r="49.73"/>
	<g>
		<path class="st1" d="M42.99,37.82c3.63,0,7.22,0,10.91,0c0,1.63,0,3.24,0,4.86c0.05,0.01,0.09,0.02,0.14,0.04
			c0.09-0.11,0.2-0.22,0.28-0.34c1.98-3.15,4.9-4.82,8.51-5.34c2.58-0.37,5.13-0.14,7.61,0.65c3.55,1.13,5.72,3.61,6.87,7.07
			c0.87,2.62,1.15,5.34,1.17,8.08c0.04,7.03,0.03,14.07,0.04,21.1c0,0.16-0.02,0.32-0.04,0.51c-3.79,0-7.54,0-11.37,0
			c0-0.3,0-0.57,0-0.83c0-6.03,0.03-12.07-0.02-18.1c-0.01-1.46-0.18-2.93-0.47-4.36c-0.54-2.66-2.26-4.04-4.97-4.19
			c-2.15-0.12-4.12,0.29-5.55,2.06c-0.95,1.17-1.39,2.58-1.54,4.06c-0.12,1.22-0.19,2.44-0.19,3.66
			c-0.02,5.65-0.01,11.29-0.01,16.94c0,0.24,0,0.48,0,0.76c-3.82,0-7.58,0-11.37,0C42.99,62.22,42.99,50.04,42.99,37.82z"/>
		<path class="st1" d="M35.76,74.44c-3.78,0-7.52,0-11.32,0c0-12.19,0-24.39,0-36.62c3.77,0,7.52,0,11.32,0
			C35.76,50.04,35.76,62.22,35.76,74.44z"/>
		<path class="st1" d="M30.1,19.56c3.67,0.01,6.6,2.96,6.58,6.63c-0.02,3.67-2.98,6.6-6.64,6.57c-3.63-0.02-6.56-2.96-6.56-6.6
			C23.48,22.5,26.44,19.55,30.1,19.56z"/>
	</g>
</g>
</svg>
