<?xml version="1.0" encoding="utf-8"?>
<!-- Generator: Adobe Illustrator 27.8.1, SVG Export Plug-In . SVG Version: 6.00 Build 0)  -->
<svg version="1.1" id="Layer_1" xmlns="http://www.w3.org/2000/svg" xmlns:xlink="http://www.w3.org/1999/xlink" x="0px" y="0px"
	 viewBox="0 0 100 100" style="enable-background:new 0 0 100 100;" xml:space="preserve">
<style type="text/css">
	.st0{fill:#146534;}
	.st1{fill:#FFFFFF;}
</style>
<g>
	<circle class="st0" cx="50" cy="50" r="49.73"/>
	<path class="st1" d="M80.57,42.02c0-7.41-6.01-13.42-13.42-13.42H32.84c-7.41,0-13.42,6.01-13.42,13.42v15.97
		c0,7.41,6.01,13.42,13.42,13.42h34.31c7.41,0,13.42-6.01,13.42-13.42V42.02z M60.4,51.2l-15.39,7.61c-0.6,0.33-2.65-0.11-2.65-0.8
		V42.39c0-0.69,2.07-1.13,2.67-0.79l14.73,8.01C60.37,49.96,61.02,50.86,60.4,51.2z"/>
</g>
</svg>
