<svg xmlns="http://www.w3.org/2000/svg" width="32.999" height="33.016" viewBox="0 0 32.999 33.016"><g id="noun-biodiversity-5099674" transform="translate(-70.14 0.001)"><path id="Path_51404" data-name="Path 51404" d="M356.585,299.371a1.531,1.531,0,0,0-1.138.331,1.431,1.431,0,0,1-1.271.278,1.734,1.734,0,0,0-1.769.478,1.63,1.63,0,0,0-.384,1.06,1.449,1.449,0,0,1-.73,1.249.98.98,0,0,0-.336.312,1.07,1.07,0,0,0-.072,1.039,8.276,8.276,0,0,0,6.728-4.154,1.513,1.513,0,0,0-1.027-.593Z" transform="translate(-264.097 -281.712)" fill="#fff"></path><path id="Path_51405" data-name="Path 51405" d="M232.487,108.662a1.714,1.714,0,0,1-1.022-.329,1.634,1.634,0,0,1-.136-.112.91.91,0,0,0-1.014-.181,2.042,2.042,0,0,1-2.938-1.681.928.928,0,0,0-.54-.785,1.691,1.691,0,0,1-1.074-1.607,1.631,1.631,0,0,1,1.022-1.254.9.9,0,0,0,.52-.585,1.935,1.935,0,0,1,.611-.988,1.969,1.969,0,0,1,.7-.386,8.258,8.258,0,0,0-10.579,2.7,1.821,1.821,0,0,1,1.089.319,1.8,1.8,0,0,1,.666.862.907.907,0,0,0,.8.6,1.78,1.78,0,0,1,1.573,1.012,1.6,1.6,0,0,1,.029,1.07.9.9,0,0,0,.275.943,1.5,1.5,0,0,1,.259.293,1.617,1.617,0,0,1,0,1.779,2.213,2.213,0,0,1-2.531.444.9.9,0,0,0-.9.179,2.327,2.327,0,0,1-1.6.612,2.71,2.71,0,0,1-.356-.024,8.277,8.277,0,0,0,7.4,4.836,1.6,1.6,0,0,1,.194-1.35,1.509,1.509,0,0,1,.521-.483.9.9,0,0,0,.455-.783,2.172,2.172,0,0,1,.517-1.411,2.277,2.277,0,0,1,2.321-.645.888.888,0,0,0,.788-.177,2.074,2.074,0,0,1,1.543-.447,2.046,2.046,0,0,1,1.233.616,8.205,8.205,0,0,0,.807-3.147,1.876,1.876,0,0,1-.623.108Z" transform="translate(-138.517 -93.963)" fill="#fff"></path><path id="Path_51406" data-name="Path 51406" d="M206.65,176.964a1.8,1.8,0,0,0,.374-.264,1.439,1.439,0,0,1,1.448-.29,1.7,1.7,0,0,0,1.911-.246,1.088,1.088,0,0,0,0-1.164.946.946,0,0,0-.165-.187,1.445,1.445,0,0,1-.438-1.51,1.058,1.058,0,0,0-.012-.706,1.234,1.234,0,0,0-1.1-.677,1.447,1.447,0,0,1-1.282-.953,1.264,1.264,0,0,0-.467-.605,1.294,1.294,0,0,0-1.164-.148,8.259,8.259,0,0,0-.562,6.875,2,2,0,0,0,1.459-.124Z" transform="translate(-126.619 -160.107)" fill="#fff"></path><path id="Path_51407" data-name="Path 51407" d="M372.472,122.826a1.457,1.457,0,0,0-1.129.336,1.4,1.4,0,0,0-.441.717,1.433,1.433,0,0,1-.828.942,1.09,1.09,0,0,0-.7.812,1.16,1.16,0,0,0,.752,1.057,1.468,1.468,0,0,1,.862,1.237,1.5,1.5,0,0,0,2.162,1.238,1.447,1.447,0,0,1,1.617.27,1.07,1.07,0,0,0,.09.074,1.262,1.262,0,0,0,1.333.064,8.265,8.265,0,0,0-3.72-6.748Z" transform="translate(-281.59 -115.575)" fill="#fff"></path><path id="Path_51408" data-name="Path 51408" d="M291.624,460a1.711,1.711,0,0,0-.587-2.6,2.076,2.076,0,0,0-1.5-.191,8.619,8.619,0,0,0,.748,3.628,2.069,2.069,0,0,0,1.338-.832Zm-.882-.643a.589.589,0,1,1,.589-.589A.589.589,0,0,1,290.742,459.352Z" transform="translate(-206.463 -430.187)" fill="#fff"></path><path id="Path_51409" data-name="Path 51409" d="M321.746,534.42a1.894,1.894,0,0,0-1.45.736,3.338,3.338,0,0,0,.591.484v-.324a.271.271,0,1,1,.541,0v.569a1.177,1.177,0,0,0,.636,0v-.569a.271.271,0,1,1,.541,0v.324a3.344,3.344,0,0,0,.591-.484A1.893,1.893,0,0,0,321.746,534.42Z" transform="translate(-235.407 -502.913)" fill="#fff"></path><path id="Path_51410" data-name="Path 51410" d="M285.532,403.909a4.528,4.528,0,0,0-.88-.994,4.473,4.473,0,0,0-.461-.34c0,.134.008.267.021.4a4.03,4.03,0,0,0,.212.935Z" transform="translate(-201.431 -378.842)" fill="#fff"></path><path id="Path_51411" data-name="Path 51411" d="M384.2,402.569a4.513,4.513,0,0,0-1.341,1.334h1.107a4.024,4.024,0,0,0,.212-.935q.02-.2.021-.4Z" transform="translate(-294.284 -378.836)" fill="#fff"></path><path id="Path_51412" data-name="Path 51412" d="M256.138,426.612a2.6,2.6,0,0,0-.533.267.272.272,0,0,1-.148.044h-7.065a.27.27,0,0,1-.148-.044,2.6,2.6,0,0,0-.533-.267,2.825,2.825,0,0,0-1.611-.073,2.193,2.193,0,0,0,2.238,1.318,2.618,2.618,0,0,1,2.08.186,2.251,2.251,0,0,1,.767,3.4,2.61,2.61,0,0,1-1.521,1.016,5.821,5.821,0,0,0,.451.688,2.329,2.329,0,0,1,3.619,0,8,8,0,0,0,1.452-5.012.271.271,0,0,1,.3-.275,2.194,2.194,0,0,0,2.264-1.316,2.823,2.823,0,0,0-1.611.073Zm-2.153,3.867a.589.589,0,1,1,.589-.589A.589.589,0,0,1,253.986,430.479Z" transform="translate(-165.586 -401.314)" fill="#fff"></path><path id="Path_51413" data-name="Path 51413" d="M531.372,26.5a2.476,2.476,0,0,0,1.888,1.139,1.773,1.773,0,0,0,.559-.095,2.719,2.719,0,0,0,1.33-1.044,3.159,3.159,0,0,0,.312-.908,6.04,6.04,0,0,0,.111-1.653c-.127-1.988-.883-2.955-2.311-2.955s-2.184.967-2.311,2.955a6.026,6.026,0,0,0,.111,1.653,3.137,3.137,0,0,0,.311.908Z" transform="translate(-433.628 -19.745)" fill="#fff"></path><path id="Path_51414" data-name="Path 51414" d="M516.615,143.857a4.2,4.2,0,0,0-1.447-.746.271.271,0,0,1-.194-.26v-.509a2.151,2.151,0,0,1-.821,0v.507a.271.271,0,0,1-.194.26,4.2,4.2,0,0,0-1.447.746,4.043,4.043,0,0,0-1.451,2.812h7A4.042,4.042,0,0,0,516.615,143.857Z" transform="translate(-414.927 -133.951)" fill="#fff"></path><path id="Path_51415" data-name="Path 51415" d="M284.746,9.043a.261.261,0,0,0,.066-.008c.425-.106.86-.193,1.294-.256a.271.271,0,0,0-.079-.535c-.452.066-.906.156-1.347.267a.271.271,0,0,0,.065.533Z" transform="translate(-201.699 -7.755)" fill="#fff"></path><path id="Path_51416" data-name="Path 51416" d="M239.938,20.637a.269.269,0,0,0,.119-.028,13.26,13.26,0,0,1,1.295-.55.271.271,0,1,0-.185-.509,13.794,13.794,0,0,0-1.347.573.271.271,0,0,0,.119.514Z" transform="translate(-159.532 -18.383)" fill="#fff"></path><path id="Path_51417" data-name="Path 51417" d="M112.639,259.411c-.084-.426-.148-.862-.19-1.295a.271.271,0,0,0-.539.052c.044.451.11.9.2,1.347a.27.27,0,0,0,.265.218.259.259,0,0,0,.053-.005.27.27,0,0,0,.213-.318Z" transform="translate(-39.306 -242.669)" fill="#fff"></path><path id="Path_51418" data-name="Path 51418" d="M121.35,302.881a.271.271,0,0,0-.517.158,13.729,13.729,0,0,0,.49,1.348.271.271,0,0,0,.249.165.268.268,0,0,0,.105-.022.271.271,0,0,0,.143-.355A13.234,13.234,0,0,1,121.35,302.881Z" transform="translate(-47.692 -284.844)" fill="#fff"></path><path id="Path_51419" data-name="Path 51419" d="M140.463,347.641a.271.271,0,1,0-.472.264,13.829,13.829,0,0,0,.943,1.46.271.271,0,1,0,.435-.322,13.334,13.334,0,0,1-.906-1.4Z" transform="translate(-65.7 -327.016)" fill="#fff"></path><path id="Path_51420" data-name="Path 51420" d="M179.8,399.038A13.388,13.388,0,0,1,178.5,397.9a.271.271,0,0,0-.383.383,13.936,13.936,0,0,0,1.347,1.184.271.271,0,0,0,.33-.429Z" transform="translate(-101.54 -374.367)" fill="#fff"></path><path id="Path_51421" data-name="Path 51421" d="M374.338,8.777c.434.064.87.15,1.294.256a.271.271,0,1,0,.132-.525c-.442-.111-.9-.2-1.347-.267a.271.271,0,1,0-.079.535Z" transform="translate(-286.045 -7.754)" fill="#fff"></path><path id="Path_51422" data-name="Path 51422" d="M419.095,20.059a13.261,13.261,0,0,1,1.295.55.271.271,0,0,0,.238-.486,13.769,13.769,0,0,0-1.347-.573.271.271,0,1,0-.185.509Z" transform="translate(-328.213 -18.383)" fill="#fff"></path><path id="Path_51423" data-name="Path 51423" d="M463.863,42.131a13.349,13.349,0,0,1,1.295.939.271.271,0,1,0,.344-.418,13.9,13.9,0,0,0-1.347-.977.271.271,0,0,0-.291.456Z" transform="translate(-370.392 -39.178)" fill="#fff"></path><path id="Path_51424" data-name="Path 51424" d="M566.288,257.87a.271.271,0,0,0-.3.243c-.042.433-.106.869-.19,1.295a.271.271,0,0,0,.213.318.28.28,0,0,0,.053.005.271.271,0,0,0,.265-.218c.088-.443.154-.9.2-1.347a.27.27,0,0,0-.243-.3Z" transform="translate(-466.435 -242.666)" fill="#fff"></path><path id="Path_51425" data-name="Path 51425" d="M552.845,302.7a.27.27,0,0,0-.338.18,13.267,13.267,0,0,1-.471,1.294.271.271,0,1,0,.5.212,13.806,13.806,0,0,0,.49-1.348A.271.271,0,0,0,552.845,302.7Z" transform="translate(-453.464 -284.843)" fill="#fff"></path><path id="Path_51426" data-name="Path 51426" d="M526.677,347.539a.27.27,0,0,0-.368.1,13.361,13.361,0,0,1-.906,1.4.271.271,0,0,0,.435.321,13.9,13.9,0,0,0,.943-1.46.271.271,0,0,0-.1-.368Z" transform="translate(-428.371 -327.017)" fill="#fff"></path><path id="Path_51427" data-name="Path 51427" d="M481.94,397.895a13.38,13.38,0,0,1-1.295,1.138.271.271,0,1,0,.33.429,13.94,13.94,0,0,0,1.347-1.184.271.271,0,0,0-.383-.383Z" transform="translate(-386.203 -374.362)" fill="#fff"></path><path id="Path_51428" data-name="Path 51428" d="M329.566,6.354c.429-.02.866-.021,1.295,0h.013a.271.271,0,0,0,.013-.541c-.446-.021-.9-.021-1.347,0a.271.271,0,1,0,.026.541Z" transform="translate(-243.864 -5.457)" fill="#fff"></path><path id="Path_51429" data-name="Path 51429" d="M143.027,101.349a1.5,1.5,0,1,0-2.594,1.014l.882-1.176a.271.271,0,0,1,.433.325l-.882,1.176a1.495,1.495,0,0,0,2.161-1.338Z" transform="translate(-65.775 -93.967)" fill="#fff"></path><path id="Path_51430" data-name="Path 51430" d="M73.72,6.037,72.052,4.646a.271.271,0,1,1,.347-.416l1.322,1.1V3.85a.271.271,0,0,1,.541,0V6a2.033,2.033,0,0,1,2.951-.042,3.806,3.806,0,0,0,.629-2.11,3.85,3.85,0,1,0-4.121,3.84Z" transform="translate(0 0)" fill="#fff"></path><path id="Path_51431" data-name="Path 51431" d="M131.4,142.152l.453-.6a.271.271,0,0,0-.433-.325l-.02.026.069-.091q-.035-.035-.069-.071v-.2a.271.271,0,1,0-.541,0v4.71a.271.271,0,1,0,.541,0Z" transform="translate(-57.14 -132.325)" fill="#fff"></path></g></svg>