<svg xmlns="http://www.w3.org/2000/svg" width="28.811" height="28.811" viewBox="0 0 28.811 28.811"><g id="chemical" transform="translate(-81.668 -11.668)"><path id="Path_51352" data-name="Path 51352" d="M115.688,478.958a6.23,6.23,0,0,0-.035-.626H87.538a6.228,6.228,0,0,0-.035.626,3.132,3.132,0,0,0,3.132,3.132h21.921a3.132,3.132,0,0,0,3.132-3.132Zm-24.74,1.722a.626.626,0,1,1,.626-.626A.626.626,0,0,1,90.948,480.681Zm2.505-1.1h-.626v-.626h.626Zm2.505,1.566h-.626v-.626h.626Zm4.071-.626a.626.626,0,1,1,.626-.626A.626.626,0,0,1,100.03,480.524Zm4.071.626h-.626v-.626h.626Zm3.758-1.253h-.626v-.626h.626Zm3.758.626a.626.626,0,1,1,.626-.626A.626.626,0,0,1,111.617,480.524Z" transform="translate(-5.522 -441.611)"></path><path id="Path_51353" data-name="Path 51353" d="M108.934,15.426V11.668H98.913v3.758h.939v7.2L91.2,33.444A6.246,6.246,0,0,0,89.963,36.1H96.72v-1.9a2.5,2.5,0,0,1-2.192-2.484A2.5,2.5,0,0,1,97.012,33.9h.043a2.5,2.5,0,0,1,2.484-2.192,2.5,2.5,0,0,1-2.192,2.484v1.9h6.263v-1.9a2.5,2.5,0,0,1-2.192-2.484A2.5,2.5,0,0,1,103.9,33.9h.043a2.5,2.5,0,0,1,2.484-2.192,2.5,2.5,0,0,1-2.192,2.484v1.9H110.5v-1.9a2.5,2.5,0,0,1-2.192-2.484,2.5,2.5,0,0,1,2.484,2.192h.043a2.5,2.5,0,0,1,2.484-2.192,2.5,2.5,0,0,1-2.192,2.484v1.9h6.757a6.245,6.245,0,0,0-1.237-2.651l-8.652-10.815v-7.2Zm-3.132.313h-5.011v-.626H105.8Zm1.253,0h-.626v-.626h.626Z" transform="translate(-7.85)"></path><path id="Path_51354" data-name="Path 51354" d="M595,11.668h.626v.626H595Z" transform="translate(-485.774 0)"></path><path id="Path_51355" data-name="Path 51355" d="M595,35h.626v.626H595Z" transform="translate(-485.774 -22.079)"></path><path id="Path_51356" data-name="Path 51356" d="M606.67,23.332h.626v.626h-.626Z" transform="translate(-496.817 -11.038)"></path><path id="Path_51357" data-name="Path 51357" d="M583.33,23.332h.626v.626h-.626Z" transform="translate(-474.73 -11.038)"></path><path id="Path_51358" data-name="Path 51358" d="M525,169.17h.626v.626H525Z" transform="translate(-419.532 -149.046)"></path><path id="Path_51359" data-name="Path 51359" d="M525,192.5h.626v.626H525Z" transform="translate(-419.532 -171.124)"></path><path id="Path_51360" data-name="Path 51360" d="M536.67,180.83h.626v.626h-.626Z" transform="translate(-430.575 -160.08)"></path><path id="Path_51361" data-name="Path 51361" d="M513.33,180.83h.626v.626h-.626Z" transform="translate(-408.488 -160.08)"></path><path id="Path_51362" data-name="Path 51362" d="M186.67,151.67h.626v.626h-.626Z" transform="translate(-99.365 -132.486)"></path><path id="Path_51363" data-name="Path 51363" d="M186.67,175h.626v.626h-.626Z" transform="translate(-99.365 -154.563)"></path><path id="Path_51364" data-name="Path 51364" d="M198.33,163.33h.626v.626h-.626Z" transform="translate(-110.399 -143.52)"></path><path id="Path_51365" data-name="Path 51365" d="M175,163.33h.626v.626H175Z" transform="translate(-88.321 -143.52)"></path><path id="Path_51366" data-name="Path 51366" d="M93.332,40.832h.626v.626h-.626Z" transform="translate(-11.038 -27.598)"></path><path id="Path_51367" data-name="Path 51367" d="M93.332,64.168h.626v.626h-.626Z" transform="translate(-11.038 -49.682)"></path><path id="Path_51368" data-name="Path 51368" d="M105,52.5h.626v.626H105Z" transform="translate(-22.079 -38.64)"></path><path id="Path_51369" data-name="Path 51369" d="M81.668,52.5h.626v.626h-.626Z" transform="translate(0 -38.64)"></path></g></svg>