<svg xmlns="http://www.w3.org/2000/svg" width="27.072" height="27.807" viewBox="0 0 125.072 160.807">
<g id="noun-document-10346" transform="translate(-179.95 -60)">
<path id="Path_1" data-name="Path 1" d="M304.762,99.308H285.368a16.1,16.1,0,0,1-16.081-16.081V60h-71.47A17.867,17.867,0,0,0,179.95,77.867V202.94a17.868,17.868,0,0,0,17.867,17.867h89.337a17.869,17.869,0,0,0,17.867-17.867V104.669c0-1.86-.1-3.638-.261-5.36ZM264.82,202.94H202.284a4.467,4.467,0,1,1,0-8.934H264.82a4.467,4.467,0,1,1,0,8.934Zm17.867-16.081h-80.4a4.467,4.467,0,1,1,0-8.934h80.4a4.467,4.467,0,0,1,0,8.934ZM197.817,153.8a4.467,4.467,0,0,1,4.467-4.467h44.669a4.467,4.467,0,0,1,0,8.934H202.284A4.467,4.467,0,0,1,197.817,153.8Zm84.871-11.614h-80.4a4.467,4.467,0,1,1,0-8.934h80.4a4.467,4.467,0,0,1,0,8.934Zm0-16.081h-80.4a4.467,4.467,0,1,1,0-8.934h80.4a4.467,4.467,0,0,1,0,8.934Z" transform="translate(0)"></path>
<path id="Path_2" data-name="Path 2" d="M836.932,92.161h18.216C849.375,68.057,828.043,60.016,828,60h0V83.228a8.933,8.933,0,0,0,8.934,8.934Z" transform="translate(-551.557)"></path>
</g>
</svg>