<svg xmlns="http://www.w3.org/2000/svg" width="34.132" height="33.753" viewBox="0 0 34.132 33.753"><g id="farm" transform="translate(-93.409 -26.259)" style="fill: rgb(255, 255, 255);"><path id="Path_51340" data-name="Path 51340" d="M102.223,47.174a.546.546,0,0,0,.407-.175l3.153-3.15,5.284-.755,1.44,1.441a.579.579,0,0,0,.412.17.585.585,0,0,0,.412-.17L118.27,39.6a.582.582,0,0,0-.526-.981l-4,.811h-3.53l2.3-2.3a.6.6,0,0,0,0-.826l-8.229-8.229a.6.6,0,0,0-.826,0l-1.236,1.237L99.34,26.428a.583.583,0,0,0-.973.26l-2.429,8.9-2.363,2.363a.583.583,0,0,0,0,.815L101.8,47a.571.571,0,0,0,.419.175Zm-3-19.213,2.171,2.172-3.8,3.8Zm1.344,7.109,3.294-3.294,4.935,4.947L105.517,40Z" transform="translate(0)"></path><path id="Path_51341" data-name="Path 51341" d="M461.06,253.91a.582.582,0,0,0,0,.823l1.164,1.164a.579.579,0,0,0,.412.17.581.581,0,0,0,.412-.993l-1.164-1.164a.584.584,0,0,0-.824,0Z" transform="translate(-343.039 -212.351)"></path><path id="Path_51342" data-name="Path 51342" d="M436.409,279.721a.581.581,0,0,0,.412-.993l-1.164-1.164a.582.582,0,0,0-.823.823L436,279.551A.58.58,0,0,0,436.409,279.721Z" transform="translate(-318.557 -234.432)"></path><path id="Path_51343" data-name="Path 51343" d="M410.59,300.252a.582.582,0,0,0,0,.823l1.164,1.164a.579.579,0,0,0,.412.17.581.581,0,0,0,.412-.993l-1.164-1.164a.584.584,0,0,0-.824,0Z" transform="translate(-295.926 -255.612)"></path><path id="Path_51344" data-name="Path 51344" d="M503.982,306.635a.579.579,0,0,0,.412.17.581.581,0,0,0,.412-.993l-1.164-1.164a.582.582,0,0,0-.823.823Z" transform="translate(-382.021 -259.716)"></path><path id="Path_51345" data-name="Path 51345" d="M478.129,330.411a.581.581,0,0,0,.412-.993l-1.164-1.164a.582.582,0,0,0-.823.823l1.164,1.164A.58.58,0,0,0,478.129,330.411Z" transform="translate(-357.503 -281.751)"></path><path id="Path_51346" data-name="Path 51346" d="M453.492,352.955a.579.579,0,0,0,.412.17.581.581,0,0,0,.412-.993l-1.164-1.164a.582.582,0,0,0-.823.823Z" transform="translate(-334.889 -302.955)"></path><path id="Path_51347" data-name="Path 51347" d="M536.793,364.9l1.164,1.164a.582.582,0,1,0,.824-.823l-1.164-1.164a.582.582,0,0,0-.824.823Z" transform="translate(-413.736 -315.193)"></path><path id="Path_51348" data-name="Path 51348" d="M512.109,389.881a.581.581,0,0,0,.412-.993l-1.164-1.164a.582.582,0,0,0-.823.823l1.164,1.164A.58.58,0,0,0,512.109,389.881Z" transform="translate(-389.223 -337.266)"></path><path id="Path_51349" data-name="Path 51349" d="M487.482,412.425a.579.579,0,0,0,.412.17.581.581,0,0,0,.412-.993l-1.164-1.164a.582.582,0,0,0-.823.823Z" transform="translate(-366.619 -358.469)"></path><path id="Path_51350" data-name="Path 51350" d="M132.271,483.562h-2.55l.743-1.485a.582.582,0,1,0-1.042-.52l-.644,1.286-.644-1.286a.582.582,0,1,0-1.042.52l.743,1.485h-5.1l.743-1.485a.582.582,0,1,0-1.042-.52l-.644,1.286-.644-1.286a.582.582,0,1,0-1.042.52l.743,1.485h-3.936l.743-1.485a.582.582,0,1,0-1.042-.52l-.644,1.286-.644-1.286a.582.582,0,1,0-1.042.52l.743,1.485h-3.936l.743-1.485a.582.582,0,1,0-1.042-.52l-.644,1.286-.644-1.286a.582.582,0,1,0-1.042.52l.743,1.485h-3.927l.743-1.485a.582.582,0,0,0-1.041-.522l-.644,1.286-.644-1.286a.582.582,0,1,0-1.042.52l.744,1.487H99.681a.582.582,0,1,0,0,1.164h32.59a.582.582,0,1,0,0-1.164Z" transform="translate(-5.311 -424.714)"></path></g></svg>