<svg xmlns="http://www.w3.org/2000/svg" width="21.96" height="33.735" viewBox="0 0 21.96 33.735"><g id="garden" transform="translate(-203.93 -56.001)"><path id="Path_51318" data-name="Path 51318" d="M383.161,82.065a3.124,3.124,0,0,1-4.043,1.727,14.811,14.811,0,0,0,4.464-5.391,5.617,5.617,0,0,1-.421,3.664Z" transform="translate(-162.013 -20.715)"></path><path id="Path_51319" data-name="Path 51319" d="M365.211,75.966c1.221-1.137,2.78-.716,4.17-.927a45.356,45.356,0,0,1-4.8,4.928,1.635,1.635,0,0,0-.253-.8,2.809,2.809,0,0,1,.884-3.2Z" transform="translate(-148.148 -17.606)"></path><path id="Path_51320" data-name="Path 51320" d="M354.48,95.3a31.991,31.991,0,0,0,5.433-5.138,12.646,12.646,0,0,1-5.433,5.264V95.3Z" transform="translate(-139.228 -31.59)"></path><path id="Path_51321" data-name="Path 51321" d="M217.4,122.35c1.684,1.6,1.9,3.5,1.264,4.759a2.458,2.458,0,0,0-.337,1.264,65.325,65.325,0,0,1-7.2-7.413c2.064.379,4.422-.337,6.275,1.39Z" transform="translate(-6.652 -60.074)"></path><path id="Path_51322" data-name="Path 51322" d="M204.176,123.2c2.064,3.622,3.833,6.149,6.654,8.044C205.945,133.055,203.039,127.875,204.176,123.2Z" transform="translate(0 -62.145)"></path><path id="Path_51323" data-name="Path 51323" d="M226.907,143.943c-2.864-1.727-5.1-2.653-8.507-8.423a47.552,47.552,0,0,0,8.507,8.128v.295Z" transform="translate(-13.382 -73.539)"></path><path id="Path_51324" data-name="Path 51324" d="M269.077,354.664a6.471,6.471,0,0,1-6.444,6.444h-1.39a6.471,6.471,0,0,1-6.444-6.444v-5.222h14.235v5.222Z" transform="translate(-47.044 -271.372)"></path><path id="Path_51325" data-name="Path 51325" d="M243.429,314.72v2.316H224.561V314.72h18.868Z" transform="translate(-19.08 -239.262)"></path><path id="Path_51326" data-name="Path 51326" d="M333.76,75.164c.126-5.391.126-4.885.126-5.18L334.223,56h.632c.211,8.718.168,7.412.168,8.339.042,1.643.211,9.181.253,10.824Z" transform="translate(-120.066)"></path><path id="Path_51327" data-name="Path 51327" d="M372.334,171.981c-.716-1.39-.463-3.538,1.39-5.264,2.064-1.937,4.675-1.095,6.949-1.516a57.757,57.757,0,0,1-8,8.17,1.975,1.975,0,0,0-.337-1.39Z" transform="translate(-155.397 -100.987)"></path><path id="Path_51328" data-name="Path 51328" d="M358.978,187.762a56.144,56.144,0,0,0,8.128-8c-2.106,3.58-4.043,6.065-6.991,7.96l-2.274,1.348v-.421c.379-.295.758-.632,1.137-.885Z" transform="translate(-142.336 -114.452)"></path><path id="Path_51329" data-name="Path 51329" d="M394.24,176.369c3.117-2.106,5.1-4.885,7.37-8.929C402.874,172.536,399.715,178.39,394.24,176.369Z" transform="translate(-175.998 -103.058)"></path></g></svg>