<svg xmlns="http://www.w3.org/2000/svg" width="25.787" height="27.946" viewBox="0 0 25.787 27.946" ><g id="seeding" transform="translate(-123.555 -35.004)" style="fill: rgb(0, 0, 0);"><path id="Path_51370" data-name="Path 51370" d="M360.32,302.212v.07h1.407a3.932,3.932,0,0,0,3.882-3.384h-1.417a3.922,3.922,0,0,0-3.873,3.314Z" transform="translate(-223.261 -248.844)"></path><path id="Path_51371" data-name="Path 51371" d="M148.387,49.616l-.06-.12h0a18.334,18.334,0,0,0-6.757-6.927l1.517-3.334h0A2.994,2.994,0,0,0,140.353,35h-7.765a2.994,2.994,0,0,0-2.725,4.232l1.507,3.334a18.285,18.285,0,0,0-6.747,6.917l-.13.16a9.407,9.407,0,0,0,7.984,13.3h7.985a9.4,9.4,0,0,0,7.924-13.335Zm-9.981,4.891h-1.4V57.73h.489a.539.539,0,1,1,0,1.078h-2.106a.539.539,0,1,1,0-1.078h.489V54.506h-1.407a4.991,4.991,0,0,1-4.99-4.99.539.539,0,0,1,.549-.539h2a4.99,4.99,0,0,1,4.441,2.795,4.991,4.991,0,0,1,4.462-2.795h2a.539.539,0,0,1,.539.539,4.99,4.99,0,0,1-5,4.99Z" transform="translate(0)"></path><path id="Path_51372" data-name="Path 51372" d="M248.505,298.9H247.1a3.932,3.932,0,0,0,3.872,3.384h1.4v-.07a3.923,3.923,0,0,0-3.863-3.314Z" transform="translate(-116.497 -248.845)"></path></g></svg>