<svg xmlns="http://www.w3.org/2000/svg" width="30.828" height="29.914" viewBox="0 0 30.828 29.914" fill="#fff"><g id="mapping" transform="translate(-97.712 -35.201)"><path id="Path_51373" data-name="Path 51373" d="M124.555,50.424a2,2,0,1,0,0-.535h-4.9a6.5,6.5,0,0,0-.977-3.178l3.076-3.076a1.989,1.989,0,1,0-.356-.4l-3.027,3.027a6.534,6.534,0,0,0-4.984-2.64V39.186a2,2,0,1,0-.535,0v4.437a6.533,6.533,0,0,0-4.983,2.638l-3.025-3.025a2.022,2.022,0,1,0-.356.4l3.075,3.075a6.494,6.494,0,0,0-.978,3.18H101.7a2,2,0,1,0,0,.535h4.893a6.5,6.5,0,0,0,.969,3.166l-3.066,3.066a1.991,1.991,0,1,0,.356.4l3.016-3.016a6.535,6.535,0,0,0,4.992,2.651v4.437a2,2,0,1,0,.535,0V56.692a6.533,6.533,0,0,0,4.993-2.652l3.018,3.018a2.021,2.021,0,1,0,.356-.4l-3.068-3.068a6.5,6.5,0,0,0,.968-3.165h4.9Z" transform="translate(0)"></path></g></svg>