<svg xmlns="http://www.w3.org/2000/svg" width="25.391" height="28.971" viewBox="0 0 25.391 28.971"><g id="seeds" transform="translate(-141.01 -41.547)"><path id="Path_51317" data-name="Path 51317" d="M159.208,41.547c-4.447,0-6.094,2.825-6.094,6.484,0,4.386,4.19,15.442,9.209,15.442,2.3,0,4.078-2.812,4.078-10.449,0-5.164-.514-11.476-7.194-11.476Zm-12.1,7.046c-4.447,0-6.094,2.825-6.094,6.484,0,4.386,4.19,15.442,9.209,15.442,2.3,0,4.078-2.812,4.078-10.449,0-5.164-.514-11.476-7.194-11.476ZM151.239,62.3a10.886,10.886,0,0,1-1.1-2.79c-.664-2.472-.958-5.527.242-6.17.647-.346,1.355,6.6,1.036,8.8-.04.276-.07.333-.182.16Zm12.1-7.046a10.886,10.886,0,0,1-1.1-2.79c-.664-2.472-.958-5.527.242-6.17.647-.346,1.355,6.6,1.036,8.8-.04.276-.07.333-.182.16Z" transform="translate(0 0)"></path></g></svg>