<svg xmlns="http://www.w3.org/2000/svg" width="27.489" height="29.25" viewBox="0 0 27.489 29.25"><g id="bookfairs" transform="translate(-113.18 -28)"><path id="Path_51374" data-name="Path 51374" d="M161.1,212.487V203.67a2.665,2.665,0,0,1-3.013.163v8.655Z" transform="translate(-42.304 -165.475)"></path><path id="Path_51375" data-name="Path 51375" d="M491.625,204.223a2.673,2.673,0,0,1-1.625-.552v8.817h3.013v-8.655a2.653,2.653,0,0,1-1.388.39Z" transform="translate(-354.951 -165.475)"></path><path id="Path_51376" data-name="Path 51376" d="M140,428.4h24.375v6.012H140Z" transform="translate(-25.264 -377.162)"></path><path id="Path_51377" data-name="Path 51377" d="M146.393,147.713a2.2,2.2,0,0,0,2.194-2.194V144.2H144.2v1.323A2.2,2.2,0,0,0,146.393,147.713Z" transform="translate(-29.219 -109.452)"></path><path id="Path_51378" data-name="Path 51378" d="M189.8,30.519h11.7V28H182v2.519Z" transform="translate(-64.826)"></path><path id="Path_51379" data-name="Path 51379" d="M230.393,147.713a2.2,2.2,0,0,0,2.194-2.194V144.2H228.2v1.323A2.2,2.2,0,0,0,230.393,147.713Z" transform="translate(-108.344 -109.452)"></path><path id="Path_51380" data-name="Path 51380" d="M312.2,145.52a2.194,2.194,0,1,0,4.388,0V144.2H312.2Z" transform="translate(-187.47 -109.453)"></path><path id="Path_51381" data-name="Path 51381" d="M396.2,145.52a2.194,2.194,0,1,0,4.388,0V144.2H396.2Z" transform="translate(-266.595 -109.453)"></path><path id="Path_51382" data-name="Path 51382" d="M480.2,145.52a2.194,2.194,0,1,0,4.388,0V144.2H480.2Z" transform="translate(-345.72 -109.453)"></path><path id="Path_51383" data-name="Path 51383" d="M147.73,83.05h4.261l1.271-3.25h-3.409Z" transform="translate(-32.545 -48.794)"></path><path id="Path_51384" data-name="Path 51384" d="M230.16,83.05h4.3l.241-1.83.185-1.42h-3.458Z" transform="translate(-110.191 -48.794)"></path><path id="Path_51385" data-name="Path 51385" d="M312.76,83.05h4.322l-.185-1.42-.241-1.83h-3.471Z" transform="translate(-187.997 -48.794)"></path><path id="Path_51386" data-name="Path 51386" d="M388.79,83.05h4.3l-1.271-3.25h-3.458Z" transform="translate(-259.213 -48.794)"></path><path id="Path_51387" data-name="Path 51387" d="M460.367,79.8h-3.409l1.271,3.25h4.261Z" transform="translate(-323.827 -48.795)"></path><path id="Path_51388" data-name="Path 51388" d="M258.21,249.2H259.9v6.175H258.21Z" transform="translate(-136.613 -208.362)"></path><path id="Path_51389" data-name="Path 51389" d="M295.79,249.2h1.693v6.175H295.79Z" transform="translate(-172.012 -208.362)"></path><path id="Path_51390" data-name="Path 51390" d="M333.43,249.2h1.693v6.175H333.43Z" transform="translate(-207.468 -208.362)"></path><path id="Path_51391" data-name="Path 51391" d="M373.861,245l-1.573.63,2.317,5.788h.494l1.151-.458Z" transform="translate(-244.071 -204.406)"></path><path id="Path_51392" data-name="Path 51392" d="M138.062,364H113.18v3.25h27.489V364Z" transform="translate(0 -316.5)"></path></g></svg>