<svg xmlns="http://www.w3.org/2000/svg" width="33.392" height="26.153" viewBox="0 0 33.392 26.153">
<g id="silt" transform="translate(-105.397 -98.47)">
<path id="Path_51617" data-name="Path 51617" d="M138.754,122.629a27.225,27.225,0,0,0-3.585-6.273,21.575,21.575,0,0,0-4.484-4.564,8.45,8.45,0,0,1-2.722-3.383c-.711-1.4-1.384-2.855-2.057-4.312-1.376-2.978-2.943-6.831-5.382-5.267-2.163,1.384-4.132,3.861-5.917,6.353a84.231,84.231,0,0,0-9.166,17.446.52.52,0,0,0,.023.463c.038.092.1.161.18.161a99.49,99.49,0,0,0,32.908,0c.168,0,.306-.36.2-.623Zm-18.665-19.518a.1.1,0,0,1,.1.1.1.1,0,0,1-.1.1.1.1,0,0,1-.1-.1A.1.1,0,0,1,120.088,103.111Zm-.122,2.813a.224.224,0,1,1-.226.222A.222.222,0,0,1,119.966,105.924Zm-1.881-1.02a.191.191,0,0,1,0,.382.191.191,0,0,1,0-.382Zm-.05,4.522a.239.239,0,1,1-.237.241A.24.24,0,0,1,118.035,109.426Zm.241,2.026a.194.194,0,0,1-.191.191.192.192,0,0,1-.191-.191.189.189,0,0,1,.191-.191A.192.192,0,0,1,118.276,111.452Zm-.478,2.435a.287.287,0,1,1-.287.287A.289.289,0,0,1,117.8,113.887Zm-1.2-10.577a.113.113,0,1,1-.111.115A.112.112,0,0,1,116.6,103.31Zm.111,2.867a.224.224,0,1,1-.222.226A.224.224,0,0,1,116.713,106.177Zm-.237,5.99c.13,0,.237.256.237.573s-.107.573-.237.573-.241-.256-.241-.573S116.342,112.167,116.476,112.167Zm-3.035-1.307a.2.2,0,1,1-.2.2A.2.2,0,0,1,113.441,110.859Zm-.485-1.877a.222.222,0,1,1-.222.222A.222.222,0,0,1,112.955,108.982Zm.03,3.184a.254.254,0,1,1-.252.256A.256.256,0,0,1,112.986,112.167Zm0,3.757a.256.256,0,1,1-.252.256A.256.256,0,0,1,112.986,115.924Zm-1.709-4.472a.136.136,0,1,1-.138.134A.136.136,0,0,1,111.277,111.452Zm-1.56,3.008a.147.147,0,1,1,0,.294.147.147,0,0,1,0-.294Zm-2.527,8.474a.382.382,0,1,1,.382-.382A.381.381,0,0,1,107.191,122.935Zm.86-.94a.478.478,0,1,1,.478-.478A.478.478,0,0,1,108.051,121.994Zm.86-5.336a.287.287,0,1,1,.287.287A.286.286,0,0,1,108.911,116.658Zm.287,2a.373.373,0,1,1,.375.375A.375.375,0,0,1,109.2,118.657Zm.669,2.874a.382.382,0,1,1,.382-.382A.381.381,0,0,1,109.867,121.531Zm1.548-1.949a.275.275,0,1,1,.275-.275A.277.277,0,0,1,111.415,119.582Zm-.275-2.649a.275.275,0,1,1,.275.275A.274.274,0,0,1,111.14,116.933Zm.711,5.237a.164.164,0,1,1,.164-.164A.162.162,0,0,1,111.851,122.17Zm-.2-7.775c-.279,0-.508-.115-.508-.252s.229-.256.508-.256.512.115.512.256S111.931,114.4,111.648,114.4Zm1.338,6.372a.254.254,0,1,1,.256-.256A.255.255,0,0,1,112.986,120.767Zm.329-2.278a.327.327,0,1,1,.325-.325A.328.328,0,0,1,113.315,118.489Zm.654,3.681a.327.327,0,1,1,0-.654.325.325,0,0,1,.325.325A.328.328,0,0,1,113.968,122.17Zm.581-3.008a.158.158,0,0,1-.161-.157.161.161,0,0,1,.161-.161.158.158,0,0,1,.157.161A.155.155,0,0,1,114.549,119.162Zm.126-5.275a.287.287,0,1,1,.287-.287A.289.289,0,0,1,114.675,113.887Zm.031-5.16a.317.317,0,0,1-.317-.317.32.32,0,0,1,.317-.321.319.319,0,1,1,0,.638Zm.558-2.1a.239.239,0,1,1,.237-.237A.238.238,0,0,1,115.264,106.624Zm0-2.049a.293.293,0,1,1,.294.291A.292.292,0,0,1,115.264,104.575Zm.6,6.384a.1.1,0,0,1-.1.1.1.1,0,0,1-.1-.1.1.1,0,0,1,.1-.1A.1.1,0,0,1,115.86,110.959Zm-.011,8.073a.187.187,0,1,1,.187-.187A.187.187,0,0,1,115.849,119.032Zm.222-1.846a.407.407,0,1,1,.405-.409A.409.409,0,0,1,116.071,117.185Zm.8,3.853a.39.39,0,1,1,.39-.39A.391.391,0,0,1,116.866,121.038Zm.195-12.561a.193.193,0,0,1-.195-.195.195.195,0,1,1,.39,0A.193.193,0,0,1,117.061,108.477Zm.711,14.407a.261.261,0,0,1-.26-.264.258.258,0,0,1,.26-.26.261.261,0,0,1,.264.26A.264.264,0,0,1,117.772,122.884Zm.306-4.04a.281.281,0,1,1,.283-.283A.282.282,0,0,1,118.077,118.844Zm.589-15.428a.308.308,0,1,1,.31-.306A.307.307,0,0,1,118.666,103.416Zm.646,16.773a.143.143,0,1,1,0-.287.143.143,0,0,1,0,.287Zm0-3.245a.143.143,0,1,1,.141-.141A.145.145,0,0,1,119.312,116.944Zm0-15.577a.143.143,0,1,1,.141-.141A.145.145,0,0,1,119.312,101.367Zm.676,17.289a.247.247,0,1,1,.245-.249A.248.248,0,0,1,119.989,118.657Zm.677-18.788a.1.1,0,0,1,.1.1.1.1,0,0,1-.1.1.1.1,0,0,1-.1-.1A.1.1,0,0,1,120.665,99.869Zm.1,22.682a.192.192,0,0,1-.191-.191.189.189,0,0,1,.191-.191.192.192,0,0,1,.191.191A.194.194,0,0,1,120.761,122.551Zm.348-2.041a.287.287,0,1,1,.287-.287A.286.286,0,0,1,121.109,120.51Zm.463-21.054a.176.176,0,1,1,.176-.176A.178.178,0,0,1,121.571,99.456Zm2.114,21.631a.321.321,0,1,1,.325-.321A.32.32,0,0,1,123.685,121.087Zm.478.753a.155.155,0,0,1,0-.31.155.155,0,1,1,0,.31Zm2.343,0a.077.077,0,1,1,0-.153.077.077,0,1,1,0,.153Zm1.942.52a.3.3,0,1,1,.3-.3A.3.3,0,0,1,128.448,122.36Z" transform="translate(0)"></path>
</g>
</svg>