<svg xmlns="http://www.w3.org/2000/svg" width="28.984" height="28.971" viewBox="0 0 28.984 28.971"><g id="conservation" transform="translate(-87.581 -17.701)" style="fill: rgb(255, 255, 255);"><path id="Path_51313" data-name="Path 51313" d="M89.975,38.252a13.53,13.53,0,0,1,21.239-16.034L109.831,23.7l4.349.746-.993-4.349-1.314,1.411A14.5,14.5,0,0,0,89.113,38.685Z"></path><path id="Path_51314" data-name="Path 51314" d="M154.974,162.762A13.53,13.53,0,0,1,133.735,178.8l1.383-1.484-4.349-.746.992,4.349,1.315-1.411a14.5,14.5,0,0,0,22.759-17.173Z" transform="translate(-40.803 -136.641)"></path><path id="Path_51315" data-name="Path 51315" d="M186.81,213.483c-2.845-2.234-7.345-1.691-7.345-1.691s-.619,5.113,2.144,7.876a7.706,7.706,0,0,0,4.044,1.969c-.031-.23-.077-.626-.11-1.137-.028-.483-.039-1.06-.016-1.686-.864-1.109-1.723-2.223-2.491-3.436.918.574,1.778,1.211,2.624,1.861h0a11.153,11.153,0,0,1,1.15-3.755Z" transform="translate(-86.754 -183.317)"></path><path id="Path_51316" data-name="Path 51316" d="M308.975,193.893c1.984.111,5.738-.02,8-2.277,3.158-3.158,2.146-9.3,2.146-9.3s-6.143-1.015-9.31,2.146c-2.267,2.266-2.389,6.071-2.277,8.035,1.012-.992,2.1-1.893,3.189-2.824a51.093,51.093,0,0,1,4.107-3.044,49.549,49.549,0,0,1-3.044,4.107c-.913,1.073-1.8,2.156-2.805,3.158Z" transform="translate(-207.775 -155.376)"></path></g></svg>
