<svg xmlns="http://www.w3.org/2000/svg" width="28.275" height="27.548" viewBox="0 0 28.275 27.548"><g id="energy" transform="translate(-94.548 -41.13)" style="fill: rgb(0, 0, 0);"><path id="Path_51432" data-name="Path 51432" d="M212.5,45.2a13.784,13.784,0,0,0-17.889-1.423l.274-1.727a.5.5,0,1,0-1-.158l-.476,3a.5.5,0,0,0,.42.578l3,.475a.519.519,0,0,0,.079.006.5.5,0,0,0,.078-1l-1.854-.293h0a12.814,12.814,0,0,1,17.53,18.414.5.5,0,1,0,.782.638A13.782,13.782,0,0,0,212.5,45.2Z" transform="translate(-93.749 0)"></path><path id="Path_51433" data-name="Path 51433" d="M127.823,142.808a.5.5,0,0,0-.329-.2l-3-.475a.5.5,0,0,0-.158,1l1.854.293h0a12.814,12.814,0,0,1-17.529-18.414.5.5,0,0,0-.782-.638,13.819,13.819,0,0,0,18.841,19.916l-.276,1.742a.5.5,0,0,0,.419.578.5.5,0,0,0,.08.006.5.5,0,0,0,.5-.426l.476-3a.506.506,0,0,0-.09-.376Z" transform="translate(-10.201 -78.265)"></path><path id="Path_51434" data-name="Path 51434" d="M265.369,143.325c-.238-4.079-4.387-8.455-5.312-9.383a.25.25,0,0,0-.356,0c-.929.925-5.093,5.286-5.345,9.365a5.185,5.185,0,0,0,4.992,5.677l0-2.09a4.4,4.4,0,0,1-2.906-2.585h0a.5.5,0,1,1,.988-.205c.129.62,1.27,1.515,1.919,1.752l.006-3.367h0a3.97,3.97,0,0,1-1.256-.735,4.023,4.023,0,0,1-1.023-1.382.5.5,0,0,1,.921-.412,2.932,2.932,0,0,0,1.36,1.432l.006-3.22a.5.5,0,0,1,.5-.5h0a.5.5,0,0,1,.5.505l-.006,3.214h0a2.962,2.962,0,0,0,.6-.391,3,3,0,0,0,.768-1.03.5.5,0,1,1,.92.415,4.013,4.013,0,0,1-1.028,1.378,3.961,3.961,0,0,1-1.259.731l-.006,3.367c.651-.235,1.794-1.126,1.926-1.746h0a.5.5,0,0,1,.987.209,4.405,4.405,0,0,1-2.915,2.575l0,2.09a5.185,5.185,0,0,0,5.012-5.66Z" transform="translate(-151.173 -87.389)"></path><path id="Path_51435" data-name="Path 51435" d="M341.035,396.02l0,1.836h0a.5.5,0,0,0,.5.506h0a.5.5,0,0,0,.5-.5l0-1.836c-.166.011-.328.026-.5.025S341.2,396.031,341.035,396.02Z" transform="translate(-232.859 -334.426)"></path></g></svg>