<svg xmlns="http://www.w3.org/2000/svg" width="31.451" height="28.485" viewBox="0 0 31.451 28.485"><g id="sand" transform="translate(-91.886 -46.24)"><path id="Path_51351" data-name="Path 51351" d="M99.812,50.446l2.973,11.924-1.378.344L98.434,50.791a5.658,5.658,0,0,0,1.377-.345ZM98.481,64.674h0a8.082,8.082,0,0,0,1.095,2.486,3.467,3.467,0,0,1,2.594,1.008l.328.328.515-.515-.718-2.879h0a.426.426,0,1,1,.826-.206l.594,2.383,2.808-2.807a8.16,8.16,0,0,0-.236-1.745l-.076-.3-7.786,1.911Zm14.03-.774h0a2.98,2.98,0,0,0-4.208,0L97.471,74.726h25.866Zm-10.943,4.871a2.64,2.64,0,0,0-3.728,0l-5.955,5.955h4.38L101.9,69.1ZM94.818,49.158a5.255,5.255,0,0,0,7.422-1.85.725.725,0,0,0,.035-.643.7.7,0,0,0-.473-.406.726.726,0,0,0-.813.375,3.835,3.835,0,0,1-5.384,1.342.8.8,0,0,0-.427-.128.687.687,0,0,0-.467.18.7.7,0,0,0-.227.58.724.724,0,0,0,.333.551Z"></path></g></svg>