<svg xmlns="http://www.w3.org/2000/svg" width="29.034" height="29.034" viewBox="0 0 29.034 29.034"><path id="worm" d="M128.634,227.5a13.662,13.662,0,0,0-5.188,1.564h0l0,.012a17.135,17.135,0,0,1,.609,2.454h0a.587.587,0,1,1-1.164.145,18.373,18.373,0,0,0-.527-2.116,9.268,9.268,0,0,1-3.263.982,26.2,26.2,0,0,1-4.99-1,15.722,15.722,0,0,1-.025,2.123h0a.588.588,0,1,1-1.168-.124,20.361,20.361,0,0,0,.007-2.259c-.175-.036-.358-.085-.529-.117a20.692,20.692,0,0,0-3.48-.406c-.632-.056-1.6-.125-1.9-.121-2.45.028-2.75,2.391-.458,3.286,0,0,.51.2,1.1.422a.625.625,0,0,1,.03-.092,13.467,13.467,0,0,0,.548-1.626.587.587,0,0,1,.55-.5.514.514,0,0,1,.057,0,.587.587,0,0,1,.552.69,9.563,9.563,0,0,1-.626,1.9h0l-.009.023c.711.256,1.423.516,2.344.807a32.478,32.478,0,0,0,6.512,1.511,19.408,19.408,0,0,0,0-2.2.587.587,0,1,1,1.164-.145,16.009,16.009,0,0,1,.007,2.408c.146,0,.294.012.438.012a13.989,13.989,0,0,0,5.644-1.69,14.4,14.4,0,0,1,3.535-1.282,12.96,12.96,0,0,0-.211-1.853.586.586,0,1,1,1.127-.319,10.022,10.022,0,0,1,.257,2.137,24.044,24.044,0,0,1,3.256.61c1.447.374,2.594.764,2.594.764,3.085.579,3.9-2.217,1.964-3.806a7.254,7.254,0,0,0-2.775-1.208c0,.167.006.3-.007.681a8.829,8.829,0,0,1-.183,1.7h0a.587.587,0,1,1-1.137-.282,8.94,8.94,0,0,0,.147-1.461c.018-.517.014-.931.014-.931h0v-.014a16.572,16.572,0,0,0-4.814-.66Z" transform="translate(92.01 -235.111) rotate(45)" fill-rule="evenodd"></path></svg>