<svg xmlns="http://www.w3.org/2000/svg" width="37.067" height="25.486" viewBox="0 0 37.067 25.486">
<g id="transparent" transform="translate(-97.458 -106.407)" style="fill: rgb(255, 255, 255);">
<path id="Path_51444" data-name="Path 51444" d="M187.175,212.273,176.4,206.888l10.775-5.385a4.965,4.965,0,0,1,3.938,0l10.775,5.385-10.775,5.385A4.966,4.966,0,0,1,187.175,212.273Z" transform="translate(-73.147 -87.738)"></path>
<path id="Path_51445" data-name="Path 51445" d="M133.867,287.41l-15.74,7.877a4.932,4.932,0,0,1-3.938,0l-15.74-7.877c-1.089-.543-1.089-1.422,0-1.965l4.522-2.257L114,288.709a5.344,5.344,0,0,0,4.308,0l11.046-5.521,4.522,2.257c1.077.543,1.077,1.423-.013,1.965Z" transform="translate(-0.161 -163.804)"></path>
<path id="Path_51446" data-name="Path 51446" d="M201.88,206.887,191.1,212.272a4.966,4.966,0,0,1-3.938,0l-10.775-5.385,10.775-5.385a4.965,4.965,0,0,1,3.938,0Z" transform="translate(-73.14 -87.737)"></path>
<path id="Path_51447" data-name="Path 51447" d="M133.706,116.659l-4.522,2.257-11.033-5.52a5.344,5.344,0,0,0-4.308,0L102.8,118.916l-4.522-2.257c-1.089-.543-1.089-1.422,0-1.965l15.752-7.877a4.932,4.932,0,0,1,3.938,0l15.74,7.877c1.09.543,1.09,1.422,0,1.965Z" transform="translate(0 0)"></path>
<path id="Path_51448" data-name="Path 51448" d="M191.1,201.5l10.775,5.385L191.1,212.271a4.966,4.966,0,0,1-3.938,0l-10.775-5.385,10.775-5.385a4.965,4.965,0,0,1,3.938,0Z" transform="translate(-73.14 -87.736)" fill-rule="evenodd"></path>
<path id="Path_51449" data-name="Path 51449" d="M201.88,206.887,191.1,212.272a4.966,4.966,0,0,1-3.938,0l-10.775-5.385,10.775-5.385a4.965,4.965,0,0,1,3.938,0Z" transform="translate(-73.14 -87.737)" fill-rule="evenodd"></path>
</g>
</svg>