<svg xmlns="http://www.w3.org/2000/svg" width="27.091" height="29.462" viewBox="0 0 27.091 29.462"><g id="awards" transform="translate(-141.65 -53.429)"><path id="Path_51403" data-name="Path 51403" d="M168.1,57.787a2.912,2.912,0,0,0-2.279-1.092h-.433c.055-.255.109-.506.16-.728a2.1,2.1,0,0,0-2.054-2.538h-16.6a2.1,2.1,0,0,0-2.057,2.523c.051.229.106.481.16.728h-.43a2.913,2.913,0,0,0-2.843,3.568,11.255,11.255,0,0,0,7.69,8.276,9.192,9.192,0,0,0,3.819,3.568v3.12h-3a2.691,2.691,0,0,0-2.684,2.68v5h15.292v-5a2.691,2.691,0,0,0-2.694-2.691h-2.989v-3.12a9.086,9.086,0,0,0,3.819-3.568h0a11.258,11.258,0,0,0,7.69-8.265,2.891,2.891,0,0,0-.564-2.461Zm-24.409,2a.9.9,0,0,1,.874-1.092h.914a43.279,43.279,0,0,0,2.363,6.918,9.248,9.248,0,0,1-4.151-5.826Zm23,0h0a9.247,9.247,0,0,1-4.151,5.826,43.292,43.292,0,0,0,2.363-6.918h.914a.9.9,0,0,1,.874,1.092Z" transform="translate(0)"></path></g></svg>