<svg xmlns="http://www.w3.org/2000/svg" width="24.274" height="24.274" viewBox="0 0 24.274 24.274"><path id="network" d="M92.335,15.777a9.431,9.431,0,0,0,.243-1.942,10.109,10.109,0,0,0-5.7-9.224,4.735,4.735,0,0,0-9.467,0,10.377,10.377,0,0,0-5.7,9.224,10.621,10.621,0,0,0,.243,1.942A4.5,4.5,0,0,0,70,19.54a4.664,4.664,0,0,0,4.734,4.733,4.134,4.134,0,0,0,2.913-1.092,10.084,10.084,0,0,0,8.982,0,5.06,5.06,0,0,0,2.913,1.092,4.739,4.739,0,0,0,4.733-4.733,4.494,4.494,0,0,0-1.942-3.763ZM82.139,2.426a2.3,2.3,0,0,1,2.306,2.306,2.2,2.2,0,0,1-2.306,2.185,2.282,2.282,0,0,1-2.306-2.185,2.387,2.387,0,0,1,2.306-2.306Zm-7.4,19.419A2.3,2.3,0,0,1,72.43,19.54a2.306,2.306,0,1,1,4.612,0A2.3,2.3,0,0,1,74.736,21.846Zm10.2-2.306a4.285,4.285,0,0,0,.364,1.7,7.541,7.541,0,0,1-6.069,0,3.736,3.736,0,0,0,.364-1.578,4.6,4.6,0,0,0-5.1-4.612c0-.364-.121-.728-.121-1.092a7.945,7.945,0,0,1,3.884-6.918,4.653,4.653,0,0,0,4.005,2.427,4.508,4.508,0,0,0,4.005-2.427,7.945,7.945,0,0,1,3.884,6.918,3.359,3.359,0,0,1-.121,1.092,4.5,4.5,0,0,0-5.1,4.491Zm4.612,2.306a2.3,2.3,0,0,1-2.306-2.306,2.306,2.306,0,1,1,2.306,2.306Z" transform="translate(-70.002 0.001)"></path></svg>