<svg xmlns="http://www.w3.org/2000/svg" width="32.816" height="21.018" viewBox="0 0 32.816 21.018"><g id="teams" transform="translate(-144.372 -148.296)" style="fill: rgb(255, 255, 255);"><path id="Path_51397" data-name="Path 51397" d="M258.96,268.07a4.776,4.776,0,0,1,4.774,4.774v5.206a1.481,1.481,0,0,1-1.481,1.481H248.835a1.481,1.481,0,0,1-1.481-1.481v-5.206a4.776,4.776,0,0,1,4.774-4.774h.561a6.983,6.983,0,0,0,5.71,0h.56Z" transform="translate(-94.765 -110.217)" fill-rule="evenodd"></path><path id="Path_51398" data-name="Path 51398" d="M153.19,283.19a5.451,5.451,0,0,0-1.3,3.539v5.206a2.142,2.142,0,0,0,.031.372H145.5a1.133,1.133,0,0,1-1.132-1.132v-4.216a3.8,3.8,0,0,1,3.8-3.8h.441a5.714,5.714,0,0,0,4.579.031Z" transform="translate(0 -124.102)" fill-rule="evenodd"></path><path id="Path_51399" data-name="Path 51399" d="M445.11,283.191a5.716,5.716,0,0,0,4.579-.031h.44a3.8,3.8,0,0,1,3.8,3.8v4.216a1.133,1.133,0,0,1-1.132,1.132h-6.419a2.144,2.144,0,0,0,.031-.372V286.73a5.448,5.448,0,0,0-1.3-3.539Z" transform="translate(-276.741 -124.102)" fill-rule="evenodd"></path><path id="Path_51400" data-name="Path 51400" d="M436.1,192.62a3.229,3.229,0,1,1,3.23-3.229A3.229,3.229,0,0,1,436.1,192.62Z" transform="translate(-265.479 -34.845)" fill-rule="evenodd"></path><path id="Path_51401" data-name="Path 51401" d="M189.413,192.62a3.229,3.229,0,1,1,3.229-3.229A3.229,3.229,0,0,1,189.413,192.62Z" transform="translate(-38.475 -34.845)" fill-rule="evenodd"></path><path id="Path_51402" data-name="Path 51402" d="M303.066,156.435a4.07,4.07,0,1,1,4.07-4.07A4.069,4.069,0,0,1,303.066,156.435Z" transform="translate(-142.286 0)" fill-rule="evenodd"></path></g></svg>