<svg xmlns="http://www.w3.org/2000/svg" width="27.301" height="27.588" viewBox="0 0 560.301 332.588">
<g id="partners" transform="translate(-69.911 -113.75)">
<path id="Path_54228" data-name="Path 54228" d="M630,326.02,592.988,125.3a12.517,12.517,0,0,0-12.25-10.152h-.961L461.3,125.125a12.426,12.426,0,0,0-11.113,15.488A340.27,340.27,0,0,0,382.2,115.324a50.648,50.648,0,0,0-11.988-1.574,45.411,45.411,0,0,0-26.25,8.227l-28,19.512a241.224,241.224,0,0,0-37.711-2.539c-13.824,0-28.7.7-43.051,1.574l.7-2.012a13.118,13.118,0,0,0-1.66-11.375A12.6,12.6,0,0,0,224,121.887H105a12.515,12.515,0,0,0-12.25,11.289L70,334.166a12.516,12.516,0,0,0,2.8,9.449,12.237,12.237,0,0,0,8.75,4.461l70.961,4.9h.523l0,0a12.6,12.6,0,0,0,11.9-8.75l3.238-9.273c13.648,9.273,28.789,18.727,43.137,26.773a624.232,624.232,0,0,1,100.54,70l7.176,6.125h0a23.458,23.458,0,0,0,3.766,2.625,35.519,35.519,0,0,0,19.6,5.859h3.59a36.217,36.217,0,0,0,30.887-23.273l.875.613a36.835,36.835,0,0,0,19.6,5.688h3.5a36.659,36.659,0,0,0,24.938-13.125,36.191,36.191,0,0,0,6.391-11.465,36.755,36.755,0,0,0,42.875-11.023,36.26,36.26,0,0,0,7.348-15.227,35.151,35.151,0,0,0,6.824.7h3.414a37.1,37.1,0,0,0,32.9-30.363l11.023-4.727h0a12.42,12.42,0,0,0,10.762,6.387,6.563,6.563,0,0,0,1.75,0l70-9.8v0a12.613,12.613,0,0,0,8.75-5.078A12.412,12.412,0,0,0,630,326.025ZM498.23,350a12.165,12.165,0,0,1-7.875,4.2H489.3a12.1,12.1,0,0,1-7.613-2.711l-10.5-8.75-.7-.613-73.414-61.25-11.461-9.539a12.817,12.817,0,0,0-8.051-2.887A12.6,12.6,0,0,0,367.941,273a12.419,12.419,0,0,0-2.8,9.188,12.164,12.164,0,0,0,4.465,8.75l84.613,70h0a11.64,11.64,0,0,1,4.2,7.961,11.985,11.985,0,0,1-2.715,8.75,11.807,11.807,0,0,1-16.535,1.488l-84.613-70a12.772,12.772,0,0,0-8.051-2.887,12.514,12.514,0,0,0-12.426,13.738,12.164,12.164,0,0,0,4.465,8.75l68.6,57.051h0a11.814,11.814,0,0,1-.437,14.262,12.161,12.161,0,0,1-8.051,4.2h-1.137a11.9,11.9,0,0,1-6.211-1.75l-1.227-.875-84.7-70a12.168,12.168,0,0,0-7.961-2.977,12.336,12.336,0,0,0-9.625,4.551,12.6,12.6,0,0,0-2.891,8.75,12.869,12.869,0,0,0,4.465,8.75l62.824,52.5a11.725,11.725,0,0,1-8.227,18.726H343a13.137,13.137,0,0,1-7.523-2.539l-7.176-6.039v0a652.694,652.694,0,0,0-104.48-72.277c-16.711-9.449-33.6-20.125-47.074-29.664l49.523-145.16c17.062-1.137,35.613-2.273,52.062-2.273h5.074l-33.074,23.273a12.43,12.43,0,0,0-5.25,8.75,12.068,12.068,0,0,0,3.328,9.887c2.625,2.711,25.812,26.25,53.2,26.25a44.788,44.788,0,0,0,25.637-7.875L350,210.872,401.363,252.7,496.3,333.458a11.374,11.374,0,0,1,4.285,8.051v1.051A11.819,11.819,0,0,1,498.227,350Zm22.488-26.25h0a36.01,36.01,0,0,0-7.875-9.273L443.628,255.5a12.519,12.519,0,0,0-.875-25.023h-28.7l-54.688-44.539a12.705,12.705,0,0,0-7.875-2.8,11.987,11.987,0,0,0-6.3,1.75l-31.238,18.289a21.956,21.956,0,0,1-12.336,3.676,44.632,44.632,0,0,1-23.363-8.75l79.977-55.738A20.989,20.989,0,0,1,376.253,140a294.411,294.411,0,0,1,90.3,39.289l60.289,142.27Z"></path>
</g>
</svg>