<svg xmlns="http://www.w3.org/2000/svg" width="32.058" height="32.058" viewBox="0 0 32.058 32.058" fill="#fff"><g id="functions" transform="translate(-79.339 -8.806)"><path id="Path_51394" data-name="Path 51394" d="M476.581,35a4.418,4.418,0,0,0-1.087.154v.5a.535.535,0,0,1-.309.49,3.462,3.462,0,0,0-.509.284.57.57,0,0,1-.593.014l-.447-.25A4.1,4.1,0,0,0,472.5,38.1l.775.433a3.092,3.092,0,0,0,0,1.209l-.775.433a4.1,4.1,0,0,0,1.139,1.914l.449-.251h0a.57.57,0,0,1,.593.014,3.462,3.462,0,0,0,.509.284.535.535,0,0,1,.309.49v.5a4.33,4.33,0,0,0,2.283,0v-.5a.535.535,0,0,1,.309-.49,3.447,3.447,0,0,0,.509-.284.571.571,0,0,1,.593-.014l.447.25a4.1,4.1,0,0,0,1.141-1.913L480,39.745a3.091,3.091,0,0,0,0-1.209l.775-.433h0a4.1,4.1,0,0,0-1.139-1.914l-.449.251a.571.571,0,0,1-.593-.014,3.427,3.427,0,0,0-.509-.284.535.535,0,0,1-.309-.49v-.5a4.413,4.413,0,0,0-1.2-.152Zm1.534,4.141a1.479,1.479,0,1,1-.433-1.046A1.478,1.478,0,0,1,478.115,39.141Z" transform="translate(-369.899 -24.644)"></path><path id="Path_51395" data-name="Path 51395" d="M109.112,18.845a15,15,0,1,1-6.757-7.276l.484-.915h0a16.028,16.028,0,1,0,7.223,7.776Z"></path><path id="Path_51396" data-name="Path 51396" d="M201.373,78.75h-.887a7.986,7.986,0,0,0-7.986,7.986v14.271h10.648V99.159h3.106a2.662,2.662,0,0,0,2.662-2.662V94.278l2.218-.444-1.775-3.549V86.736a7.986,7.986,0,0,0-7.986-7.986Zm-.721,12.28h0l-.212.191-1.931,1.543h0a2.147,2.147,0,0,1-1.341.478,2.273,2.273,0,0,1-2.107-1.564l-.033-.092-.061-.167h0a10.958,10.958,0,0,1-.653-3.651v-.134c0-.073.008-.143.01-.215h2.19v.129a1.423,1.423,0,1,0,2.847,0V87.42h1.294Zm0-5.551v1.165H198.97a.388.388,0,0,0-.388.388v.518a.647.647,0,0,1-1.294,0v-.518a.388.388,0,0,0-.388-.388h-2.514a6.465,6.465,0,0,1,6.205-5.823h.061v2.588a.388.388,0,0,0,.388.388h.518a.647.647,0,1,1,0,1.294h-.518a.388.388,0,0,0-.388.388Zm3.085,4.284-1.535.416h0a3.733,3.733,0,0,0-.774.31V85.867h.129a1.423,1.423,0,1,0,0-2.847h-.129v-2.2h.436a4.973,4.973,0,0,1,4.443,2.928,4.328,4.328,0,0,1-2.57,6.015Z" transform="translate(-106.467 -65.806)"></path></g></svg>