<svg xmlns="http://www.w3.org/2000/svg" width="100" height="100" viewBox="0 0 100 100"><g id="Group_25599" data-name="Group 25599" transform="translate(-61.38 -2349.38)"><circle id="Ellipse_109" data-name="Ellipse 109" cx="50" cy="50" r="50" transform="translate(61.38 2349.38)" fill="#126634"></circle><g id="noun-community-888747" transform="translate(-121.106 2070.38)"><path id="Path_51554" data-name="Path 51554" d="M537.182,306.091A6.091,6.091,0,1,1,531.091,300a6.091,6.091,0,0,1,6.091,6.091" transform="translate(-298.605)" fill="#fff"></path><path id="Path_51556" data-name="Path 51556" d="M812.182,381.091A6.091,6.091,0,1,1,806.091,375a6.091,6.091,0,0,1,6.091,6.091" transform="translate(-551.271 -68.909)" fill="#fff"></path><path id="Path_51557" data-name="Path 51557" d="M254.82,575a11.225,11.225,0,0,0-5.076,1.421l-17.258,10.152-17.258-10.152A11.225,11.225,0,0,0,210.152,575,10.053,10.053,0,0,0,200,585.152v16.243h20.3V588.807l10.152,6.091c.406.2.609.406,1.015.406s.609.2,1.015.2a1.831,1.831,0,0,0,1.015-.2c.406,0,.609-.2,1.015-.406l10.152-6.091v12.588h20.3V585.152A10.053,10.053,0,0,0,254.82,575Z" transform="translate(0 -252.666)" fill="#fff"></path><path id="Path_51558" data-name="Path 51558" d="M489.746,515.291l9.746-5.685a10.116,10.116,0,0,0-9.746-7.106A10.307,10.307,0,0,0,480,509.606Z" transform="translate(-257.26 -186.054)" fill="#fff"></path></g></g></svg>