<svg xmlns="http://www.w3.org/2000/svg" width="100" height="100" viewBox="0 0 100 100"><g id="Group_25598" data-name="Group 25598" transform="translate(-61.38 -2349.38)"><circle id="Ellipse_109" data-name="Ellipse 109" cx="50" cy="50" r="50" transform="translate(61.38 2349.38)" fill="#126634"></circle><g id="noun-seedbank-28465" transform="translate(-12.804 2343.903)"><path id="Path_51559" data-name="Path 51559" d="M98,179.091h48.443V176.4H98Z" transform="translate(0 -134.136)" fill="#fff" fill-rule="evenodd"></path><path id="Path_51560" data-name="Path 51560" d="M98,506.691h48.443V504H98Z" transform="translate(0 -430.248)" fill="#fff" fill-rule="evenodd"></path><path id="Path_51561" data-name="Path 51561" d="M126,41.456h43.06L147.53,28Zm9.382-2.691h24.3l-12.148-7.59Z" transform="translate(-25.309)" fill="#fff" fill-rule="evenodd"></path><path id="Path_51562" data-name="Path 51562" d="M126,242.244h4.844V215.6H126Z" transform="translate(-25.309 -169.568)" fill="#fff" fill-rule="evenodd"></path><path id="Path_51563" data-name="Path 51563" d="M523.6,242.244h4.844V215.6H523.6Z" transform="translate(-384.693 -169.568)" fill="#fff" fill-rule="evenodd"></path><path id="Path_51564" data-name="Path 51564" d="M200.955,341.6c.84,0,2.153,1.728,2.153,3.219a2.153,2.153,0,1,1-4.306,0C198.8,343.328,200.115,341.6,200.955,341.6Z" transform="translate(-91.113 -283.458)" fill="#fff" fill-rule="evenodd"></path><path id="Path_51565" data-name="Path 51565" d="M268.155,341.6c.84,0,2.153,1.728,2.153,3.219a2.153,2.153,0,1,1-4.306,0C266,343.328,267.315,341.6,268.155,341.6Z" transform="translate(-151.854 -283.458)" fill="#fff" fill-rule="evenodd"></path><path id="Path_51566" data-name="Path 51566" d="M234.555,280c.84,0,2.153,1.728,2.153,3.219a2.153,2.153,0,1,1-4.306,0C232.4,281.728,233.715,280,234.555,280Z" transform="translate(-121.484 -227.778)" fill="#fff" fill-rule="evenodd"></path><path id="Path_51567" data-name="Path 51567" d="M424.529,393.12c.3-.3,1.744.221,2.584,1.06s.883,1.566.463,1.986-1.147.377-1.986-.463-1.357-2.282-1.06-2.584Z" transform="translate(-295.068 -329.95)" fill="#fff" fill-rule="evenodd"></path><path id="Path_51568" data-name="Path 51568" d="M334.929,393.12c.3-.3,1.744.221,2.584,1.06s.883,1.566.463,1.986-1.147.377-1.986-.463-1.357-2.282-1.06-2.584Z" transform="translate(-214.08 -329.95)" fill="#fff" fill-rule="evenodd"></path><path id="Path_51569" data-name="Path 51569" d="M424.529,353.92c.3-.3,1.744.221,2.584,1.06s.883,1.566.463,1.986-1.147.377-1.986-.463-1.357-2.282-1.06-2.584Z" transform="translate(-295.068 -294.517)" fill="#fff" fill-rule="evenodd"></path><path id="Path_51570" data-name="Path 51570" d="M334.929,353.92c.3-.3,1.744.221,2.584,1.06s.883,1.566.463,1.986-1.147.377-1.986-.463-1.357-2.282-1.06-2.584Z" transform="translate(-214.08 -294.517)" fill="#fff" fill-rule="evenodd"></path><path id="Path_51571" data-name="Path 51571" d="M424.529,314.71c.3-.3,1.744.221,2.584,1.06s.883,1.566.463,1.986-1.147.377-1.986-.463-1.357-2.282-1.06-2.584Z" transform="translate(-295.068 -259.076)" fill="#fff" fill-rule="evenodd"></path><path id="Path_51572" data-name="Path 51572" d="M334.929,314.71c.3-.3,1.744.221,2.584,1.06s.883,1.566.463,1.986-1.147.377-1.986-.463-1.357-2.282-1.06-2.584Z" transform="translate(-214.08 -259.076)" fill="#fff" fill-rule="evenodd"></path><path id="Path_51573" data-name="Path 51573" d="M424.529,275.51c.3-.3,1.744.221,2.584,1.06s.883,1.566.463,1.986-1.147.377-1.986-.463-1.357-2.282-1.06-2.584Z" transform="translate(-295.068 -223.644)" fill="#fff" fill-rule="evenodd"></path><path id="Path_51574" data-name="Path 51574" d="M334.929,275.51c.3-.3,1.744.221,2.584,1.06s.883,1.566.463,1.986-1.147.377-1.986-.463-1.357-2.282-1.06-2.584Z" transform="translate(-214.08 -223.644)" fill="#fff" fill-rule="evenodd"></path><path id="Path_51575" data-name="Path 51575" d="M452.5,235.2c.42,0,1.076,1.383,1.076,2.573s-.479,1.733-1.076,1.733-1.076-.544-1.076-1.733S452.078,235.2,452.5,235.2Z" transform="translate(-319.451 -187.285)" fill="#fff" fill-rule="evenodd"></path><path id="Path_51576" data-name="Path 51576" d="M362.9,235.2c.42,0,1.076,1.383,1.076,2.573s-.479,1.733-1.076,1.733-1.076-.544-1.076-1.733S362.478,235.2,362.9,235.2Z" transform="translate(-238.463 -187.285)" fill="#fff" fill-rule="evenodd"></path><path id="Path_51577" data-name="Path 51577" d="M468.644,393.12c-.3-.3-1.744.221-2.584,1.06s-.883,1.566-.463,1.986,1.147.377,1.986-.463,1.356-2.282,1.06-2.584Z" transform="translate(-332.03 -329.95)" fill="#fff" fill-rule="evenodd"></path><path id="Path_51578" data-name="Path 51578" d="M379.044,393.12c-.3-.3-1.744.221-2.584,1.06s-.883,1.566-.463,1.986,1.147.377,1.986-.463,1.356-2.282,1.06-2.584Z" transform="translate(-251.042 -329.95)" fill="#fff" fill-rule="evenodd"></path><path id="Path_51579" data-name="Path 51579" d="M468.644,353.92c-.3-.3-1.744.221-2.584,1.06s-.883,1.566-.463,1.986,1.147.377,1.986-.463,1.356-2.282,1.06-2.584Z" transform="translate(-332.03 -294.517)" fill="#fff" fill-rule="evenodd"></path><path id="Path_51580" data-name="Path 51580" d="M379.044,353.92c-.3-.3-1.744.221-2.584,1.06s-.883,1.566-.463,1.986,1.147.377,1.986-.463,1.356-2.282,1.06-2.584Z" transform="translate(-251.042 -294.517)" fill="#fff" fill-rule="evenodd"></path><path id="Path_51581" data-name="Path 51581" d="M468.644,314.71c-.3-.3-1.744.221-2.584,1.06s-.883,1.566-.463,1.986,1.147.377,1.986-.463,1.356-2.282,1.06-2.584Z" transform="translate(-332.03 -259.076)" fill="#fff" fill-rule="evenodd"></path><path id="Path_51582" data-name="Path 51582" d="M379.044,314.71c-.3-.3-1.744.221-2.584,1.06s-.883,1.566-.463,1.986,1.147.377,1.986-.463,1.356-2.282,1.06-2.584Z" transform="translate(-251.042 -259.076)" fill="#fff" fill-rule="evenodd"></path><path id="Path_51583" data-name="Path 51583" d="M468.644,275.51c-.3-.3-1.744.221-2.584,1.06s-.883,1.566-.463,1.986,1.147.377,1.986-.463,1.357-2.282,1.06-2.584Z" transform="translate(-332.03 -223.644)" fill="#fff" fill-rule="evenodd"></path><path id="Path_51584" data-name="Path 51584" d="M379.044,275.51c-.3-.3-1.744.221-2.584,1.06s-.883,1.566-.463,1.986,1.147.377,1.986-.463,1.356-2.282,1.06-2.584Z" transform="translate(-251.042 -223.644)" fill="#fff" fill-rule="evenodd"></path><path id="Path_51585" data-name="Path 51585" d="M200.846,448.827c0,1.335-1.421,3.488-2.422,3.488S196,450.162,196,448.827c0-1.432,1.254-.549,2.422-.549S200.846,447.4,200.846,448.827Z" transform="translate(-88.582 -379.639)" fill="#fff" fill-rule="evenodd"></path><path id="Path_51586" data-name="Path 51586" d="M268.046,448.827c0,1.335-1.421,3.488-2.422,3.488s-2.422-2.153-2.422-3.488c0-1.432,1.254-.549,2.422-.549S268.046,447.4,268.046,448.827Z" transform="translate(-149.323 -379.639)" fill="#fff" fill-rule="evenodd"></path><path id="Path_51587" data-name="Path 51587" d="M198.415,417.3c.856,0,2.422-.274,2.422-.8,0-.431-.98-1.082-1.884-1.286v-.07c0-.447-.242-.807-.538-.807s-.538.361-.538.807v.07c-.9.2-1.884.856-1.884,1.286,0,.522,1.566.8,2.422.8Z" transform="translate(-88.573 -349.209)" fill="#fff" fill-rule="evenodd"></path><path id="Path_51588" data-name="Path 51588" d="M265.615,417.3c.856,0,2.422-.274,2.422-.8,0-.431-.98-1.082-1.884-1.286v-.07c0-.447-.242-.807-.538-.807s-.538.361-.538.807v.07c-.9.2-1.884.856-1.884,1.286,0,.522,1.566.8,2.422.8Z" transform="translate(-149.314 -349.209)" fill="#fff" fill-rule="evenodd"></path><path id="Path_51589" data-name="Path 51589" d="M457.557,436.8a.54.54,0,0,1,.538.538v4.306a.538.538,0,1,1-1.077,0v-4.306A.54.54,0,0,1,457.557,436.8Z" transform="translate(-324.511 -369.507)" fill="#fff" fill-rule="evenodd"></path><path id="Path_51590" data-name="Path 51590" d="M367.957,436.8a.54.54,0,0,1,.538.538v4.306a.538.538,0,1,1-1.077,0v-4.306A.54.54,0,0,1,367.957,436.8Z" transform="translate(-243.523 -369.507)" fill="#fff" fill-rule="evenodd"></path></g></g></svg>