<svg xmlns="http://www.w3.org/2000/svg" width="100" height="100" viewBox="0 0 100 100"><g id="Group_25599" data-name="Group 25599" transform="translate(-61.38 -2349.38)"><circle id="Ellipse_109" data-name="Ellipse 109" cx="50" cy="50" r="50" transform="translate(61.38 2349.38)" fill="#126634"></circle><g id="noun-plant-5414130" transform="translate(-7.693 2328.697)"><path id="Path_51548" data-name="Path 51548" d="M328.874,58.609a2.741,2.741,0,0,1-.813.712,3.613,3.613,0,0,1-1.017.2l-5.593-10.88,1.83-.915,5.592,10.88a8.914,8.914,0,0,0,1.627-8.846c-2.339-7.423-11.8-8.643-11.8-8.643s-4.474,8.44.2,14.642c2.949,3.864,6.406,4.067,8.135,3.864v6.3h.305a9.865,9.865,0,0,1,1.729.1V59.524a.917.917,0,0,0-.1-.508Z" transform="translate(-201.859)" fill="#fff"></path><path id="Path_51549" data-name="Path 51549" d="M147.267,328.887h-3.762V311.5h3.661a2.842,2.842,0,0,1,2.847,2.847v11.8a2.734,2.734,0,0,1-2.745,2.745Z" transform="translate(-48.723 -238.96)" fill="#fff"></path><path id="Path_51550" data-name="Path 51550" d="M317.587,276.494l10.27,6.2a4.431,4.431,0,0,1,1.424,1.322l10.27-3.661a15.491,15.491,0,0,0-19.93-8.948,16.5,16.5,0,0,0-5.491,3.559A11.6,11.6,0,0,1,317.587,276.494Z" transform="translate(-199.52 -202.631)" fill="#fff"></path><path id="Path_51551" data-name="Path 51551" d="M436.981,45.5a18.149,18.149,0,0,0-8.236,2.847,12.248,12.248,0,0,1,2.644,4.576A10.817,10.817,0,0,1,429.66,63.4a9.008,9.008,0,0,0,6.1-3.356c5.084-5.8,1.22-14.54,1.22-14.54Z" transform="translate(-300.816 -3.871)" fill="#fff"></path><path id="Path_51552" data-name="Path 51552" d="M88.375,315.88h4.474v16.371H88.375Z" transform="translate(0 -242.831)" fill="#fff"></path><path id="Path_51553" data-name="Path 51553" d="M260.945,328.627a6.821,6.821,0,0,0-7.321-1.932l-11.693,4.169v.61a4.129,4.129,0,0,1-3.966,4.372,4.75,4.75,0,0,1-1.729-.305l-9.965-3.966.712-1.932,9.965,3.966a2.1,2.1,0,0,0,2.745-1.22,1.758,1.758,0,0,0,.1-1.017l-.1-.407a3.2,3.2,0,0,0-1.322-1.729l-10.27-6.2a11.944,11.944,0,0,0-7.423-1.627l-6.3.712c0,.305.1.508.1.813v12.2h4.576l16.778,6.3a8.56,8.56,0,0,0,7.219-.61l17.794-11.083a.784.784,0,0,0,.1-1.118c.1.1.1,0,0,0Z" transform="translate(-111.358 -247.648)" fill="#fff"></path></g></g></svg>