<svg xmlns="http://www.w3.org/2000/svg" width="100" height="100" viewBox="0 0 100 100"><g id="Group_4247" data-name="Group 4247" transform="translate(-61.38 -2349.38)"><circle id="Ellipse_109" data-name="Ellipse 109" cx="50" cy="50" r="50" transform="translate(61.38 2349.38)" fill="#126634"></circle><g id="noun-garden-3071243" transform="translate(-109.794 2316.889)"><path id="Path_51536" data-name="Path 51536" d="M385.468,84.155c-.6,1.058-2.315,4.1-6.35,2.712,2.91-1.984,4.895-4.7,7.011-8.466a8.821,8.821,0,0,1-.661,5.754Z" transform="translate(-154.496 -19.754)" fill="#fff"></path><path id="Path_51537" data-name="Path 51537" d="M365.831,76.494c1.918-1.786,4.366-1.124,6.548-1.455a71.229,71.229,0,0,1-7.54,7.739,2.567,2.567,0,0,0-.4-1.257,4.411,4.411,0,0,1,1.389-5.027Z" transform="translate(-141.275 -16.789)" fill="#fff"></path><path id="Path_51538" data-name="Path 51538" d="M354.48,98.229a50.242,50.242,0,0,0,8.532-8.069c-3.373,5.49-5.688,6.548-8.532,8.268v-.2Z" transform="translate(-132.768 -30.124)" fill="#fff"></path><path id="Path_51539" data-name="Path 51539" d="M220.978,123.143c2.645,2.514,2.976,5.49,1.984,7.474a3.861,3.861,0,0,0-.529,1.984c-4.3-3.44-9.789-9.856-11.31-11.641,3.241.6,6.945-.529,9.855,2.183Z" transform="translate(-6.343 -57.287)" fill="#fff"></path><path id="Path_51540" data-name="Path 51540" d="M204.316,123.2c3.241,5.688,6.019,9.657,10.451,12.633C207.094,138.677,202.53,130.542,204.316,123.2Z" transform="translate(0 -59.262)" fill="#fff"></path><path id="Path_51541" data-name="Path 51541" d="M231.761,148.749c-4.5-2.712-8-4.167-13.361-13.229,8.4,9.723,11.046,10.649,13.361,12.766v.463Z" transform="translate(-12.761 -70.127)" fill="#fff"></path><path id="Path_51542" data-name="Path 51542" d="M277.223,357.644a10.163,10.163,0,0,1-10.12,10.12H264.92a10.163,10.163,0,0,1-10.12-10.12v-8.2h22.356v8.2Z" transform="translate(-44.862 -258.782)" fill="#fff"></path><path id="Path_51543" data-name="Path 51543" d="M254.193,314.72v3.638H224.561V314.72h29.632Z" transform="translate(-18.194 -228.161)" fill="#fff"></path><path id="Path_51544" data-name="Path 51544" d="M333.76,86.1c.2-8.466.2-7.673.2-8.136L334.488,56h.992c.331,13.692.264,11.641.264,13.1.066,2.58.331,14.419.4,17Z" transform="translate(-114.496)" fill="#fff"></path><path id="Path_51545" data-name="Path 51545" d="M372.545,175.849c-1.124-2.183-.728-5.556,2.183-8.268,3.241-3.043,7.342-1.72,10.913-2.381-1.521,1.918-7.672,9.128-12.567,12.832a3.1,3.1,0,0,0-.529-2.183Z" transform="translate(-148.188 -96.301)" fill="#fff"></path><path id="Path_51546" data-name="Path 51546" d="M359.627,192.327c4.1-2.91,9.458-8.731,12.766-12.567-3.307,5.622-6.35,9.525-10.98,12.5l-3.572,2.117v-.662c.6-.463,1.191-.992,1.786-1.389Z" transform="translate(-135.732 -109.141)" fill="#fff"></path><path id="Path_51547" data-name="Path 51547" d="M394.24,181.462c4.895-3.307,8-7.673,11.575-14.022C407.8,175.443,402.839,184.637,394.24,181.462Z" transform="translate(-167.832 -98.277)" fill="#fff"></path></g></g></svg>