<svg xmlns="http://www.w3.org/2000/svg" width="100" height="100" viewBox="0 0 100 100"><g id="Group_4247" data-name="Group 4247" transform="translate(-61.38 -2349.38)"><circle id="Ellipse_109" data-name="Ellipse 109" cx="50" cy="50" r="50" transform="translate(61.38 2349.38)" fill="#126634"></circle><g id="noun-seed-2144970" transform="translate(-54.556 2366.488)"><path id="Path_51535" data-name="Path 51535" d="M170.034.215l-1.261.164c-9.358,1.795-13.81,10.152-14.441,18.085a32.73,32.73,0,0,1-6.645,18.277c-4.631,6.48-6.535,15.8-.6,23.153l.863.918c5.8,7.357,23.442,7.151,32.567-4.823a55.721,55.721,0,0,0,11.33-31.141C192.585,9.806,179.2-1.676,170.034.215ZM158.045,35.864a1.341,1.341,0,1,1-2.151-1.6,19.414,19.414,0,0,0,3.946-10.824,1.323,1.323,0,1,1,2.644.082,22.087,22.087,0,0,1-4.439,12.345Z" transform="translate(0 0)" fill="#fff"></path></g></g></svg>