<svg xmlns="http://www.w3.org/2000/svg" width="100" height="100" viewBox="0 0 100 100"><g id="Group_25598" data-name="Group 25598" transform="translate(-61.38 -2349.38)"><circle id="Ellipse_109" data-name="Ellipse 109" cx="50" cy="50" r="50" transform="translate(61.38 2349.38)" fill="#126634"></circle><g id="noun-seed-2679906" transform="translate(-55.021 2328.862)"><path id="Path_51317" data-name="Path 51317" d="M177.8,41.547c-8.99,0-12.319,5.711-12.319,13.107,0,8.867,8.469,31.216,18.616,31.216,4.642,0,8.244-5.686,8.244-21.123,0-10.439-1.04-23.2-14.543-23.2ZM153.329,55.79c-8.99,0-12.319,5.711-12.319,13.107,0,8.867,8.469,31.216,18.616,31.216,4.642,0,8.244-5.686,8.244-21.123,0-10.439-1.04-23.2-14.543-23.2Zm8.359,27.717a22.006,22.006,0,0,1-2.214-5.639c-1.342-5-1.937-11.173.488-12.473,1.308-.7,2.739,13.342,2.093,17.79-.081.558-.142.674-.367.323Zm24.469-14.243a22.009,22.009,0,0,1-2.214-5.639c-1.342-5-1.937-11.173.488-12.473,1.308-.7,2.739,13.342,2.094,17.79-.081.558-.143.674-.367.323Z" transform="translate(0 0)" fill="#fff"></path></g></g></svg>