<svg xmlns="http://www.w3.org/2000/svg" width="58.277" height="60.554" viewBox="0 0 58.277 60.554"><g id="noun-water-3417773" transform="translate(-92.067 -12.006)"><path id="Path_51473" data-name="Path 51473" d="M121.7,17.287c-6.98,12.091,19.655,16.913,10.986,35.752-1.666,3.62-6.932,7.581-12.87,7.581-10.676,0-21.039-17.585,1.884-43.334Zm14.088-.226q.351.2.7.417a29.134,29.134,0,0,1-7.861,52.983,2.256,2.256,0,0,1-1.148-4.363,24.631,24.631,0,0,0,7.266-44.383q-.574-.378-1.173-.727l.88,1.438,1.239,2.025a2.256,2.256,0,0,1-3.85,2.349L126.2,17.572a2.26,2.26,0,0,1,1.424-3.5l10.205-2.014a2.259,2.259,0,0,1,.866,4.433l-1.956.386-.942.186Zm-31.2,55.449a2.259,2.259,0,0,1-.866-4.433l.941-.185,1.958-.386q-.75-.434-1.465-.909a29.133,29.133,0,0,1,8.63-52.49,2.256,2.256,0,0,1,1.148,4.363,24.632,24.632,0,0,0-8.13,43.788q.978.706,2.036,1.322l-1.566-2.559-.553-.9a2.256,2.256,0,0,1,3.85-2.349l5.645,9.228a2.26,2.26,0,0,1-1.424,3.5L104.586,72.51Z" fill="#fff" fill-rule="evenodd"></path></g></svg>