<svg xmlns="http://www.w3.org/2000/svg" width="70.534" height="51.757" viewBox="0 0 70.534 51.757"><g id="noun-pond-4968194" transform="translate(-97.998 -95.079)"><path id="Path_51471" data-name="Path 51471" d="M166.51,144.479v.027a2.381,2.381,0,0,1-2.422,2.327H155.66a.349.349,0,0,1-.318-.493,2.42,2.42,0,0,0,.211-.973v-.018a6.911,6.911,0,0,0-4.4-6.329.349.349,0,0,1-.118-.573,9.243,9.243,0,0,1,6.468-2.637,8.855,8.855,0,0,1,9.01,8.668Zm-18.031-4.992a6,6,0,0,0-6.108,5.863v.031a1.5,1.5,0,0,0,1.531,1.455h9.147a1.5,1.5,0,0,0,1.531-1.467v-.018a5.993,5.993,0,0,0-6.1-5.863Zm-26.472-31.541-.031.472c-.079,1.274-.1,2.54-.057,3.868a.351.351,0,0,0,.114.248.346.346,0,0,0,.235.09h.024c.729-.049,1.536-.092,2.467-.13a.348.348,0,0,0,.329-.285,45.547,45.547,0,0,1,2.106-7.4l.013-.034c.165-.459.352-.98.476-1.379a.349.349,0,0,0-.333-.453.339.339,0,0,0-.115.02c-.45.157-2.819,1.128-5.173,4.822a.377.377,0,0,0-.053.165Zm-14.2-2.657.023.07a53.514,53.514,0,0,1,2.245,8.783.35.35,0,0,0,.344.295.328.328,0,0,0,.092-.013c.583-.161,1.206-.316,1.849-.461a.349.349,0,0,0,.271-.307,41.792,41.792,0,0,1,.693-4.546.351.351,0,0,0-.042-.251,12.592,12.592,0,0,0-5.446-5.354.35.35,0,0,0-.464.423c.114.389.277.887.434,1.361Zm6.2,8.336a.378.378,0,0,0,.065-.006c2-.373,4.208-.664,6.561-.866a.349.349,0,0,0,.319-.36c-.02-.586-.027-1.112-.024-1.611,0-.778.029-1.594.08-2.422.02-.29.04-.575.062-.859a75.222,75.222,0,0,1,1.417-9.4c.2-.985.4-2,.477-2.627a.35.35,0,0,0-.515-.347c-1.838,1.012-5.5,4.611-7.537,11.683-.2.683-.361,1.315-.5,1.932-.168.727-.316,1.475-.441,2.227-.116.691-.217,1.435-.308,2.272a.35.35,0,0,0,.11.294.343.343,0,0,0,.237.094Zm27.434,31.011a.348.348,0,0,1-.311.309c-2.771.286-5.668.467-8.613.536-.813.019-1.628.029-2.422.029-11.657,0-19.094-2.046-23.282-3.763-5.449-2.233-8.744-5.316-8.814-8.249s3.414-4.938,6.216-6.55c1.978-1.137,3.54-2.036,3.824-3.153.33-1.3-.708-1.953-2.212-2.731-.942-.479-1.671-.885-1.8-1.389a1.207,1.207,0,0,1,.276-.939c1.726-2.575,8.817-4.56,18.507-5.179,1.983-.127,4.034-.191,6.1-.191a86.108,86.108,0,0,1,23.275,2.963c7.355,2.138,16.162,6.391,16.351,14.508.056,2.3-1.253,4.578-3.785,6.6a.351.351,0,0,1-.452-.013,10.211,10.211,0,0,0-14.584,1.025.349.349,0,0,1-.268.125l-.043,0a7.5,7.5,0,0,0-.919-.06,7.062,7.062,0,0,0-7.039,6.121Zm4.872-18.765a.486.486,0,0,0,.485.485H151a.486.486,0,0,0,0-.971h-4.2A.486.486,0,0,0,146.313,125.87Zm-14.023-1.361a.487.487,0,0,0,.487.487h4.2a.486.486,0,1,0,0-.971h-4.2A.487.487,0,0,0,132.29,124.508Zm-7.153-4.548a.486.486,0,0,0,.485.487h4.2a.486.486,0,1,0,0-.971h-4.2A.485.485,0,0,0,125.138,119.961Zm12.594,16.2c0-2.872-5.581-4.589-10.977-4.589s-10.977,1.717-10.977,4.589,5.581,4.586,10.977,4.586S137.732,139.031,137.732,136.159Zm7.584-15.139a.486.486,0,0,0,0-.971h-4.2a.486.486,0,0,0,0,.971Zm-18.561,11.524c-5.33,0-10,1.69-10,3.617s4.674,3.615,10,3.615,10-1.689,10-3.615S132.084,132.544,126.755,132.544Z" transform="translate(0 0)" fill="#fff"></path></g></svg>