<svg xmlns="http://www.w3.org/2000/svg" width="61.021" height="60" viewBox="0 0 61.021 60"><g id="noun-irrigation-4715654" transform="translate(-120.148 -53.99)"><path id="Path_51472" data-name="Path 51472" d="M181.168,107.242a6.755,6.755,0,0,1-6.748,6.748H126.835c-8.926-.285-8.906-13.217,0-13.5h8.292c.023-1.644-.159-5.058.422-6.485h0a4.494,4.494,0,0,1-3.328-1.4,10.857,10.857,0,0,1-2.436-5.341,1.159,1.159,0,0,1,.328-.993,1.144,1.144,0,0,1,.993-.327,10.839,10.839,0,0,1,5.34,2.435,4.616,4.616,0,0,1,1.356,2.609,4.856,4.856,0,0,1,.63-.32c-2.756-7.967,6.629-9.98,10.552-9.872h0a1.161,1.161,0,0,1,1.154,1.153c.124,3.451-1.672,13.238-9.712,10.609-3.474.17-2.962,4.316-2.975,7.936H161.84v-3.65a4.347,4.347,0,0,1-3.778-1.361,10.861,10.861,0,0,1-2.436-5.341,1.168,1.168,0,0,1,1.321-1.32c.171-.1,5.045,1.125,6.081,3.4h0a6.27,6.27,0,0,1,1.391-1.614c-4.966-3.618-.046-10.206,1.629-11.718a1.162,1.162,0,0,1,1.631,0c3.281,3.153,6.873,10.338-.779,12.947.018,0-2.651.6-2.737,4.958v3.7h10.258a6.755,6.755,0,0,1,6.748,6.748ZM154.112,55.151a1.164,1.164,0,0,0-1.161-1.161H148.3a1.165,1.165,0,0,0-1.161,1.161V59.8h6.969Zm-8.13,13.938h9.292a5.809,5.809,0,0,0,5.807-5.807,1.164,1.164,0,0,0-1.161-1.161h-5.807c-3.166,0-9.634,0-12.776,0a1.165,1.165,0,0,0-1.161,1.161,5.81,5.81,0,0,0,5.807,5.807Zm3.484,3.962v.666a1.162,1.162,0,0,0,2.323,0v-.666a1.162,1.162,0,0,0-2.323,0Zm11.719-2.565c1.48,1.979,3.622-.166,1.642-1.644h0a1.162,1.162,0,0,0-1.643,1.644Zm-22.408.811c.875,0,2.28-1.508,1.294-2.453-.765-.718-1.557-.2-2.116.47h0a1.17,1.17,0,0,0,.821,1.983Zm17.18-.131c-1.155,1.134,1.006,3.265,2.117,2.112C159.23,72.145,157.069,70.014,155.958,71.166Zm-12.3,0c-.671.557-1.188,1.348-.473,2.113.765.717,1.557.2,2.116-.47a1.162,1.162,0,0,0-1.643-1.643Z" fill="#fff"></path></g></svg>