<svg xmlns="http://www.w3.org/2000/svg" xmlns:xlink="http://www.w3.org/1999/xlink" width="56.993" height="98.628" viewBox="0 0 56.993 98.628"><defs><linearGradient id="linear-gradient" x1="0.5" x2="0.5" y2="1" gradientUnits="objectBoundingBox"><stop offset="0" stop-color="#fff"></stop><stop offset="0.97" stop-color="#d29e38"></stop><stop offset="1" stop-color="#694f1c"></stop></linearGradient></defs><g id="Group_38" data-name="Group 38" transform="translate(0.13 0.123)"><path id="Path_89" data-name="Path 89" d="M1847.462,2147.656c-1.448-1.125-1.286-6.27-2.733-7.233s-4.823-4.663-6.11-5.949-2.25,0-3.375,1.447-3.7.642-5.627-.405-.644,1.53-2.251,2.334-5.626-.643-6.853-.16-4.078-.483-5.686-1.769-2.572.8-1.446,1.929-.161,2.733-.965,3.859,2.894,1.768,4.341.964,3.215,1.929,3.7,3.377-2.09,4.018-4.5,5.3-1.447,4.663-3.054,6.11-3.858-.321-5.627,1-1.125,2.854-2.894,4.462-.964,2.733-1.4,4.18-1.651.805-2.114,4.823-1.949,3.376-2.752,4.18a3.458,3.458,0,0,0-.642,4.019c.8,1.769,1.929,3.375,1.3,4.341s.626,4.823-.66,5.627-1.608,1.768-.16,2.572-.965,3.216.82,4.168,2.394,3.709,3.681,4.675,0,3.375-1.588,3.375-2.591.8-4.36,1.783-.16,2.558-1.125,3.684c-.551.643-.734,2.281-.791,3.568a4.76,4.76,0,0,1,3.011,1.48c1.667,1.778,3.335,1.223,4.335,3.557s-.223,3.111,1.556,3.889,2.224,1.79,2.224,2.951v2.808c-.071.056-.142.108-.212.16a5,5,0,0,1,3.1-1.445,18.081,18.081,0,0,0,2.443-.35h0s2.341-6.163,4.824-7.7,2.958-4.613,4.968-5.8,1.98-5.915,1.464-7.334-1.819-6.861-3.237-8.4-2.366-4.5-1.183-5.088,4.718,1.065,4.718,1.065,1.434,2.485,3.327,2.721,3.667,2.365,3.667.355-2.248-2.958-3.549-3.194a2.883,2.883,0,0,1-2.248-3.43c.237-2.01-.587-8.163.949-8.4s2.126-1.3,2.718-2.6,2.485-2.011,4.26-2.011,4.376-.947,5.086-2.367-.592-3.193,1.183-5.086,3.667-2.13,3.193-3.43-1.864-3.9.074-4.495,6.2-1.9,6.077-3.315.355-2.283,1.183-1.732c0,0-1.047-2.166.239-3.291s2.572-1.125,2.572-3.054S1848.908,2148.782,1847.462,2147.656Z" transform="translate(-1794.582 -2133.946)" stroke="#fff" stroke-width="0.25" fill="url(#linear-gradient)"></path><path id="Path_90" data-name="Path 90" d="M1895.51,3201.348a.982.982,0,0,1-.167-.172A.982.982,0,0,0,1895.51,3201.348Z" transform="translate(-1886.068 -3102.94)" stroke="#fff" stroke-width="0.25" fill="url(#linear-gradient)"></path><path id="Path_91" data-name="Path 91" d="M1903.659,3168.89c-.053.023-.105.05-.161.07C1903.554,3168.939,1903.606,3168.913,1903.659,3168.89Z" transform="translate(-1893.473 -3073.625)" stroke="#fff" stroke-width="0.25" fill="url(#linear-gradient)"></path><path id="Path_92" data-name="Path 92" d="M1908.6,3166.093c-.058.04-.117.077-.177.113C1908.483,3166.169,1908.544,3166.132,1908.6,3166.093Z" transform="translate(-1897.945 -3071.086)" stroke="#fff" stroke-width="0.25" fill="url(#linear-gradient)"></path></g></svg>