<svg xmlns="http://www.w3.org/2000/svg" width="142.533" height="67.67" viewBox="0 0 142.533 67.67"><g id="Group_4227" data-name="Group 4227" transform="translate(-19.317 -15.783)"><path id="Path_20" data-name="Path 20" d="M108.179,50.96c-13.157-8.082-9.926-11.514-2.5-23.177,8.877,5.689,9.31,15.684,2.5,23.177" transform="translate(20.668 -12)" fill="#009845" fill-rule="evenodd"></path><path id="Path_21" data-name="Path 21" d="M111.64,50.911c7.393.558,7.737-1.733,10.035-8.5a9.831,9.831,0,0,0-10.035,8.5" transform="translate(21.007 -11.602)" fill="#d21113" fill-rule="evenodd"></path><path id="Path_19" data-name="Path 19" d="M59.547,52.246l-.77,3.6,7.511.321c-5.35,6.207-11.407,13.119-16.757,19.326l20.93.642q.065-1.734.128-3.467l-7.833-.514q8.6-9.953,17.207-19.9H59.547M82.4,47.88l1.156,2.568q-5.649,12.648-11.3,25.3h8.732c2.911-6.677,5.732-13.023,8.643-19.7l3.941.31q-4.108,9.5-8.218,19l10.016.385c.642-1.2,1.444-2.847,2.086-4.044l-2.567-.1c1.662-4.323,3.705-8.771,5.506-13.037,1.222-2.9,3.245-5.02-.494-6.357-2.192-.784-5.235-.5-8.383-.092q1.413-3.852,2.825-7.7A45.777,45.777,0,0,1,82.4,47.88Zm23.5,4.366V53.53a2.29,2.29,0,0,1,1.518.954c.932,1.476-1.1,4.557-1.786,6.007l-7.051,15,10.337.032,1.637-2.76-2.408-.578q4.35-9.953,8.7-19.9ZM33.223,55.584q-3.917,7.96-7.833,15.923c-.94,2.754-.131,4.607,4.237,4.623,6.164-.128,11.942-.257,18.105-.385l1.669-3.21c-1.141-.914-1.213-1.976-.514-3.467q3.788-8.412,7.576-16.821H47.348c-2.868,6.806-5.788,13.807-8.656,20.612l-4.237.129c2.91-6.635,5.874-14.236,8.784-20.87H32.453A3.508,3.508,0,0,1,33.223,55.584Zm94.605.741h2.436c.4,0,.842-.011,1.032.442a1.3,1.3,0,0,1-.052.909c-.476,1.1-5.381,12.738-5.856,13.841a1.079,1.079,0,0,1-1.2.817l-3.074-.059c-.814-.165-.7-.727-.565-1.278.52-1.138,5.47-12.806,5.99-13.945A1.183,1.183,0,0,1,127.829,56.325Zm-2.956-4.035H135.4c1.738,0,3.642-.046,4.463,1.912a5.617,5.617,0,0,1-.228,3.931l-6.164,14.318c-.675,2.316-2.3,3.61-5.2,3.531l-13.29-.257c-3.517-.714-3-3.144-2.44-5.522q3.37-7.384,6.741-14.767C120.649,52.74,122.157,52.29,124.873,52.29Zm-103.7-7.46h7.576l-.03.065h8.2L35,47.848H27.371l-1.9,4.174H31.65l-2.912,4.494H23.416L12.518,80.4H4.942l10.9-23.883H10.719l2.911-4.494h4.26Z" transform="translate(18.099 -11.547)" fill="#591412" fill-rule="evenodd"></path><path id="Path_22" data-name="Path 22" d="M143.85,83.426,136.4,89.462C89.439,79.591,44.854,83.746,1.317,94.085,62.239,74.036,95.334,75.554,143.85,83.426" transform="translate(18 -10.631)" fill="#009845" fill-rule="evenodd"></path></g></svg>