<svg xmlns="http://www.w3.org/2000/svg" xmlns:xlink="http://www.w3.org/1999/xlink" width="72.016" height="106.248" viewBox="0 0 72.016 106.248"><defs><linearGradient id="linear-gradient" x1="0.5" x2="0.5" y2="1" gradientUnits="objectBoundingBox"><stop offset="0" stop-color="#fff"></stop><stop offset="0.97" stop-color="#d29e38"></stop><stop offset="1" stop-color="#694f1c"></stop></linearGradient></defs><path id="Path_88" data-name="Path 88" d="M835.913,3128.641c-.877-1.378-.5-4.513-2.131-4.263a2.565,2.565,0,0,1-2.758-2.381c.125-.877-.626-1.881-2.507-2.257s-4.389,2.633-5.391,2.381-3.486-2.758-4.5-1.881-2.394,2.006-3.4,1.63-.126-2.759-1-3.511-.877-3.009,0-3.009,2.758,2.758,3.887,2.006,3.135-.126,2.633-2.006-1.755-2.759-3.259-2.382a7.536,7.536,0,0,1-3.918-.085c-.846-.291-.345-3.175-1.725-4.052s-2.381-2.633-.626-3.511-1.5-4.387.25-4.263,5.767,2.125,5.767,0-4.011-6.767-2.381-7.9.25-5.015,1.5-5.391,4.639-2.382,5.516-1c0,0-.521-2.886.741-3.117s2.41-2.179,1.721-2.295-3.3-.229-2.569-1.376.733-3.674.5-4.821a25.783,25.783,0,0,1-.632-4.785c-.056-2.1-1.78-3.133,0-4.166s3.112-1.836,2.9-2.64-3.191-1.262-2.5-2.3a9.726,9.726,0,0,0,1.836-3.787c.23-1.492-1.836-1.721-.344-2.984.911-.77.751-2.18.7-3.32-1.539-.544-1.9-1.778-2.49-2.112-.87-.5-3.356,1.243-3.115,2.237s-2.477,3.107-4.093,3.48-3.107,3.479-5.1,4.117,0,2.346-1.491,3.216-1.864.372-2.113,1.723-2.61.638-5.658,1.259-3.414-1.864-4.782-1.119.5,4.724,0,6.39-2.735-.175-4.226.657-3.107.287-4.35,0-1.242,1.281-2.361,1.9a16.173,16.173,0,0,0-3.977,2.859c-1.491,1.491-2.362-.5-3.81,0s-2.9,3.853-1.784,4.475,2.362,3.23,1.491,4.224-.62,4.1-2.236,3.755-1.616,1.092-2.362,2.609-1.864-.273-3.729-2.609a2.165,2.165,0,0,0-2.259-.713,2.435,2.435,0,0,1,.386,1.044c.417,2.707.521,5.832,2.4,8.02s4.27,5.311,3.854,6.249.416,1.458,1.249,2.812.208,1.666.938,2.6.728,5.417,1.145,6.667,3.437,6.456,3.334,8.956,1.249,9.895,2.186,12.6l.444,1.049c2.227.041,4.658.373,5.8,1.513,2.382,2.383,1.128,3.51,2.633,4.639s2.006,3.761,4.889,4.513a32.793,32.793,0,0,1,5.967,2.383l3.046,2.984h0a.911.911,0,0,1,1.143.023c1.378,1,3.472,2.507,4.62,1s2.526-3.51,4.031-2.633,2.257-2.058,4.263-.214,1.755-.286,3.385-1.291,4.013-2.633,3.009-3.385-4.263.25-3.385-1.755,3.511-2.508,2.257-3.887-1.755-3.135.627-3.511.626-3.385,2.883-2.759,2.884-.376,4.263.5a3.466,3.466,0,0,1,1.023,1.873s.983-2.374,2.236-2.625,3.26-3.135,3.386-4.013S836.791,3130.021,835.913,3128.641Z" transform="translate(-765.788 -3048.981)" fill="url(#linear-gradient)"></path></svg>