<svg xmlns="http://www.w3.org/2000/svg" xmlns:xlink="http://www.w3.org/1999/xlink" width="108.31" height="74.95" viewBox="0 0 108.31 74.95"><defs><linearGradient id="linear-gradient" x1="0.5" x2="0.5" y2="1" gradientUnits="objectBoundingBox"><stop offset="0" stop-color="#fff"></stop><stop offset="0.97" stop-color="#d29e38"></stop><stop offset="1" stop-color="#694f1c"></stop></linearGradient></defs><g id="Group_41" data-name="Group 41" transform="translate(0.126 0.15)"><path id="Path_95" data-name="Path 95" d="M963.25,1719.9s1.48-2.035,0-2.589-2.774-.092-4.148.277-1.863-2.127-3.25-2.862-1.664-2.224-3.329-1.713-4.716-.7-6.1-.7-.925,1.018-1.11,1.665-3.051.646-3.976.184-1.2-1.664-1.849-2.589-1.2,1.018-1.664,1.849-2.774.648-4.016,0,3.462-2.034,3.369-2.774-.462-.555-2.312-.832-1.664-1.11-2.866-.648a9.13,9.13,0,0,0-3.884,3.236c-1.3,1.757-.184-1.11-1.571-1.572s-.925,1.572-2.774,1.479.925-2.589-.555-2.866-1.571,1.3-2.681,2.035-1.664-1.572-2.959-1.572.833-2.589.37-3.421-.925,0-1.572.647-1.387.555-2.312,1.018,1.757,5.732,1.018,7.12,3.514,5.734,3.976,6.658a1.231,1.231,0,0,1-2.128,1.2c-1.387-1.294-1.756.554-3.051-.648s-1.942-1.11-3.514-.462-.646-5.732-.832-7.675,2.127-3.144,1.017-4.438.277-3.606,1.849-4.161,3.791-.555,4.068-2.219,2.312-3.976,2.867-5.178.925-5.179,0-6.473-3.884-2.866-3.884-2.866-3.884-.463-5.178,0-3.514,2.589-4.9,4.068-4.623,1.942-4.623,1.942-2.866,2.22-5.64,4.161a12.281,12.281,0,0,1-5.08,2.312c-1.473.462-1.023,1.941-2.226,3.328s1.2,3.976,2.226,4.809,4.895-1.849,5.727-2.219,2.958,1.571,2.958,2.773-2.4,1.387-3.883,1.2-.648,1.017-1.943,2.219.555,2.774,1.387,2.774,2.035,3.144,0,3.422-1.2,2.958-1.294,4.154-1.572-.271-2.953-1.01-4.537.185-6.017-.092-.185,3.329-2.035,3.883a17.454,17.454,0,0,0-3.791,1.573,1.777,1.777,0,0,1-2.4-2.5c.833-1.2,2.774-.092,3.964-.472s-.172-4.151-.08-5.538.277-3.33-.647-4.531-2.682,1.295-4.346,1.48,1.11-4.717,0-5.825-2.312,2.219-3.791,3.421-.925-1.941-2.127-1.2-.925,3.884-.833,5.178.185,4.254.925,4.809.648,2.959-.73,3.7-.194,3.328-.009,4.531-2.5,1.3-3.606,2.405,1.017,1.294,0,2.783-4.178,0-4.178,0h0c.428.69.756,1.407,1.246,2.248.832,1.426,1.069,3.685-.833,4.279s-4.4.952-3.8,1.9,2.5,1.841,2.021,2.228-1.783.268-1.307,1.576a9.807,9.807,0,0,1,.179,3.092c1.127.47,2.028,1.082,3,.3,1.227-.982,2.33-.245,2.7.98s1.35,3.435,1.35,3.435,5.4,0,7.236,2.085,3.679.981,6.623,1.1,3.435.49,3.189,2.331,1.1,1.154,3.312,1.251,3.312.711,4.416-1.375,2.453-4.906,4.293-4.783,2.453-2.208,4.416-1.718,4.416,2.7,3.189,3.312-2.576-.614-2.944.737,1.15,1.227,3.274,1.227,4.7,1.1,6.049.122,1.1-1.84,2.7-1.1,2.208.736,5.274.245,3.875-3.679,6.047-2.453,1.926,2.944,3.643,2.208,1.35-.859,3.557-.368,2.7-.982,4.171-.49c.9.3,2.765,2.253,4.076,3.724.727-.351,1.677-.5,2.014-3.433.413-3.583,1.494-3.01,1.885-4.3s-.325-2.293,1.252-3.727,1-2.8,2.581-3.979,3.584.4,5.018-.895.573-4.3,2.723-5.448,4.445-3.44,4.014-4.73-2.007-3.728-3.3-3.011-4.587.144-3.871-.859,1.864-2.438.86-3.442-.144-2.867,1.29-1.72,3.975,2.007,5.07,1.577,4.679.86,6.111.143c1.262-.631.526-2.485,1.506-2.284-.226-1.74-.289-3.222.093-3.5C965.655,1722.3,963.25,1719.9,963.25,1719.9Z" transform="translate(-856.836 -1688.811)" stroke="#fff" stroke-width="0.25" fill="url(#linear-gradient)"></path></g></svg>