<svg xmlns="http://www.w3.org/2000/svg" xmlns:xlink="http://www.w3.org/1999/xlink" width="78.294" height="105.214" viewBox="0 0 78.294 105.214"><defs><linearGradient id="linear-gradient" x1="0.5" x2="0.5" y2="1" gradientUnits="objectBoundingBox"><stop offset="0" stop-color="#fff"></stop><stop offset="0.97" stop-color="#d29e38"></stop><stop offset="1" stop-color="#694f1c"></stop></linearGradient></defs><path id="Path_79" data-name="Path 79" d="M1171.9,3951.659c0-1.679.56-5.875,1.4-7.275s1.679-2.657,3.218-2.8,7.275-1.817,8.395-2.657,5.735-.42,6.016-.84-4.758-3.217-3.218-6.016,5.455-5.457,6.015-9.514,4.2-5.875,7.134-4.756,4.617,2.708,4.617-.325-.14-11.986,0-14.364-1.679-4.617-1.679-6.855-1.4-7.274-.42-9.233,5.036-5.316,6.574-8.813,3.218-6.3,2.659-8.674a4.817,4.817,0,0,1,1.119-4.756c.98-1.259,1.4-4.477,0-7-.01-.019-.018-.041-.028-.06-2.251.228-2.154-.4-3.975-1.131-2.3-.918-1.685,1.685-4.44,2.8a7.7,7.7,0,0,1-6.43.112c-2.3-.766-.613,2.6-2.6,3.215s-4.439.766-5.817,2.144-3.522-1.072-6.43-.766-1.685,2.6-2.144,4.746-.765,2.6-4.287,3.981-2.755-3.215-4.439-4.287-2.45.154-5.205-.613-.613,2.909-3.52,3.369-2.3,2.6-.766,4.287-1.683,2.3-2.755,4.746,2.909,1.224,4.133,2.143-1.683,2.909-3.674,4.133-1.683,3.828-4.133,1.575-3.368,1.334-5.205.262-3.52,1.377-4.922,3.215-3.957,0-5.641-1.224-2.755,2.143-4.746,3.673,4.746,1.837,4.439,3.369,1.072,1.837,3.017,2.143,2.5,2.144.81,3.063-.459,2.909,1.072,3.061,3.368,2.45,2.142,3.98-.765,4.287-.918,6.43,2.755,3.061,4.594,1.531,3.52,0,3.98,2.143-1.072,8.573-1.148,10.715,4.363,2.909,2.832,3.981-.919,4.9-3.061,6.582,1.224,5.359,0,6.431.459,4.745-.613,5.817a8.988,8.988,0,0,0-1.217,3.337,21.83,21.83,0,0,1,3.611,2.64,7.553,7.553,0,0,0,5.087,2.289c1.525.127,3.47-3.2,4.975-4.081C1169,3955.946,1171.9,3953.338,1171.9,3951.659Z" transform="translate(-1136.335 -3856.405)" fill="url(#linear-gradient)"></path></svg>