<svg xmlns="http://www.w3.org/2000/svg" width="113.534" height="55.469" viewBox="0 0 113.534 55.469"><g id="Group_5" data-name="Group 5" transform="translate(-210.666 -177.72)"><g id="Group_5-2" data-name="Group 5" transform="translate(210.666 219.277)"><g id="Group_1" data-name="Group 1"><path id="Path_1" data-name="Path 1" d="M212.888,351.315v.63h-2.222V348.2h.774v3.115Z" transform="translate(-210.666 -348.158)" fill="#004534"></path><path id="Path_2" data-name="Path 2" d="M226.718,351.945h-.779V348.2h.779Z" transform="translate(-222.212 -348.158)" fill="#004534"></path><path id="Path_3" data-name="Path 3" d="M238.5,348.2l-1.507,3.745h-.7l-1.507-3.745h.625a.264.264,0,0,1,.164.048.289.289,0,0,1,.094.122l.811,2.158c.031.081.061.169.091.264s.058.2.084.3c.022-.105.047-.205.073-.3s.055-.184.087-.264l.805-2.158a.287.287,0,0,1,.091-.117.253.253,0,0,1,.164-.053Z" transform="translate(-228.897 -348.158)" fill="#004534"></path><path id="Path_4" data-name="Path 4" d="M256.439,348.806v.963h1.249v.586h-1.249v.983h1.605v.607h-2.385V348.2h2.385v.606Z" transform="translate(-244.68 -348.158)" fill="#004534"></path><path id="Path_5" data-name="Path 5" d="M274.254,351.315v.63h-2.222V348.2h.774v3.115Z" transform="translate(-257.058 -348.158)" fill="#004534"></path><path id="Path_6" data-name="Path 6" d="M288.084,351.945H287.3V348.2h.779Z" transform="translate(-268.604 -348.158)" fill="#004534"></path><path id="Path_7" data-name="Path 7" d="M301.153,348.2v3.745h-.779v-1.613h-1.649v1.613h-.78V348.2h.78v1.59h1.649V348.2Z" transform="translate(-276.648 -348.158)" fill="#004534"></path><path id="Path_8" data-name="Path 8" d="M321.477,349.942a2.066,2.066,0,0,1-.138.761,1.79,1.79,0,0,1-.39.607,1.81,1.81,0,0,1-.605.4,2.183,2.183,0,0,1-1.569,0,1.82,1.82,0,0,1-.606-.4,1.77,1.77,0,0,1-.391-.607,2.163,2.163,0,0,1,0-1.521,1.771,1.771,0,0,1,.391-.605,1.819,1.819,0,0,1,.606-.4,2.182,2.182,0,0,1,1.569,0,1.768,1.768,0,0,1,1,1.009A2.048,2.048,0,0,1,321.477,349.942Zm-.793,0a1.669,1.669,0,0,0-.078-.528,1.115,1.115,0,0,0-.223-.4.959.959,0,0,0-.354-.25,1.331,1.331,0,0,0-.943,0,.961.961,0,0,0-.355.25,1.119,1.119,0,0,0-.223.4,1.842,1.842,0,0,0,0,1.058,1.1,1.1,0,0,0,.223.4.971.971,0,0,0,.355.249,1.331,1.331,0,0,0,.943,0,.97.97,0,0,0,.354-.249,1.1,1.1,0,0,0,.223-.4A1.678,1.678,0,0,0,320.684,349.942Z" transform="translate(-291.537 -348.03)" fill="#004534"></path><path id="Path_9" data-name="Path 9" d="M342.863,349.942a2.066,2.066,0,0,1-.138.761,1.789,1.789,0,0,1-.39.607,1.808,1.808,0,0,1-.605.4,2.183,2.183,0,0,1-1.569,0,1.82,1.82,0,0,1-.606-.4,1.771,1.771,0,0,1-.391-.607,2.165,2.165,0,0,1,0-1.521,1.773,1.773,0,0,1,.391-.605,1.818,1.818,0,0,1,.606-.4,2.182,2.182,0,0,1,1.569,0,1.768,1.768,0,0,1,1,1.009A2.048,2.048,0,0,1,342.863,349.942Zm-.793,0a1.669,1.669,0,0,0-.077-.528,1.12,1.12,0,0,0-.223-.4.957.957,0,0,0-.354-.25,1.331,1.331,0,0,0-.943,0,.957.957,0,0,0-.355.25,1.117,1.117,0,0,0-.223.4,1.847,1.847,0,0,0,0,1.058,1.1,1.1,0,0,0,.223.4.967.967,0,0,0,.355.249,1.331,1.331,0,0,0,.943,0,.968.968,0,0,0,.354-.249,1.1,1.1,0,0,0,.223-.4A1.678,1.678,0,0,0,342.07,349.942Z" transform="translate(-307.704 -348.03)" fill="#004534"></path><path id="Path_10" data-name="Path 10" d="M364.668,350.071a2.014,2.014,0,0,1-.138.755,1.717,1.717,0,0,1-.39.592,1.78,1.78,0,0,1-.605.387,2.127,2.127,0,0,1-.784.139h-1.44V348.2h1.44a2.123,2.123,0,0,1,.784.139,1.77,1.77,0,0,1,.605.388,1.735,1.735,0,0,1,.39.592A2,2,0,0,1,364.668,350.071Zm-.8,0a1.685,1.685,0,0,0-.077-.529,1.116,1.116,0,0,0-.222-.4.972.972,0,0,0-.352-.25,1.2,1.2,0,0,0-.471-.088h-.661v2.532h.661a1.217,1.217,0,0,0,.471-.086.948.948,0,0,0,.352-.25,1.129,1.129,0,0,0,.222-.4A1.692,1.692,0,0,0,363.873,350.071Z" transform="translate(-324.552 -348.158)" fill="#004534"></path><path id="Path_11" data-name="Path 11" d="M391.672,351.945h-.779V348.2h.779Z" transform="translate(-346.916 -348.158)" fill="#004534"></path><path id="Path_12" data-name="Path 12" d="M405.663,348.2v3.745h-.684v-2.3c0-.048,0-.1,0-.155s.007-.111.014-.168l-1.071,2.031a.287.287,0,0,1-.271.168h-.109a.288.288,0,0,1-.271-.168l-1.076-2.039q.008.09.013.174t.005.156v2.3h-.684V348.2h.589l.088,0a.229.229,0,0,1,.069.014.158.158,0,0,1,.054.036.284.284,0,0,1,.048.068l1.048,2c.033.06.063.122.092.186s.055.129.081.2q.039-.1.081-.2c.028-.065.059-.128.091-.188l1.04-1.99a.265.265,0,0,1,.049-.068.17.17,0,0,1,.056-.036.226.226,0,0,1,.067-.014l.089,0Z" transform="translate(-354.961 -348.158)" fill="#004534"></path><path id="Path_13" data-name="Path 13" d="M427.157,348.2a2.173,2.173,0,0,1,.664.09,1.264,1.264,0,0,1,.461.252.993.993,0,0,1,.267.383,1.318,1.318,0,0,1,.086.482,1.371,1.371,0,0,1-.09.506,1.035,1.035,0,0,1-.274.395,1.274,1.274,0,0,1-.462.257,2.09,2.09,0,0,1-.653.092h-.491v1.288h-.774V348.2Zm0,1.863a.712.712,0,0,0,.533-.175.663.663,0,0,0,.169-.48.729.729,0,0,0-.042-.254.506.506,0,0,0-.129-.2.583.583,0,0,0-.218-.125.989.989,0,0,0-.312-.044h-.491v1.275Z" transform="translate(-373.375 -348.158)" fill="#004534"></path><path id="Path_14" data-name="Path 14" d="M444.236,351.945h-.6a.264.264,0,0,1-.164-.048.291.291,0,0,1-.094-.122l-.253-.715h-1.492l-.253.715a.3.3,0,0,1-.091.117.247.247,0,0,1-.162.053h-.607l1.464-3.745h.792Zm-1.3-1.422-.405-1.146q-.036-.09-.076-.212t-.076-.263q-.036.145-.076.267t-.076.213l-.4,1.141Z" transform="translate(-384.434 -348.158)" fill="#004534"></path><path id="Path_15" data-name="Path 15" d="M462.81,350.895a.144.144,0,0,1,.109.046l.307.328a1.461,1.461,0,0,1-.564.439,1.962,1.962,0,0,1-.8.15,1.909,1.909,0,0,1-.756-.143,1.631,1.631,0,0,1-.57-.4,1.769,1.769,0,0,1-.362-.607,2.379,2.379,0,0,1-.066-1.3,1.885,1.885,0,0,1,.177-.463,1.794,1.794,0,0,1,.28-.382,1.692,1.692,0,0,1,.37-.29,1.782,1.782,0,0,1,.45-.183,2.067,2.067,0,0,1,.52-.063,2.025,2.025,0,0,1,.391.036,1.881,1.881,0,0,1,.344.1,1.569,1.569,0,0,1,.3.156,1.645,1.645,0,0,1,.244.2l-.26.356a.251.251,0,0,1-.06.06.166.166,0,0,1-.1.026.219.219,0,0,1-.125-.044c-.042-.029-.094-.062-.155-.1a1.108,1.108,0,0,0-.23-.1,1.176,1.176,0,0,0-.35-.044,1.068,1.068,0,0,0-.431.085.935.935,0,0,0-.337.246,1.134,1.134,0,0,0-.218.4,1.7,1.7,0,0,0-.078.534,1.6,1.6,0,0,0,.084.538,1.174,1.174,0,0,0,.23.4.964.964,0,0,0,.341.247,1.037,1.037,0,0,0,.417.084,1.968,1.968,0,0,0,.239-.013.979.979,0,0,0,.2-.044.861.861,0,0,0,.173-.08,1.056,1.056,0,0,0,.164-.124.323.323,0,0,1,.06-.039A.149.149,0,0,1,462.81,350.895Z" transform="translate(-399.195 -348.03)" fill="#004534"></path><path id="Path_16" data-name="Path 16" d="M480.768,348.824h-1.094v3.12H478.9v-3.12H477.8V348.2h2.965Z" transform="translate(-412.619 -348.158)" fill="#004534"></path><path id="Path_17" data-name="Path 17" d="M505.975,348.2a2.172,2.172,0,0,1,.664.09,1.264,1.264,0,0,1,.461.252.993.993,0,0,1,.267.383,1.317,1.317,0,0,1,.086.482,1.371,1.371,0,0,1-.09.506,1.034,1.034,0,0,1-.274.395,1.272,1.272,0,0,1-.462.257,2.09,2.09,0,0,1-.653.092h-.49v1.288h-.775V348.2Zm0,1.863a.712.712,0,0,0,.533-.175.662.662,0,0,0,.169-.48.729.729,0,0,0-.043-.254.506.506,0,0,0-.129-.2.583.583,0,0,0-.218-.125.989.989,0,0,0-.312-.044h-.49v1.275Z" transform="translate(-432.961 -348.158)" fill="#004534"></path><path id="Path_18" data-name="Path 18" d="M523.055,351.945h-.6a.264.264,0,0,1-.164-.048.292.292,0,0,1-.094-.122l-.253-.715h-1.492l-.253.715a.3.3,0,0,1-.091.117.247.247,0,0,1-.162.053h-.607L520.8,348.2h.792Zm-1.3-1.422-.405-1.146q-.036-.09-.076-.212t-.076-.263q-.036.145-.076.267c-.026.082-.052.153-.076.213l-.4,1.141Z" transform="translate(-444.02 -348.158)" fill="#004534"></path><path id="Path_19" data-name="Path 19" d="M543.2,351.945h-.7a.3.3,0,0,1-.284-.15l-.712-1.148a.3.3,0,0,0-.1-.1.317.317,0,0,0-.156-.031h-.263v1.427h-.774V348.2h1.177a2.421,2.421,0,0,1,.671.081,1.291,1.291,0,0,1,.457.226.87.87,0,0,1,.261.345,1.2,1.2,0,0,1,.03.792,1.038,1.038,0,0,1-.153.3,1.108,1.108,0,0,1-.248.243,1.284,1.284,0,0,1-.335.171.748.748,0,0,1,.139.1.691.691,0,0,1,.116.138Zm-1.814-1.972a.991.991,0,0,0,.325-.048.613.613,0,0,0,.225-.132.513.513,0,0,0,.129-.2.719.719,0,0,0,.041-.248.508.508,0,0,0-.177-.413.829.829,0,0,0-.538-.147h-.4v1.185Z" transform="translate(-459.804 -348.158)" fill="#004534"></path><path id="Path_20" data-name="Path 20" d="M559.5,348.824h-1.094v3.12h-.777v-3.12h-1.094V348.2H559.5Z" transform="translate(-472.142 -348.158)" fill="#004534"></path><path id="Path_21" data-name="Path 21" d="M578.042,348.2v3.745h-.4a.352.352,0,0,1-.152-.03.368.368,0,0,1-.121-.1l-1.866-2.374c.005.06.009.12.011.178s0,.113,0,.163v2.165h-.684V348.2h.408a.753.753,0,0,1,.084,0,.183.183,0,0,1,.063.018.244.244,0,0,1,.054.037.531.531,0,0,1,.057.062l1.879,2.385q-.01-.1-.015-.19t-.005-.174V348.2Z" transform="translate(-485.974 -348.158)" fill="#004534"></path><path id="Path_22" data-name="Path 22" d="M596.206,348.806v.963h1.249v.586h-1.249v.983h1.606v.607h-2.385V348.2h2.385v.606Z" transform="translate(-501.542 -348.158)" fill="#004534"></path><path id="Path_23" data-name="Path 23" d="M614.786,351.945h-.7a.3.3,0,0,1-.284-.15l-.712-1.148a.3.3,0,0,0-.1-.1.318.318,0,0,0-.156-.031h-.263v1.427H611.8V348.2h1.177a2.42,2.42,0,0,1,.671.081,1.29,1.29,0,0,1,.457.226.873.873,0,0,1,.261.345,1.208,1.208,0,0,1,.029.792,1.034,1.034,0,0,1-.154.3,1.1,1.1,0,0,1-.248.243,1.283,1.283,0,0,1-.335.171.738.738,0,0,1,.139.1.683.683,0,0,1,.116.138Zm-1.814-1.972a.992.992,0,0,0,.325-.048.613.613,0,0,0,.224-.132.515.515,0,0,0,.129-.2.719.719,0,0,0,.041-.248.508.508,0,0,0-.176-.413.829.829,0,0,0-.538-.147h-.4v1.185Z" transform="translate(-513.92 -348.158)" fill="#004534"></path><path id="Path_24" data-name="Path 24" d="M630.887,348.789a.292.292,0,0,1-.073.087.163.163,0,0,1-.1.027.237.237,0,0,1-.123-.04q-.066-.04-.154-.086a1.479,1.479,0,0,0-.2-.086.8.8,0,0,0-.266-.04.588.588,0,0,0-.4.12.4.4,0,0,0-.134.314.294.294,0,0,0,.074.205.641.641,0,0,0,.193.141,1.821,1.821,0,0,0,.273.106q.152.047.312.1a2.73,2.73,0,0,1,.312.13,1.1,1.1,0,0,1,.272.189.865.865,0,0,1,.193.278.97.97,0,0,1,.073.4,1.284,1.284,0,0,1-.089.479,1.139,1.139,0,0,1-.257.39,1.19,1.19,0,0,1-.414.262,1.54,1.54,0,0,1-.559.1,1.759,1.759,0,0,1-.355-.036,2.021,2.021,0,0,1-.341-.1,1.868,1.868,0,0,1-.309-.155,1.364,1.364,0,0,1-.253-.2l.227-.367a.235.235,0,0,1,.075-.069.194.194,0,0,1,.1-.027.267.267,0,0,1,.147.052q.078.052.178.113a1.415,1.415,0,0,0,.233.114.879.879,0,0,0,.319.052.639.639,0,0,0,.42-.124.454.454,0,0,0,.148-.369.345.345,0,0,0-.074-.23.593.593,0,0,0-.192-.147,1.547,1.547,0,0,0-.271-.1c-.1-.028-.206-.06-.312-.094a2.616,2.616,0,0,1-.312-.124.964.964,0,0,1-.271-.191.9.9,0,0,1-.192-.294,1.13,1.13,0,0,1-.074-.436,1.038,1.038,0,0,1,.083-.405,1.027,1.027,0,0,1,.243-.348,1.217,1.217,0,0,1,.394-.245,1.445,1.445,0,0,1,.536-.093,1.814,1.814,0,0,1,.626.1,1.4,1.4,0,0,1,.487.29Z" transform="translate(-526.594 -348.03)" fill="#004534"></path></g><g id="Group_2" data-name="Group 2" transform="translate(3.876 10.089)"><path id="Path_25" data-name="Path 25" d="M228.388,392.371l0,.328h-1.837v-2.981h1.837v.329h-1.433v.99h1.161v.316h-1.161v1.017Z" transform="translate(-226.549 -389.636)" fill="#004534"></path><path id="Path_26" data-name="Path 26" d="M235.806,393.5a1.226,1.226,0,0,1,.146-.139.948.948,0,0,1,.163-.107.825.825,0,0,1,.183-.069.866.866,0,0,1,.209-.024.766.766,0,0,1,.3.057.591.591,0,0,1,.22.162.717.717,0,0,1,.134.253,1.106,1.106,0,0,1,.046.326V395.3h-.372v-1.342a.567.567,0,0,0-.109-.371.405.405,0,0,0-.332-.132.622.622,0,0,0-.307.079,1,1,0,0,0-.263.214V395.3h-.372V393.2h.223a.092.092,0,0,1,.1.077Z" transform="translate(-233.283 -392.238)" fill="#004534"></path><path id="Path_27" data-name="Path 27" d="M245.38,393.543a.082.082,0,0,1-.077.046.144.144,0,0,1-.071-.023q-.04-.023-.1-.051a.955.955,0,0,0-.136-.052.655.655,0,0,0-.187-.024.558.558,0,0,0-.169.024.413.413,0,0,0-.128.066.282.282,0,0,0-.081.1.257.257,0,0,0-.028.12.2.2,0,0,0,.047.135.406.406,0,0,0,.124.093,1.049,1.049,0,0,0,.175.07l.2.064c.069.023.135.048.2.076a.729.729,0,0,1,.175.1.476.476,0,0,1,.124.153.466.466,0,0,1,.047.217.69.69,0,0,1-.052.27.6.6,0,0,1-.154.214.748.748,0,0,1-.25.142,1.029,1.029,0,0,1-.341.052,1.058,1.058,0,0,1-.4-.072,1.01,1.01,0,0,1-.3-.184l.087-.142a.134.134,0,0,1,.04-.042.108.108,0,0,1,.058-.014.141.141,0,0,1,.079.029q.041.029.1.064a.744.744,0,0,0,.145.065.669.669,0,0,0,.212.029.573.573,0,0,0,.189-.028.4.4,0,0,0,.135-.076.3.3,0,0,0,.08-.11.343.343,0,0,0,.026-.133.218.218,0,0,0-.047-.144.386.386,0,0,0-.123-.1,1.043,1.043,0,0,0-.176-.071l-.2-.063c-.069-.022-.136-.048-.2-.076a.7.7,0,0,1-.176-.107A.477.477,0,0,1,244.1,394a.515.515,0,0,1-.047-.23.558.558,0,0,1,.05-.232.565.565,0,0,1,.146-.2.714.714,0,0,1,.235-.134.938.938,0,0,1,.318-.05,1.006,1.006,0,0,1,.373.066.881.881,0,0,1,.286.18Z" transform="translate(-239.741 -392.238)" fill="#004534"></path><path id="Path_28" data-name="Path 28" d="M253.337,393.3v2.107h-.221a.094.094,0,0,1-.1-.077l-.029-.227a1.161,1.161,0,0,1-.308.244.806.806,0,0,1-.391.092.764.764,0,0,1-.3-.057.6.6,0,0,1-.221-.161.675.675,0,0,1-.134-.252,1.126,1.126,0,0,1-.045-.327V393.3h.37v1.343a.562.562,0,0,0,.109.37.409.409,0,0,0,.334.131.631.631,0,0,0,.307-.078.974.974,0,0,0,.263-.215V393.3Z" transform="translate(-245.475 -392.342)" fill="#004534"></path><path id="Path_29" data-name="Path 29" d="M261.185,393.605a.956.956,0,0,1,.245-.338.537.537,0,0,1,.356-.121.566.566,0,0,1,.128.014.346.346,0,0,1,.109.046l-.027.276a.06.06,0,0,1-.062.052.414.414,0,0,1-.085-.012.592.592,0,0,0-.127-.012.508.508,0,0,0-.178.029.418.418,0,0,0-.139.086.609.609,0,0,0-.11.142,1.223,1.223,0,0,0-.088.193v1.331h-.372v-2.107h.212a.116.116,0,0,1,.083.023.141.141,0,0,1,.031.079Z" transform="translate(-252.467 -392.226)" fill="#004534"></path><path id="Path_30" data-name="Path 30" d="M266.987,389.763a.234.234,0,0,1-.022.1.294.294,0,0,1-.058.083.269.269,0,0,1-.085.057.261.261,0,0,1-.1.021.247.247,0,0,1-.1-.021.261.261,0,0,1-.082-.057.283.283,0,0,1-.056-.083.24.24,0,0,1-.021-.1.254.254,0,0,1,.021-.1.276.276,0,0,1,.056-.085.256.256,0,0,1,.082-.057.247.247,0,0,1,.1-.021.267.267,0,0,1,.188.078.286.286,0,0,1,.058.085A.248.248,0,0,1,266.987,389.763Zm-.079.662v2.107h-.37v-2.107Z" transform="translate(-256.721 -389.468)" fill="#004534"></path><path id="Path_31" data-name="Path 31" d="M270.8,393.5a1.24,1.24,0,0,1,.146-.139.941.941,0,0,1,.163-.107.826.826,0,0,1,.183-.069.864.864,0,0,1,.209-.024.765.765,0,0,1,.3.057.59.59,0,0,1,.221.162.713.713,0,0,1,.134.253,1.1,1.1,0,0,1,.046.326V395.3h-.372v-1.342a.566.566,0,0,0-.109-.371.4.4,0,0,0-.332-.132.623.623,0,0,0-.307.079,1.009,1.009,0,0,0-.263.214V395.3h-.372V393.2h.223a.091.091,0,0,1,.1.077Z" transform="translate(-259.736 -392.238)" fill="#004534"></path><path id="Path_32" data-name="Path 32" d="M280.89,393.272v.137q0,.069-.087.088l-.239.031a.655.655,0,0,1,.071.3.637.637,0,0,1-.223.5.723.723,0,0,1-.25.137,1,1,0,0,1-.316.048,1.061,1.061,0,0,1-.279-.036.386.386,0,0,0-.1.088.158.158,0,0,0-.035.095.125.125,0,0,0,.061.113.442.442,0,0,0,.161.055,1.7,1.7,0,0,0,.228.021q.128,0,.262.014a2.388,2.388,0,0,1,.262.032.789.789,0,0,1,.228.075.429.429,0,0,1,.161.144.417.417,0,0,1,.061.237.552.552,0,0,1-.068.262.71.71,0,0,1-.194.226,1,1,0,0,1-.311.158,1.352,1.352,0,0,1-.415.059,1.574,1.574,0,0,1-.4-.046.948.948,0,0,1-.287-.123.533.533,0,0,1-.172-.178.422.422,0,0,1-.057-.211.378.378,0,0,1,.1-.264.673.673,0,0,1,.268-.173.381.381,0,0,1-.149-.111.32.32,0,0,1-.038-.283.379.379,0,0,1,.051-.1.531.531,0,0,1,.084-.093.557.557,0,0,1,.116-.077.649.649,0,0,1-.243-.232.637.637,0,0,1-.087-.336.649.649,0,0,1,.059-.28.621.621,0,0,1,.165-.214.759.759,0,0,1,.253-.136,1.041,1.041,0,0,1,.322-.048,1.028,1.028,0,0,1,.256.03.812.812,0,0,1,.216.088Zm-.376,2.138a.178.178,0,0,0-.044-.124.3.3,0,0,0-.118-.075.767.767,0,0,0-.172-.038c-.065-.008-.134-.014-.207-.018l-.222-.012c-.075,0-.147-.011-.216-.021a.581.581,0,0,0-.19.136.279.279,0,0,0-.074.192.254.254,0,0,0,.037.132.3.3,0,0,0,.111.106.648.648,0,0,0,.188.071,1.367,1.367,0,0,0,.535,0,.666.666,0,0,0,.2-.077.379.379,0,0,0,.126-.119A.279.279,0,0,0,280.513,395.411Zm-.668-1.144a.571.571,0,0,0,.2-.031.4.4,0,0,0,.143-.087.356.356,0,0,0,.088-.134.484.484,0,0,0,.029-.171.411.411,0,0,0-.118-.308.566.566,0,0,0-.682,0,.41.41,0,0,0-.118.308.473.473,0,0,0,.03.171.374.374,0,0,0,.088.134.4.4,0,0,0,.144.087A.569.569,0,0,0,279.846,394.267Z" transform="translate(-266.161 -392.232)" fill="#004534"></path><path id="Path_33" data-name="Path 33" d="M292.919,393.543a.083.083,0,0,1-.077.046.143.143,0,0,1-.071-.023c-.027-.015-.059-.032-.1-.051a.956.956,0,0,0-.136-.052.654.654,0,0,0-.187-.024.556.556,0,0,0-.168.024.411.411,0,0,0-.128.066.284.284,0,0,0-.081.1.256.256,0,0,0-.028.12.2.2,0,0,0,.047.135.4.4,0,0,0,.124.093,1.04,1.04,0,0,0,.175.07l.2.064c.069.023.135.048.2.076a.727.727,0,0,1,.174.1.479.479,0,0,1,.124.153.468.468,0,0,1,.047.217.689.689,0,0,1-.052.27.592.592,0,0,1-.154.214.743.743,0,0,1-.25.142,1.028,1.028,0,0,1-.341.052,1.06,1.06,0,0,1-.4-.072,1.01,1.01,0,0,1-.3-.184l.087-.142a.132.132,0,0,1,.04-.042.108.108,0,0,1,.058-.014.141.141,0,0,1,.079.029q.041.029.1.064a.752.752,0,0,0,.145.065.669.669,0,0,0,.212.029.575.575,0,0,0,.189-.028.4.4,0,0,0,.135-.076.3.3,0,0,0,.08-.11.343.343,0,0,0,.026-.133.22.22,0,0,0-.047-.144.392.392,0,0,0-.124-.1,1.047,1.047,0,0,0-.176-.071l-.2-.063c-.069-.022-.136-.048-.2-.076a.706.706,0,0,1-.176-.107.478.478,0,0,1-.124-.159.516.516,0,0,1-.047-.23.562.562,0,0,1,.05-.232.568.568,0,0,1,.146-.2.712.712,0,0,1,.235-.134.936.936,0,0,1,.318-.05,1,1,0,0,1,.373.066.878.878,0,0,1,.286.18Z" transform="translate(-275.68 -392.238)" fill="#004534"></path><path id="Path_34" data-name="Path 34" d="M299.209,395.3V393.2h.223a.092.092,0,0,1,.1.077l.027.216a1.082,1.082,0,0,1,.262-.235.622.622,0,0,1,.337-.091.5.5,0,0,1,.344.119.669.669,0,0,1,.19.32.691.691,0,0,1,.118-.2.676.676,0,0,1,.161-.137.691.691,0,0,1,.19-.079.864.864,0,0,1,.2-.025.779.779,0,0,1,.3.053.585.585,0,0,1,.22.155.687.687,0,0,1,.138.251,1.115,1.115,0,0,1,.048.34V395.3h-.372v-1.342a.568.568,0,0,0-.108-.375.386.386,0,0,0-.312-.128.475.475,0,0,0-.174.032.42.42,0,0,0-.145.095.447.447,0,0,0-.1.157.612.612,0,0,0-.036.219V395.3h-.372v-1.342a.591.591,0,0,0-.1-.378.361.361,0,0,0-.3-.125.465.465,0,0,0-.254.074.833.833,0,0,0-.214.2v1.57Z" transform="translate(-281.479 -392.238)" fill="#004534"></path><path id="Path_35" data-name="Path 35" d="M312.347,393.48a1.211,1.211,0,0,1,.377-.252,1.162,1.162,0,0,1,.447-.083.8.8,0,0,1,.314.058.644.644,0,0,1,.231.162.685.685,0,0,1,.142.252,1.046,1.046,0,0,1,.048.325v1.348h-.164a.162.162,0,0,1-.083-.018.122.122,0,0,1-.046-.07l-.042-.2a2,2,0,0,1-.162.136.926.926,0,0,1-.166.1.915.915,0,0,1-.186.062,1.012,1.012,0,0,1-.219.022.754.754,0,0,1-.231-.034.537.537,0,0,1-.189-.1.481.481,0,0,1-.127-.174.607.607,0,0,1-.047-.249.463.463,0,0,1,.069-.24.6.6,0,0,1,.222-.2,1.458,1.458,0,0,1,.4-.147,3.07,3.07,0,0,1,.607-.065v-.164a.563.563,0,0,0-.106-.371.384.384,0,0,0-.31-.126.664.664,0,0,0-.23.034.861.861,0,0,0-.16.077c-.045.029-.084.054-.116.077a.168.168,0,0,1-.1.034.107.107,0,0,1-.065-.02.183.183,0,0,1-.046-.049Zm1.2.861a3.069,3.069,0,0,0-.436.04,1.241,1.241,0,0,0-.293.084.4.4,0,0,0-.164.122.263.263,0,0,0-.051.158.352.352,0,0,0,.027.143.264.264,0,0,0,.074.1.3.3,0,0,0,.11.056.507.507,0,0,0,.136.018.759.759,0,0,0,.179-.02.683.683,0,0,0,.153-.057.817.817,0,0,0,.137-.09,1.137,1.137,0,0,0,.128-.118Z" transform="translate(-291.333 -392.226)" fill="#004534"></path><path id="Path_36" data-name="Path 36" d="M321.443,389.377v3.064h-.37v-3.064Z" transform="translate(-298.008 -389.377)" fill="#004534"></path><path id="Path_37" data-name="Path 37" d="M325.126,389.377v3.064h-.37v-3.064Z" transform="translate(-300.793 -389.377)" fill="#004534"></path><path id="Path_38" data-name="Path 38" d="M332.763,393.51a1.1,1.1,0,0,1,.308-.264.792.792,0,0,1,.4-.1.767.767,0,0,1,.331.07.679.679,0,0,1,.252.206.985.985,0,0,1,.16.338,1.727,1.727,0,0,1,.056.464,1.449,1.449,0,0,1-.063.434,1.038,1.038,0,0,1-.18.347.833.833,0,0,1-.669.315.771.771,0,0,1-.332-.066.784.784,0,0,1-.244-.182V396h-.372v-2.82h.223a.091.091,0,0,1,.1.077Zm.019,1.273a.6.6,0,0,0,.222.193.629.629,0,0,0,.271.056.533.533,0,0,0,.453-.21.981.981,0,0,0,.158-.6,1.5,1.5,0,0,0-.036-.354.688.688,0,0,0-.105-.242.41.41,0,0,0-.168-.138.562.562,0,0,0-.227-.044.6.6,0,0,0-.317.083.912.912,0,0,0-.251.235Z" transform="translate(-306.579 -392.226)" fill="#004534"></path><path id="Path_39" data-name="Path 39" d="M341.976,393.605a.957.957,0,0,1,.245-.338.536.536,0,0,1,.356-.121.564.564,0,0,1,.128.014.345.345,0,0,1,.109.046l-.027.276a.06.06,0,0,1-.062.052.412.412,0,0,1-.085-.012.6.6,0,0,0-.127-.012.508.508,0,0,0-.178.029.422.422,0,0,0-.14.086.616.616,0,0,0-.11.142,1.178,1.178,0,0,0-.088.193v1.331h-.372v-2.107h.212a.116.116,0,0,1,.083.023.138.138,0,0,1,.031.079Z" transform="translate(-313.546 -392.226)" fill="#004534"></path><path id="Path_40" data-name="Path 40" d="M347.661,393.162a1.08,1.08,0,0,1,.416.077.9.9,0,0,1,.316.219.965.965,0,0,1,.2.342,1.482,1.482,0,0,1,0,.9.965.965,0,0,1-.2.341.886.886,0,0,1-.316.217,1.088,1.088,0,0,1-.416.076,1.1,1.1,0,0,1-.419-.076.876.876,0,0,1-.317-.217.957.957,0,0,1-.2-.341,1.482,1.482,0,0,1,0-.9.958.958,0,0,1,.2-.342.89.89,0,0,1,.317-.219A1.094,1.094,0,0,1,347.661,393.162Zm0,1.88a.541.541,0,0,0,.466-.209,1.188,1.188,0,0,0,0-1.17.54.54,0,0,0-.466-.21.657.657,0,0,0-.275.054.511.511,0,0,0-.2.156.688.688,0,0,0-.116.251,1.333,1.333,0,0,0-.039.336.962.962,0,0,0,.155.583A.548.548,0,0,0,347.661,395.042Z" transform="translate(-317.347 -392.238)" fill="#004534"></path><path id="Path_41" data-name="Path 41" d="M357.854,389.377v3.064h-.221a.094.094,0,0,1-.1-.077l-.033-.256a1.143,1.143,0,0,1-.308.262.782.782,0,0,1-.4.1.759.759,0,0,1-.329-.07.677.677,0,0,1-.252-.2.976.976,0,0,1-.16-.337,1.744,1.744,0,0,1-.056-.464,1.452,1.452,0,0,1,.062-.434,1.073,1.073,0,0,1,.179-.348.828.828,0,0,1,.286-.232.846.846,0,0,1,.382-.084.771.771,0,0,1,.332.065.808.808,0,0,1,.246.182v-1.167Zm-.37,1.458a.6.6,0,0,0-.225-.194.641.641,0,0,0-.27-.055.532.532,0,0,0-.452.21.983.983,0,0,0-.158.6,1.518,1.518,0,0,0,.035.353.673.673,0,0,0,.1.241.4.4,0,0,0,.168.138.558.558,0,0,0,.227.044.6.6,0,0,0,.319-.083.911.911,0,0,0,.251-.235Z" transform="translate(-324.41 -389.377)" fill="#004534"></path><path id="Path_42" data-name="Path 42" d="M367.339,393.3v2.107h-.22a.1.1,0,0,1-.1-.077l-.029-.227a1.164,1.164,0,0,1-.308.244.805.805,0,0,1-.391.092.765.765,0,0,1-.3-.057.6.6,0,0,1-.221-.161.678.678,0,0,1-.134-.252,1.124,1.124,0,0,1-.045-.327V393.3h.37v1.343a.564.564,0,0,0,.109.37.41.41,0,0,0,.334.131.63.63,0,0,0,.307-.078.976.976,0,0,0,.263-.215V393.3Z" transform="translate(-331.66 -392.342)" fill="#004534"></path><path id="Path_43" data-name="Path 43" d="M375.934,393.57a.164.164,0,0,1-.033.035.074.074,0,0,1-.046.012.123.123,0,0,1-.069-.026q-.037-.026-.093-.057a.74.74,0,0,0-.135-.057.732.732,0,0,0-.471.029.526.526,0,0,0-.2.159.716.716,0,0,0-.121.252,1.247,1.247,0,0,0-.041.331,1.213,1.213,0,0,0,.044.34.735.735,0,0,0,.124.25.535.535,0,0,0,.194.154.6.6,0,0,0,.255.053.649.649,0,0,0,.223-.032.657.657,0,0,0,.145-.072c.038-.027.07-.05.1-.072a.118.118,0,0,1,.076-.032.081.081,0,0,1,.07.035l.1.135a.734.734,0,0,1-.156.146.939.939,0,0,1-.188.1,1.035,1.035,0,0,1-.211.059,1.351,1.351,0,0,1-.225.019.92.92,0,0,1-.367-.073.832.832,0,0,1-.294-.211.991.991,0,0,1-.2-.34,1.507,1.507,0,0,1-.005-.895.985.985,0,0,1,.192-.344.866.866,0,0,1,.31-.226,1.039,1.039,0,0,1,.423-.081,1,1,0,0,1,.392.072.94.94,0,0,1,.3.2Z" transform="translate(-338.285 -392.238)" fill="#004534"></path><path id="Path_44" data-name="Path 44" d="M383.816,395.007a.7.7,0,0,1-.164.145,1.05,1.05,0,0,1-.2.1,1.345,1.345,0,0,1-.226.059,1.4,1.4,0,0,1-.231.02,1.07,1.07,0,0,1-.4-.074.884.884,0,0,1-.318-.216.991.991,0,0,1-.209-.353,1.437,1.437,0,0,1-.075-.482,1.233,1.233,0,0,1,.068-.412.976.976,0,0,1,.194-.332.9.9,0,0,1,.31-.22,1.018,1.018,0,0,1,.412-.08.946.946,0,0,1,.351.064.794.794,0,0,1,.279.183.848.848,0,0,1,.184.3,1.125,1.125,0,0,1,.067.4.242.242,0,0,1-.019.116.078.078,0,0,1-.071.029h-1.408a1.219,1.219,0,0,0,.055.347.7.7,0,0,0,.136.247.549.549,0,0,0,.208.148.716.716,0,0,0,.27.049.786.786,0,0,0,.24-.032,1.117,1.117,0,0,0,.173-.07,1.291,1.291,0,0,0,.122-.069.159.159,0,0,1,.084-.032.082.082,0,0,1,.071.035Zm-.3-.988a.741.741,0,0,0-.036-.236.538.538,0,0,0-.106-.185.475.475,0,0,0-.17-.121.576.576,0,0,0-.227-.043.568.568,0,0,0-.421.155.724.724,0,0,0-.193.429Z" transform="translate(-344.058 -392.238)" fill="#004534"></path><path id="Path_45" data-name="Path 45" d="M391.493,393.605a.956.956,0,0,1,.246-.338.536.536,0,0,1,.355-.121.564.564,0,0,1,.128.014.345.345,0,0,1,.109.046l-.027.276a.06.06,0,0,1-.062.052.412.412,0,0,1-.085-.012.6.6,0,0,0-.127-.012.508.508,0,0,0-.178.029.421.421,0,0,0-.14.086.616.616,0,0,0-.11.142,1.223,1.223,0,0,0-.088.193v1.331h-.372v-2.107h.212a.117.117,0,0,1,.083.023.139.139,0,0,1,.031.079Z" transform="translate(-350.98 -392.226)" fill="#004534"></path><path id="Path_46" data-name="Path 46" d="M397.706,393.543a.083.083,0,0,1-.077.046.143.143,0,0,1-.071-.023q-.04-.023-.1-.051a.945.945,0,0,0-.136-.052.654.654,0,0,0-.187-.024.555.555,0,0,0-.168.024.415.415,0,0,0-.128.066.285.285,0,0,0-.081.1.256.256,0,0,0-.028.12.2.2,0,0,0,.047.135.4.4,0,0,0,.124.093,1.038,1.038,0,0,0,.175.07l.2.064c.069.023.135.048.2.076a.734.734,0,0,1,.175.1.483.483,0,0,1,.124.153.469.469,0,0,1,.047.217.689.689,0,0,1-.052.27.592.592,0,0,1-.154.214.743.743,0,0,1-.25.142,1.027,1.027,0,0,1-.341.052,1.059,1.059,0,0,1-.4-.072,1.01,1.01,0,0,1-.3-.184l.087-.142a.127.127,0,0,1,.04-.042.108.108,0,0,1,.058-.014.141.141,0,0,1,.079.029c.028.02.061.041.1.064a.752.752,0,0,0,.145.065.671.671,0,0,0,.212.029.575.575,0,0,0,.189-.028.4.4,0,0,0,.135-.076.3.3,0,0,0,.08-.11.342.342,0,0,0,.026-.133.219.219,0,0,0-.047-.144.392.392,0,0,0-.123-.1,1.048,1.048,0,0,0-.176-.071l-.2-.063q-.1-.033-.2-.076a.707.707,0,0,1-.176-.107.481.481,0,0,1-.124-.159.515.515,0,0,1-.047-.23.563.563,0,0,1,.05-.232.57.57,0,0,1,.146-.2.712.712,0,0,1,.235-.134.936.936,0,0,1,.318-.05,1,1,0,0,1,.373.066.879.879,0,0,1,.286.18Z" transform="translate(-354.898 -392.238)" fill="#004534"></path><path id="Path_47" data-name="Path 47" d="M407.476,393.48a1.217,1.217,0,0,1,.377-.252,1.164,1.164,0,0,1,.447-.083.8.8,0,0,1,.314.058.645.645,0,0,1,.231.162.69.69,0,0,1,.141.252,1.046,1.046,0,0,1,.048.325v1.348h-.164a.162.162,0,0,1-.083-.018.12.12,0,0,1-.046-.07l-.042-.2a2.06,2.06,0,0,1-.162.136.936.936,0,0,1-.166.1.914.914,0,0,1-.186.062,1.015,1.015,0,0,1-.219.022.755.755,0,0,1-.231-.034.536.536,0,0,1-.188-.1.485.485,0,0,1-.127-.174.611.611,0,0,1-.047-.249.465.465,0,0,1,.069-.24.605.605,0,0,1,.222-.2,1.461,1.461,0,0,1,.4-.147,3.07,3.07,0,0,1,.607-.065v-.164a.564.564,0,0,0-.106-.371.384.384,0,0,0-.31-.126.663.663,0,0,0-.23.034.861.861,0,0,0-.16.077c-.045.029-.084.054-.117.077a.168.168,0,0,1-.1.034.106.106,0,0,1-.064-.02.187.187,0,0,1-.046-.049Zm1.2.861a3.068,3.068,0,0,0-.436.04,1.237,1.237,0,0,0-.293.084.4.4,0,0,0-.164.122.264.264,0,0,0-.051.158.347.347,0,0,0,.027.143.265.265,0,0,0,.074.1.3.3,0,0,0,.11.056.509.509,0,0,0,.136.018.758.758,0,0,0,.179-.02.68.68,0,0,0,.153-.057.823.823,0,0,0,.137-.09,1.143,1.143,0,0,0,.128-.118Z" transform="translate(-363.25 -392.226)" fill="#004534"></path><path id="Path_48" data-name="Path 48" d="M416.5,393.605a.956.956,0,0,1,.245-.338.537.537,0,0,1,.356-.121.565.565,0,0,1,.128.014.346.346,0,0,1,.109.046l-.027.276a.06.06,0,0,1-.062.052.412.412,0,0,1-.085-.012.6.6,0,0,0-.127-.012.508.508,0,0,0-.178.029.421.421,0,0,0-.139.086.613.613,0,0,0-.11.142,1.215,1.215,0,0,0-.088.193v1.331h-.372v-2.107h.212a.117.117,0,0,1,.083.023.139.139,0,0,1,.031.079Z" transform="translate(-369.887 -392.226)" fill="#004534"></path><path id="Path_49" data-name="Path 49" d="M423,395.007a.7.7,0,0,1-.164.145,1.05,1.05,0,0,1-.2.1,1.344,1.344,0,0,1-.226.059,1.4,1.4,0,0,1-.231.02,1.07,1.07,0,0,1-.4-.074.884.884,0,0,1-.318-.216.992.992,0,0,1-.209-.353,1.435,1.435,0,0,1-.075-.482,1.232,1.232,0,0,1,.068-.412.976.976,0,0,1,.194-.332.9.9,0,0,1,.31-.22,1.018,1.018,0,0,1,.412-.08.946.946,0,0,1,.351.064.794.794,0,0,1,.279.183.846.846,0,0,1,.184.3,1.125,1.125,0,0,1,.067.4.242.242,0,0,1-.019.116.078.078,0,0,1-.071.029h-1.408a1.218,1.218,0,0,0,.055.347.7.7,0,0,0,.136.247.55.55,0,0,0,.208.148.716.716,0,0,0,.27.049.786.786,0,0,0,.24-.032,1.115,1.115,0,0,0,.174-.07,1.291,1.291,0,0,0,.122-.069.159.159,0,0,1,.084-.032.082.082,0,0,1,.071.035Zm-.3-.988a.739.739,0,0,0-.036-.236.537.537,0,0,0-.106-.185.475.475,0,0,0-.17-.121.576.576,0,0,0-.227-.043.568.568,0,0,0-.421.155.724.724,0,0,0-.193.429Z" transform="translate(-373.682 -392.238)" fill="#004534"></path></g><g id="Group_3" data-name="Group 3" transform="translate(58.727 10.089)"><path id="Path_50" data-name="Path 50" d="M453.5,392.486h-.37v-1.8h-1.086v1.265a.268.268,0,0,0,.065.2.227.227,0,0,0,.166.064.3.3,0,0,0,.1-.016.418.418,0,0,0,.074-.034l.053-.034a.068.068,0,0,1,.038-.016.064.064,0,0,1,.052.035l.108.177a.691.691,0,0,1-.231.141.782.782,0,0,1-.279.051.509.509,0,0,1-.384-.139.557.557,0,0,1-.134-.4v-1.29h-.254a.083.083,0,0,1-.056-.019.077.077,0,0,1-.023-.061v-.148l.345-.046.085-.649a.089.089,0,0,1,.028-.051.083.083,0,0,1,.057-.02h.187v.726H453.5Zm.092-2.783a.239.239,0,0,1-.022.1.272.272,0,0,1-.058.082.275.275,0,0,1-.084.056.249.249,0,0,1-.1.021.243.243,0,0,1-.1-.021.267.267,0,0,1-.138-.138.249.249,0,0,1-.021-.1.262.262,0,0,1,.021-.1.28.28,0,0,1,.056-.085.263.263,0,0,1,.082-.057.247.247,0,0,1,.1-.021.252.252,0,0,1,.1.021.266.266,0,0,1,.084.057.277.277,0,0,1,.058.085A.252.252,0,0,1,453.591,389.7Z" transform="translate(-451.341 -389.422)" fill="#004534"></path><path id="Path_51" data-name="Path 51" d="M462.337,395.3V393.2h.223a.091.091,0,0,1,.1.077l.027.216a1.081,1.081,0,0,1,.262-.235.622.622,0,0,1,.337-.091.5.5,0,0,1,.344.119.667.667,0,0,1,.19.32.7.7,0,0,1,.118-.2.677.677,0,0,1,.161-.137.692.692,0,0,1,.19-.079.866.866,0,0,1,.2-.025.778.778,0,0,1,.3.053.586.586,0,0,1,.22.155.689.689,0,0,1,.139.251,1.123,1.123,0,0,1,.048.34V395.3h-.372v-1.342a.568.568,0,0,0-.108-.375.385.385,0,0,0-.312-.128.475.475,0,0,0-.174.032.422.422,0,0,0-.145.095.443.443,0,0,0-.1.157.612.612,0,0,0-.036.219V395.3h-.372v-1.342a.591.591,0,0,0-.1-.378.361.361,0,0,0-.3-.125.466.466,0,0,0-.254.074.839.839,0,0,0-.214.2v1.57Z" transform="translate(-459.654 -392.238)" fill="#004534"></path><path id="Path_52" data-name="Path 52" d="M477.354,395.007a.7.7,0,0,1-.164.145,1.049,1.049,0,0,1-.2.1,1.347,1.347,0,0,1-.226.059,1.4,1.4,0,0,1-.231.02,1.068,1.068,0,0,1-.4-.074.882.882,0,0,1-.318-.216.988.988,0,0,1-.209-.353,1.431,1.431,0,0,1-.075-.482,1.226,1.226,0,0,1,.068-.412.971.971,0,0,1,.194-.332.9.9,0,0,1,.31-.22,1.019,1.019,0,0,1,.412-.08.945.945,0,0,1,.351.064.794.794,0,0,1,.279.183.847.847,0,0,1,.184.3,1.125,1.125,0,0,1,.067.4.241.241,0,0,1-.019.116.078.078,0,0,1-.071.029H475.89a1.216,1.216,0,0,0,.055.347.7.7,0,0,0,.136.247.55.55,0,0,0,.208.148.716.716,0,0,0,.27.049.786.786,0,0,0,.24-.032,1.114,1.114,0,0,0,.173-.07,1.286,1.286,0,0,0,.122-.069.16.16,0,0,1,.084-.032.082.082,0,0,1,.071.035Zm-.3-.988a.734.734,0,0,0-.036-.236.538.538,0,0,0-.106-.185.476.476,0,0,0-.17-.121.576.576,0,0,0-.227-.043.568.568,0,0,0-.421.155.725.725,0,0,0-.193.429Z" transform="translate(-469.623 -392.238)" fill="#004534"></path><path id="Path_53" data-name="Path 53" d="M485.429,393.543a.082.082,0,0,1-.077.046.144.144,0,0,1-.071-.023q-.04-.023-.1-.051a.959.959,0,0,0-.136-.052.653.653,0,0,0-.187-.024.556.556,0,0,0-.168.024.415.415,0,0,0-.128.066.288.288,0,0,0-.081.1.257.257,0,0,0-.028.12.2.2,0,0,0,.047.135.4.4,0,0,0,.124.093,1.042,1.042,0,0,0,.175.07l.2.064c.069.023.135.048.2.076a.733.733,0,0,1,.175.1.482.482,0,0,1,.124.153.466.466,0,0,1,.047.217.69.69,0,0,1-.052.27.593.593,0,0,1-.154.214.743.743,0,0,1-.25.142,1.027,1.027,0,0,1-.341.052,1.058,1.058,0,0,1-.4-.072,1.008,1.008,0,0,1-.3-.184l.087-.142a.131.131,0,0,1,.04-.042.108.108,0,0,1,.058-.014.141.141,0,0,1,.079.029c.028.02.061.041.1.064a.749.749,0,0,0,.145.065.67.67,0,0,0,.212.029.575.575,0,0,0,.189-.028.4.4,0,0,0,.135-.076.3.3,0,0,0,.08-.11.342.342,0,0,0,.026-.133.218.218,0,0,0-.047-.144.389.389,0,0,0-.123-.1,1.048,1.048,0,0,0-.176-.071l-.2-.063q-.1-.033-.2-.076a.7.7,0,0,1-.176-.107.481.481,0,0,1-.124-.159.515.515,0,0,1-.047-.23.562.562,0,0,1,.05-.232.568.568,0,0,1,.146-.2.712.712,0,0,1,.235-.134.938.938,0,0,1,.318-.05,1,1,0,0,1,.373.066.881.881,0,0,1,.286.18Z" transform="translate(-476.067 -392.238)" fill="#004534"></path><path id="Path_54" data-name="Path 54" d="M495.744,395.3V393.2h.223a.092.092,0,0,1,.1.077l.027.216a1.081,1.081,0,0,1,.262-.235.621.621,0,0,1,.337-.091.5.5,0,0,1,.344.119.668.668,0,0,1,.191.32.7.7,0,0,1,.117-.2.681.681,0,0,1,.161-.137.693.693,0,0,1,.19-.079.864.864,0,0,1,.2-.025.781.781,0,0,1,.3.053.587.587,0,0,1,.22.155.687.687,0,0,1,.138.251,1.115,1.115,0,0,1,.048.34V395.3h-.373v-1.342a.568.568,0,0,0-.108-.375.385.385,0,0,0-.312-.128.477.477,0,0,0-.174.032.42.42,0,0,0-.144.095.442.442,0,0,0-.1.157.612.612,0,0,0-.036.219V395.3h-.372v-1.342a.589.589,0,0,0-.1-.378.361.361,0,0,0-.3-.125.466.466,0,0,0-.254.074.831.831,0,0,0-.214.2v1.57Z" transform="translate(-484.909 -392.238)" fill="#004534"></path><path id="Path_55" data-name="Path 55" d="M509.945,393.162a1.079,1.079,0,0,1,.416.077.9.9,0,0,1,.316.219.962.962,0,0,1,.2.342,1.482,1.482,0,0,1,0,.9.962.962,0,0,1-.2.341.883.883,0,0,1-.316.217,1.088,1.088,0,0,1-.416.076,1.1,1.1,0,0,1-.419-.076.877.877,0,0,1-.317-.217.962.962,0,0,1-.2-.341,1.478,1.478,0,0,1,0-.9.962.962,0,0,1,.2-.342.891.891,0,0,1,.317-.219A1.093,1.093,0,0,1,509.945,393.162Zm0,1.88a.541.541,0,0,0,.466-.209,1.188,1.188,0,0,0,0-1.17.54.54,0,0,0-.466-.21.656.656,0,0,0-.276.054.51.51,0,0,0-.2.156.689.689,0,0,0-.116.251,1.333,1.333,0,0,0-.039.336.962.962,0,0,0,.155.583A.548.548,0,0,0,509.945,395.042Z" transform="translate(-494.884 -392.238)" fill="#004534"></path><path id="Path_56" data-name="Path 56" d="M519.1,393.605a.956.956,0,0,1,.245-.338.537.537,0,0,1,.356-.121.566.566,0,0,1,.128.014.347.347,0,0,1,.109.046l-.027.276a.06.06,0,0,1-.062.052.416.416,0,0,1-.085-.012.591.591,0,0,0-.127-.012.51.51,0,0,0-.178.029.418.418,0,0,0-.139.086.607.607,0,0,0-.11.142,1.221,1.221,0,0,0-.088.193v1.331h-.372v-2.107h.212a.116.116,0,0,1,.083.023.141.141,0,0,1,.031.079Z" transform="translate(-502.302 -392.226)" fill="#004534"></path><path id="Path_57" data-name="Path 57" d="M525.6,395.007a.7.7,0,0,1-.164.145,1.057,1.057,0,0,1-.2.1,1.36,1.36,0,0,1-.226.059,1.405,1.405,0,0,1-.231.02,1.068,1.068,0,0,1-.4-.074.879.879,0,0,1-.318-.216.984.984,0,0,1-.209-.353,1.438,1.438,0,0,1-.075-.482,1.231,1.231,0,0,1,.068-.412.966.966,0,0,1,.194-.332.89.89,0,0,1,.31-.22,1.017,1.017,0,0,1,.412-.08.946.946,0,0,1,.35.064.792.792,0,0,1,.279.183.843.843,0,0,1,.184.3,1.125,1.125,0,0,1,.067.4.241.241,0,0,1-.019.116.078.078,0,0,1-.071.029h-1.408a1.226,1.226,0,0,0,.055.347.7.7,0,0,0,.136.247.546.546,0,0,0,.208.148.717.717,0,0,0,.27.049.784.784,0,0,0,.24-.032,1.122,1.122,0,0,0,.174-.07,1.29,1.29,0,0,0,.122-.069.16.16,0,0,1,.084-.032.082.082,0,0,1,.071.035Zm-.3-.988a.732.732,0,0,0-.036-.236.533.533,0,0,0-.106-.185.476.476,0,0,0-.17-.121.576.576,0,0,0-.227-.043.568.568,0,0,0-.421.155.724.724,0,0,0-.193.429Z" transform="translate(-506.097 -392.238)" fill="#004534"></path><path id="Path_58" data-name="Path 58" d="M537.3,393.51a1.1,1.1,0,0,1,.308-.264.79.79,0,0,1,.4-.1.766.766,0,0,1,.331.07.682.682,0,0,1,.252.206.987.987,0,0,1,.16.338,1.72,1.72,0,0,1,.056.464,1.443,1.443,0,0,1-.063.434,1.042,1.042,0,0,1-.18.347.834.834,0,0,1-.669.315.769.769,0,0,1-.332-.066.779.779,0,0,1-.244-.182V396h-.372v-2.82h.223a.092.092,0,0,1,.1.077Zm.019,1.273a.593.593,0,0,0,.222.193.628.628,0,0,0,.271.056.533.533,0,0,0,.453-.21.981.981,0,0,0,.158-.6,1.488,1.488,0,0,0-.037-.354.694.694,0,0,0-.1-.242.412.412,0,0,0-.169-.138.562.562,0,0,0-.227-.044.6.6,0,0,0-.317.083.915.915,0,0,0-.25.235Z" transform="translate(-516.061 -392.226)" fill="#004534"></path><path id="Path_59" data-name="Path 59" d="M546.516,393.605a.956.956,0,0,1,.245-.338.537.537,0,0,1,.356-.121.566.566,0,0,1,.128.014.346.346,0,0,1,.109.046l-.027.276a.06.06,0,0,1-.062.052.415.415,0,0,1-.085-.012.59.59,0,0,0-.127-.012.508.508,0,0,0-.178.029.419.419,0,0,0-.14.086.607.607,0,0,0-.11.142,1.226,1.226,0,0,0-.088.193v1.331h-.372v-2.107h.212a.116.116,0,0,1,.083.023.14.14,0,0,1,.031.079Z" transform="translate(-523.026 -392.226)" fill="#004534"></path><path id="Path_60" data-name="Path 60" d="M552.2,393.162a1.08,1.08,0,0,1,.416.077.9.9,0,0,1,.316.219.961.961,0,0,1,.2.342,1.481,1.481,0,0,1,0,.9.96.96,0,0,1-.2.341.882.882,0,0,1-.316.217,1.089,1.089,0,0,1-.416.076,1.1,1.1,0,0,1-.419-.076.877.877,0,0,1-.317-.217.956.956,0,0,1-.2-.341,1.477,1.477,0,0,1,0-.9.956.956,0,0,1,.2-.342.891.891,0,0,1,.317-.219A1.093,1.093,0,0,1,552.2,393.162Zm0,1.88a.541.541,0,0,0,.466-.209,1.189,1.189,0,0,0,0-1.17.54.54,0,0,0-.466-.21.656.656,0,0,0-.275.054.51.51,0,0,0-.2.156.693.693,0,0,0-.117.251,1.348,1.348,0,0,0-.038.336.962.962,0,0,0,.155.583A.548.548,0,0,0,552.2,395.042Z" transform="translate(-526.828 -392.238)" fill="#004534"></path><path id="Path_61" data-name="Path 61" d="M560.366,392.455v-1.791l-.233-.027a.181.181,0,0,1-.073-.032.077.077,0,0,1-.027-.064v-.151h.333v-.117a1,1,0,0,1,.06-.355.742.742,0,0,1,.181-.277.825.825,0,0,1,.3-.181,1.235,1.235,0,0,1,.417-.064,1.384,1.384,0,0,1,.162.01.728.728,0,0,1,.143.031l-.015.194a.035.035,0,0,1-.016.029.079.079,0,0,1-.036.01.415.415,0,0,1-.057,0h-.078a.779.779,0,0,0-.537.153.594.594,0,0,0-.166.461v.106H562v2.065h-.373v-1.8h-.89v1.8Z" transform="translate(-533.511 -389.391)" fill="#004534"></path><path id="Path_62" data-name="Path 62" d="M570.252,393.319a.508.508,0,0,1-.384-.139.557.557,0,0,1-.134-.4v-1.29h-.254a.083.083,0,0,1-.056-.019.077.077,0,0,1-.023-.061v-.148l.345-.044.085-.651a.091.091,0,0,1,.028-.051.083.083,0,0,1,.057-.02h.187v.726h.609v.268H570.1v1.265a.269.269,0,0,0,.064.2.227.227,0,0,0,.167.064.3.3,0,0,0,.1-.016.432.432,0,0,0,.074-.034l.053-.034a.069.069,0,0,1,.039-.016.064.064,0,0,1,.052.035l.108.177a.692.692,0,0,1-.231.14A.783.783,0,0,1,570.252,393.319Z" transform="translate(-540.593 -390.221)" fill="#004534"></path><path id="Path_63" data-name="Path 63" d="M575.463,393.48a1.212,1.212,0,0,1,.376-.252,1.163,1.163,0,0,1,.447-.083.8.8,0,0,1,.314.058.645.645,0,0,1,.231.162.686.686,0,0,1,.141.252,1.047,1.047,0,0,1,.048.325v1.348h-.164a.163.163,0,0,1-.083-.018.122.122,0,0,1-.046-.07l-.042-.2a1.986,1.986,0,0,1-.162.136.9.9,0,0,1-.353.162,1.013,1.013,0,0,1-.219.022.754.754,0,0,1-.231-.034.538.538,0,0,1-.189-.1.483.483,0,0,1-.127-.174.607.607,0,0,1-.047-.249.463.463,0,0,1,.069-.24.6.6,0,0,1,.222-.2,1.458,1.458,0,0,1,.4-.147,3.07,3.07,0,0,1,.607-.065v-.164a.563.563,0,0,0-.106-.371.383.383,0,0,0-.31-.126.663.663,0,0,0-.23.034.862.862,0,0,0-.16.077c-.045.029-.084.054-.116.077a.168.168,0,0,1-.1.034.107.107,0,0,1-.065-.02.183.183,0,0,1-.046-.049Zm1.2.861a3.069,3.069,0,0,0-.436.04,1.241,1.241,0,0,0-.293.084.4.4,0,0,0-.164.122.263.263,0,0,0-.051.158.35.35,0,0,0,.027.143.264.264,0,0,0,.074.1.3.3,0,0,0,.11.056.507.507,0,0,0,.136.018.758.758,0,0,0,.179-.02.681.681,0,0,0,.153-.057.817.817,0,0,0,.137-.09,1.143,1.143,0,0,0,.128-.118Z" transform="translate(-545.097 -392.226)" fill="#004534"></path><path id="Path_64" data-name="Path 64" d="M584.511,390.638a1.088,1.088,0,0,1,.3-.245.8.8,0,0,1,.386-.092.768.768,0,0,1,.334.071.7.7,0,0,1,.253.2.955.955,0,0,1,.159.326,1.554,1.554,0,0,1,.055.431,1.632,1.632,0,0,1-.062.466,1.06,1.06,0,0,1-.18.359.816.816,0,0,1-.286.231.852.852,0,0,1-.379.082.722.722,0,0,1-.35-.078.767.767,0,0,1-.249-.222l-.019.191a.089.089,0,0,1-.1.079h-.239v-3.064h.372Zm0,1.3a.6.6,0,0,0,.224.193.626.626,0,0,0,.267.056.535.535,0,0,0,.455-.21,1.034,1.034,0,0,0,.158-.626.931.931,0,0,0-.141-.569.476.476,0,0,0-.4-.182.585.585,0,0,0-.315.083.926.926,0,0,0-.249.235Z" transform="translate(-551.735 -389.377)" fill="#004534"></path><path id="Path_65" data-name="Path 65" d="M593.766,389.377v3.064h-.37v-3.064Z" transform="translate(-558.733 -389.377)" fill="#004534"></path><path id="Path_66" data-name="Path 66" d="M598.364,395.007a.7.7,0,0,1-.164.145,1.056,1.056,0,0,1-.2.1,1.348,1.348,0,0,1-.226.059,1.4,1.4,0,0,1-.231.02,1.07,1.07,0,0,1-.4-.074.88.88,0,0,1-.318-.216.987.987,0,0,1-.209-.353,1.436,1.436,0,0,1-.075-.482,1.231,1.231,0,0,1,.068-.412.971.971,0,0,1,.194-.332.891.891,0,0,1,.31-.22,1.017,1.017,0,0,1,.412-.08.945.945,0,0,1,.35.064.79.79,0,0,1,.279.183.843.843,0,0,1,.184.3,1.124,1.124,0,0,1,.067.4.242.242,0,0,1-.018.116.078.078,0,0,1-.071.029H596.9a1.221,1.221,0,0,0,.055.347.7.7,0,0,0,.136.247.55.55,0,0,0,.208.148.718.718,0,0,0,.27.049.787.787,0,0,0,.24-.032,1.121,1.121,0,0,0,.173-.07,1.325,1.325,0,0,0,.122-.069.159.159,0,0,1,.084-.032.081.081,0,0,1,.07.035Zm-.3-.988a.731.731,0,0,0-.036-.236.532.532,0,0,0-.106-.185.473.473,0,0,0-.17-.121.575.575,0,0,0-.227-.043.567.567,0,0,0-.421.155.724.724,0,0,0-.193.429Z" transform="translate(-561.105 -392.238)" fill="#004534"></path><path id="Path_67" data-name="Path 67" d="M605.432,400.185a.268.268,0,0,1,.02-.1.256.256,0,0,1,.136-.14.264.264,0,0,1,.2,0,.27.27,0,0,1,.083.056.274.274,0,0,1,.056.083.266.266,0,0,1,0,.2.273.273,0,0,1-.056.082.25.25,0,0,1-.083.055.273.273,0,0,1-.2,0,.243.243,0,0,1-.082-.055.263.263,0,0,1-.054-.082A.267.267,0,0,1,605.432,400.185Z" transform="translate(-567.832 -397.35)" fill="#004534"></path></g><g id="Group_4" data-name="Group 4" transform="translate(54.571 10.088)"><path id="Path_68" data-name="Path 68" d="M434.411,390.436a1.344,1.344,0,0,1,.151-.468,1.1,1.1,0,0,1,.659-.531,1.565,1.565,0,0,1,.461-.065,1.378,1.378,0,0,1,.473.075,1.06,1.06,0,0,1,.35.2.859.859,0,0,1,.217.3.878.878,0,0,1,.074.356,1.169,1.169,0,0,1-.034.3.687.687,0,0,1-.1.224.617.617,0,0,1-.167.16,1.041,1.041,0,0,1-.228.11.8.8,0,0,1,.6.813,1.119,1.119,0,0,1-.1.5,1.015,1.015,0,0,1-.277.352,1.185,1.185,0,0,1-.4.211,1.633,1.633,0,0,1-.478.07,1.713,1.713,0,0,1-.456-.055,1.038,1.038,0,0,1-.355-.172,1.132,1.132,0,0,1-.272-.3,2.006,2.006,0,0,1-.2-.433l.34-.138a.424.424,0,0,1,.246-.027.23.23,0,0,1,.162.113.9.9,0,0,0,.236.3.475.475,0,0,0,.292.092.534.534,0,0,0,.223-.043.479.479,0,0,0,.157-.111.448.448,0,0,0,.095-.154.5.5,0,0,0,.032-.175,1.241,1.241,0,0,0-.016-.208.273.273,0,0,0-.09-.159.51.51,0,0,0-.223-.1,1.849,1.849,0,0,0-.415-.036V390.9a1.532,1.532,0,0,0,.362-.035.549.549,0,0,0,.213-.095.284.284,0,0,0,.1-.146.69.69,0,0,0,.025-.19.473.473,0,0,0-.1-.326.4.4,0,0,0-.312-.115.457.457,0,0,0-.448.313.322.322,0,0,1-.136.18.386.386,0,0,1-.239.02Z" transform="translate(-434.312 -389.372)" fill="#ec4115"></path></g></g><g id="Group_11" data-name="Group 11" transform="translate(210.666 177.809)"><g id="Group_8" data-name="Group 8" transform="translate(0 9.034)"><ellipse id="Ellipse_1" data-name="Ellipse 1" cx="5.882" cy="12.484" rx="5.882" ry="12.484" transform="translate(46.997)" fill="#ec4115"></ellipse><path id="Path_69" data-name="Path 69" d="M323.736,224.868a10.749,10.749,0,0,1,2.77-3.511,5.9,5.9,0,0,1,3.791-1.276,4.639,4.639,0,0,1,2.77.754l0,4.612a1.165,1.165,0,0,1-.352.62.975.975,0,0,1-.62.182c-.243,0-.99-.157-1.467-.239a8.381,8.381,0,0,0-1.4-.122,5.025,5.025,0,0,0-1.774.292,4.456,4.456,0,0,0-1.4.838,5.712,5.712,0,0,0-1.093,1.324,12.942,12.942,0,0,0-.887,1.774v15.357h-6V220.543H321.6a1.451,1.451,0,0,1,1.774,1.507Z" transform="translate(-291.866 -218.867)" fill="#004534"></path><g id="Group_6" data-name="Group 6" transform="translate(37.133 1.907)"><ellipse id="Ellipse_2" data-name="Ellipse 2" cx="12.484" cy="6.757" rx="12.484" ry="6.757" transform="matrix(0.384, -0.923, 0.923, 0.384, 9.429, 23.055)" fill="#e8aa32"></ellipse><ellipse id="Ellipse_3" data-name="Ellipse 3" cx="6.757" cy="12.484" rx="6.757" ry="12.484" transform="matrix(0.923, -0.384, 0.384, 0.923, 0, 5.188)" fill="#004534"></ellipse></g><g id="Group_7" data-name="Group 7" transform="translate(0 1.709)"><path id="Path_70" data-name="Path 70" d="M235.712,222.113l-9.821,24.756h-5.4l-9.821-24.756h4.922a1.905,1.905,0,0,1,1.122.314,1.476,1.476,0,0,1,.591.8l4.778,13.223q.385,1.158.675,2.268t.507,2.219q.241-1.109.531-2.219t.7-2.268l4.874-13.223a1.63,1.63,0,0,1,.6-.8,1.724,1.724,0,0,1,1.038-.314Z" transform="translate(-210.666 -222.113)" fill="#004534"></path></g></g><g id="Group_9" data-name="Group 9" transform="translate(63.931 3.266)"><path id="Path_71" data-name="Path 71" d="M483.025,224.124a6.5,6.5,0,0,1-4.95-1.819,7.008,7.008,0,0,1-1.72-5.021v-13.8h-2.528a1.155,1.155,0,0,1-.819-.314,1.224,1.224,0,0,1-.337-.939v-2.36l3.974-.651,1.25-6.743a1.317,1.317,0,0,1,.459-.747,1.359,1.359,0,0,1,.866-.265H482.3v7.778h9.593l1.278-6.767a1.339,1.339,0,0,1,.443-.747,1.359,1.359,0,0,1,.882-.265h3.057v7.778h5.766v4.239h-5.766v13.388a2.636,2.636,0,0,0,.576,1.807,2,2,0,0,0,1.568.649,2.812,2.812,0,0,0,.913-.131,4.519,4.519,0,0,0,.662-.278q.276-.144.494-.276a.832.832,0,0,1,.435-.131.671.671,0,0,1,.431.131,1.887,1.887,0,0,1,.361.4l1.783,2.889a8.961,8.961,0,0,1-2.986,1.638,11.149,11.149,0,0,1-3.492.555,6.529,6.529,0,0,1-4.958-1.819,6.981,6.981,0,0,1-1.736-5.021v-13.8h-9.3v13.388a2.673,2.673,0,0,0,.568,1.807,1.948,1.948,0,0,0,1.552.649,2.83,2.83,0,0,0,.929-.131,5.186,5.186,0,0,0,.651-.278q.276-.144.494-.276a.807.807,0,0,1,.431-.131.689.689,0,0,1,.435.131,2.13,2.13,0,0,1,.36.4l1.783,2.889a9.04,9.04,0,0,1-2.987,1.638A11.148,11.148,0,0,1,483.025,224.124Z" transform="translate(-472.67 -191.47)" fill="#004534"></path></g><g id="Group_10" data-name="Group 10" transform="translate(96.977 0)"><path id="Path_72" data-name="Path 72" d="M615.669,181.869a3.335,3.335,0,0,1-.312,1.439,3.876,3.876,0,0,1-.827,1.174,3.919,3.919,0,0,1-1.209.8,3.7,3.7,0,0,1-1.486.3,3.529,3.529,0,0,1-1.447-.3,3.831,3.831,0,0,1-1.19-.8,3.87,3.87,0,0,1-.8-1.174,3.443,3.443,0,0,1-.3-1.439,3.652,3.652,0,0,1,.3-1.484,3.776,3.776,0,0,1,.8-1.2,3.867,3.867,0,0,1,1.19-.8,3.559,3.559,0,0,1,1.447-.3,3.731,3.731,0,0,1,1.486.3,3.956,3.956,0,0,1,1.209.8,3.779,3.779,0,0,1,.827,1.2A3.536,3.536,0,0,1,615.669,181.869Zm-.815,7.166v24.583h-5.939V189.035Z" transform="translate(-608.099 -178.084)" fill="#004534"></path></g></g><g id="Group_12" data-name="Group 12" transform="translate(317.609 177.72)"><path id="Path_73" data-name="Path 73" d="M649.925,180.961V178.4h-.983v-.68H651.7v.68h-.984v2.561Z" transform="translate(-648.942 -177.72)" fill="#004534"></path><path id="Path_74" data-name="Path 74" d="M661.482,180.961l.268-3.241h.861l.471,1.369.163.535h.009q.091-.326.163-.535l.471-1.369h.861l.263,3.241h-.793l-.1-1.459c-.006-.073-.009-.154-.009-.245s0-.163,0-.217l0-.082h-.009q-.109.34-.181.544l-.34.938h-.68l-.34-.938-.182-.544h-.009a4.017,4.017,0,0,1,0,.544l-.1,1.459Z" transform="translate(-658.422 -177.72)" fill="#004534"></path></g></g></svg>