<svg xmlns="http://www.w3.org/2000/svg" width="29.284" height="29.534" viewBox="0 0 29.284 29.534">
<g id="Group_27671" data-name="Group 27671" transform="translate(-63 -185.5)">
<g id="noun-arrow-1097959" transform="translate(63 185.5)">
<path id="Path_51303" data-name="Path 51303" d="M211.9,123.375a1.233,1.233,0,0,0,1.262-1.461s.1.471,0-.011a14.766,14.766,0,1,0,0,5.912l.007-.035a1.235,1.235,0,0,0-1.262-1.459H197.945c-.544,0-.671.312-.284.7l2.685,2.674a1.475,1.475,0,0,1-2.089,2.082l-6.023-5.92a1.431,1.431,0,0,1,.007-2.063l6.016-5.869A1.475,1.475,0,0,1,200.346,120l-2.685,2.674c-.387.385-.258.7.284.7Z" transform="translate(-183.924 -110.08)" fill="#fff" fill-rule="evenodd"></path>
</g>
</g>
</svg>