<svg xmlns="http://www.w3.org/2000/svg" width="170.515" height="93.738" viewBox="0 0 170.515 93.738"><g id="Group_25821" data-name="Group 25821" transform="translate(-981.153 -322.5)"><circle id="Ellipse_948" data-name="Ellipse 948" cx="46.619" cy="46.619" r="46.619" transform="translate(1014.846 323)" fill="rgba(248,215,144,0.77)"></circle><g id="noun-vidhana-soudha-2165510_1_" data-name="noun-vidhana-soudha-2165510 (1)" transform="translate(845.504 152.486)"><path id="Path_51594" data-name="Path 51594" d="M304.655,261.091h-8.174V220.04h.312a1.336,1.336,0,0,0,1.336-1.336,1.313,1.313,0,0,0-1.269-1.314,6.7,6.7,0,0,0,0-2.228,5.6,5.6,0,0,0-2.228-3.7l-4.543-3.5v-1.715a1.337,1.337,0,0,0-2.674,0v1.737l-4.321,3.407a5.481,5.481,0,0,0-2.226,3.7,5.968,5.968,0,0,0,0,2.228h-.312a1.336,1.336,0,1,0,0,2.672h.713v6.9H262.135V220h.334a1.326,1.326,0,0,0,.045-2.651,6.7,6.7,0,0,0,0-2.228,5.656,5.656,0,0,0-2.228-3.7l-4.543-3.452v-1.715a1.337,1.337,0,0,0-2.674,0v1.737l-4.321,3.407a5.489,5.489,0,0,0-2.228,3.7,6.034,6.034,0,0,0,0,2.228h-.334a1.336,1.336,0,1,0,0,2.672h.713v2.071h-.468l-5.836-4.053v-3.431a4.455,4.455,0,0,0-3.741-4.454,1.021,1.021,0,0,0,0-.444V203.2a1.3,1.3,0,0,0,.89-.424,10.959,10.959,0,0,0,2.629-8.909,11.145,11.145,0,0,0-1.426-3.987v-4.655a1.314,1.314,0,0,0-1.336-1.338,1.337,1.337,0,0,0-1.336,1.338v1.714a12.218,12.218,0,0,0-1.025-.735l-9.889-6.437V174.2a4.208,4.208,0,0,0-4.209-4.187h-.446a4.209,4.209,0,0,0-4.254,4.187v5.568l-10.247,6.325c-.356.245-.713.489-1.047.757v-1.735a1.336,1.336,0,1,0-2.672,0v4.454a.619.619,0,0,0,0,.2,10.826,10.826,0,0,0-1.425,3.987,10.956,10.956,0,0,0,2.627,8.91,1.291,1.291,0,0,0,.892.423v6.527a.977.977,0,0,0,0,.444,4.454,4.454,0,0,0-3.72,4.454v3.474l-5.836,4.053h-.468v-2.071h.334v0a1.326,1.326,0,0,0,.044-2.651,6.1,6.1,0,0,0,0-2.228,5.66,5.66,0,0,0-2.226-3.7l-4.366-3.429v-1.715a1.337,1.337,0,0,0-2.674,0v1.737l-4.321,3.407a5.569,5.569,0,0,0-2.226,3.7,5.969,5.969,0,0,0,0,2.228h-.334a1.336,1.336,0,1,0,0,2.672h.713v6.9H160.389V220h.513a1.336,1.336,0,1,0,0-2.672h-.134a6.034,6.034,0,0,0,0-2.228,5.571,5.571,0,0,0-2.228-3.7l-4.454-3.429v-1.715a1.336,1.336,0,0,0-2.672,0v1.737l-4.344,3.407a5.66,5.66,0,0,0-2.226,3.7,6.463,6.463,0,0,0,0,2.228h-.134a1.336,1.336,0,1,0,0,2.672h.513l0,41.095h-8.062a1.336,1.336,0,1,0,0,2.651h167.5a1.336,1.336,0,1,0,0-2.651Zm-133.328-5.012v-3.34a1.336,1.336,0,1,0-2.672,0v3.34h-8.264V247.17H179.68v8.909Zm-17.128,0v-3.34a1.337,1.337,0,0,0-2.674,0v3.34h-3.519V247.17h9.711v8.909ZM195.628,224.9h21.138a4.083,4.083,0,0,0,0,.914v1.248H192.733V224.9Zm53.457,0v2.228h-23.9v-1.248a4.123,4.123,0,0,0-.135-.914h24.056Zm39.846,26.728a1.336,1.336,0,0,0-1.336,1.336v3.118h-3.5V247.17h9.71v8.909h-3.518v-3.34a1.337,1.337,0,0,0-1.338-1.336Zm-15.77,4.454v-3.34a1.336,1.336,0,0,0-2.672,0v3.34h-8.353V247.17h19.289v8.909Zm-18.843,0h-4.454V247.17h9.711v8.909Zm-45.55-26.461v3.765h-9.111v-3.765Zm4.922,0v21.56h-2.228l0-21.56Zm4.3,0h7.484v3.765h-9.021v-3.765Zm12.406,0v21.56h-2.228l0-21.56Zm11.783,0v3.765h-9.111v-3.765Zm4.9,0v21.56h-2.228v-21.56Zm-52.343,24.235h52.343v2.228l-52.343,0Zm14.033-13.787h-9.111v-4.032h9.109Zm-9.111,2.651h9.109l0,8.463h-9.111Zm25.814-2.672-9.019,0v-4.008h9.109Zm-9.019,2.672h9.109v8.463h-9.109Zm25.814-2.672-9.2,0v-4.008h9.109Zm-9.2,2.672h9.109l0,8.463h-9.111Zm-36.083,8.463h-2.228l0-21.56h2.228ZM284.1,220.108h9.711v13.365l-9.711,0Zm9.712,15.925v8.62H284.1v-8.62Zm-12.385,8.62H262.138v-8.62h19.289Zm-21.961,0h-9.6v-8.62h9.711ZM222.513,225.7v1.248h-3.185V225.7a5.069,5.069,0,0,1,1.56-2.784A5.155,5.155,0,0,1,222.513,225.7Zm-30.448,18.977h-9.712v-8.642h9.711Zm-12.385,0H160.392v-8.642h19.289Zm-31.674-8.642h9.711v8.62h-9.711Zm0-15.949h9.711V233.45h-9.711Zm34.346,27.264h9.711v8.909h-9.711Zm73.5,11.449h37.865v2.228H255.856Zm27.732-43.3a2.956,2.956,0,0,1,1.112-1.959l4.1-3.207,4.454,3.23v0a2.922,2.922,0,0,1,1.092,1.937,3.521,3.521,0,0,1-.245,1.871H283.832a3.506,3.506,0,0,1-.244-1.871Zm-2.228,14.121v3.765H262.138v-3.765ZM249.241,215.5a2.983,2.983,0,0,1,1.137-1.959l4.075-3.207,4.454,3.23v0a2.891,2.891,0,0,1,1.069,1.937,3.515,3.515,0,0,1-.222,1.871H249.508a3.526,3.526,0,0,1-.267-1.871Zm.625,4.611h9.711v13.365l-9.711,0v-3.853h.69a1.336,1.336,0,0,0,1.336-1.336v-4.833a1.336,1.336,0,0,0-1.336-1.336h-.69ZM228.839,205.7v0a1.338,1.338,0,0,0-1.338,1.338v3.073h-5.256v-3.03a1.336,1.336,0,0,0-2.672,0v3.073l-5.146,0v-3.075a1.336,1.336,0,0,0-2.672,0v3.073H207.3v0a2.215,2.215,0,0,0,0-.379v-6.549h27.2v6.5a2.215,2.215,0,0,0,0,.379h-4.454v-3.03a1.337,1.337,0,0,0-1.314-1.381ZM223.849,182l10.425,6.37a8.4,8.4,0,0,1,3.875,5.881,8.287,8.287,0,0,1-1.648,6.3H225.364v-2.784a4.955,4.955,0,0,0-.356-1.76,6.951,6.951,0,0,0-3.342-3.608,1.553,1.553,0,0,0-1.158,0,7.1,7.1,0,0,0-3.474,3.541,5.239,5.239,0,0,0-.4,1.916v2.784H205.318a8.285,8.285,0,0,1-1.627-6.3,8.4,8.4,0,0,1,3.876-5.881l10.314-6.37Zm-4.454,15.77a2.394,2.394,0,0,1,.157-.892,3.753,3.753,0,0,1,1.425-1.692,4.079,4.079,0,0,1,1.426,1.692,2.909,2.909,0,0,1,.155.892v2.784h-3.23Zm1.8-25.08v0a1.494,1.494,0,0,1,1.515,1.515v5.123l-3.541,0V174.2a1.494,1.494,0,0,1,1.515-1.515Zm-17.507,41.894a1.8,1.8,0,0,1,1.8-1.8h30.828a1.827,1.827,0,0,1,1.826,1.8v1.983H203.691Zm.334,4.655,33.768,0,4.12,2.873h-18.2a15.054,15.054,0,0,0-1.983-2.071,1.333,1.333,0,0,0-1.692,0,14.3,14.3,0,0,0-1.961,2.071H199.9Zm-12.63,2.873,0,0a1.336,1.336,0,0,0-1.336,1.336v4.833a1.336,1.336,0,0,0,1.336,1.336h.668v3.765h-9.712V220.016h9.711v2Zm-9.534-6.682,0,0a2.871,2.871,0,0,1,1.114-1.959l4.075-3.207,4.454,3.23v0a2.9,2.9,0,0,1,1.07,1.937,3.326,3.326,0,0,1-.224,1.871H182.109a3.309,3.309,0,0,1-.245-1.8Zm-2.228,14.121v3.765l-19.242,0v-3.7Zm-32.116-14.053a2.871,2.871,0,0,1,1.114-1.959l4.075-3.207,4.454,3.23v0a2.891,2.891,0,0,1,1.069,1.937,3.313,3.313,0,0,1-.222,1.871H147.763a3.317,3.317,0,0,1-.245-1.871Zm.513,43.3h37.643v2.228H148.03Zm40.315,2.228v-2.094h64.928v2.094Z"></path><path id="Path_51595" data-name="Path 51595" d="M176.894,344.01a1.383,1.383,0,0,0-1.338,1.381,1.337,1.337,0,0,0,2.674,0,1.316,1.316,0,0,0-1.336-1.381Z" transform="translate(-24.035 -104.79)"></path><path id="Path_51596" data-name="Path 51596" d="M219.957,346.826a1.336,1.336,0,0,0,1.336-1.336,1.316,1.316,0,0,0-1.336-1.314,1.38,1.38,0,0,0-1.336,1.381,1.336,1.336,0,0,0,1.336,1.269Z" transform="translate(-49.97 -104.89)"></path><path id="Path_51597" data-name="Path 51597" d="M262.744,346.826a1.336,1.336,0,0,0,1.336-1.336,1.316,1.316,0,0,0-1.336-1.314,1.383,1.383,0,0,0-1.338,1.381A1.337,1.337,0,0,0,262.744,346.826Z" transform="translate(-75.738 -104.89)"></path><path id="Path_51598" data-name="Path 51598" d="M519.057,346.826a1.336,1.336,0,0,0,1.338-1.336,1.316,1.316,0,0,0-1.338-1.314,1.358,1.358,0,0,0-1.336,1.381A1.337,1.337,0,0,0,519.057,346.826Z" transform="translate(-230.105 -104.89)"></path><path id="Path_51599" data-name="Path 51599" d="M476,346.826a1.336,1.336,0,0,0,1.336-1.336A1.316,1.316,0,0,0,476,344.176a1.381,1.381,0,0,0-1.336,1.381A1.335,1.335,0,0,0,476,346.826Z" transform="translate(-204.172 -104.89)"></path><path id="Path_51600" data-name="Path 51600" d="M432.707,346.826a1.337,1.337,0,0,0,1.338-1.336,1.316,1.316,0,0,0-1.338-1.314,1.382,1.382,0,0,0-1.336,1.381,1.337,1.337,0,0,0,1.336,1.269Z" transform="translate(-178.1 -104.89)"></path><path id="Path_51601" data-name="Path 51601" d="M264.081,373.709a1.316,1.316,0,0,0-1.336-1.314,1.383,1.383,0,0,0-1.338,1.381,1.338,1.338,0,1,0,2.674-.067Z" transform="translate(-75.739 -121.886)"></path><path id="Path_51602" data-name="Path 51602" d="M432.707,372.23a1.382,1.382,0,0,0-1.336,1.381,1.337,1.337,0,0,0,2.674,0,1.315,1.315,0,0,0-1.338-1.381Z" transform="translate(-178.1 -121.786)"></path><path id="Path_51603" data-name="Path 51603" d="M176.894,305.31a1.313,1.313,0,0,0-1.338,1.314v3.207a1.337,1.337,0,0,0,2.674,0v-3.207a1.313,1.313,0,0,0-1.336-1.314Z" transform="translate(-24.035 -81.483)"></path><path id="Path_51604" data-name="Path 51604" d="M263.244,305.31a1.313,1.313,0,0,0-1.338,1.314v3.207a1.337,1.337,0,0,0,2.674,0v-3.207a1.313,1.313,0,0,0-1.336-1.314Z" transform="translate(-76.039 -81.483)"></path><path id="Path_51605" data-name="Path 51605" d="M432.707,311.138a1.337,1.337,0,0,0,1.338-1.336v-3.207a1.337,1.337,0,0,0-2.674,0V309.8a1.337,1.337,0,0,0,1.336,1.336Z" transform="translate(-178.1 -81.452)"></path><path id="Path_51606" data-name="Path 51606" d="M519.057,305.31a1.313,1.313,0,0,0-1.336,1.314v3.207a1.337,1.337,0,0,0,2.674,0v-3.207a1.313,1.313,0,0,0-1.338-1.314Z" transform="translate(-230.105 -81.483)"></path></g></g></svg>