<svg xmlns="http://www.w3.org/2000/svg" width="76" height="76" viewBox="0 0 76 76"><g id="Group_25762" data-name="Group 25762" transform="translate(-284 -676)"><circle id="Ellipse_947" data-name="Ellipse 947" cx="38" cy="38" r="38" transform="translate(284 676)" fill="#fff"></circle><g id="noun-soil-2065969" transform="translate(299.334 643.074)"><path id="Path_51476" data-name="Path 51476" d="M1.952,277.308V293.65H0V277.226H0A10.876,10.876,0,0,1,1.952,277.308Z" transform="translate(0 -207.853)"></path><path id="Path_51477" data-name="Path 51477" d="M40.329,281.5v15.231H38.137V280.512a.5.5,0,0,1,.139,0,9.98,9.98,0,0,1,2.053.986Z" transform="translate(-35.629 -210.93)"></path><path id="Path_51478" data-name="Path 51478" d="M83.238,301.719v13.733H81.071v-14.9c.152.095.3.19.461.278a18.113,18.113,0,0,0,1.706.891Z" transform="translate(-75.74 -229.655)"></path><path id="Path_51479" data-name="Path 51479" d="M125.058,323.1v12.634h-2.2V322.26c.72.316,1.453.594,2.2.84Z" transform="translate(-114.781 -249.937)"></path><path id="Path_51480" data-name="Path 51480" d="M167.32,338.286v11.9h-2.192V337.73c.726.221,1.459.4,2.192.556Z" transform="translate(-154.269 -264.39)"></path><path id="Path_51481" data-name="Path 51481" d="M209.49,348.114V359.6H207.3V347.81h0a21.27,21.27,0,0,0,2.192.3Z" transform="translate(-193.666 -273.807)"></path><path id="Path_51482" data-name="Path 51482" d="M251.66,353.36V364.73h-2.192V353.29c.632.051,1.263.076,1.933.076h.259Z" transform="translate(-233.063 -278.927)"></path><path id="Path_51483" data-name="Path 51483" d="M293.838,351.656V363.2h-2.2V351.827c.733-.032,1.472-.088,2.2-.171Z" transform="translate(-272.462 -277.4)"></path><path id="Path_51484" data-name="Path 51484" d="M336.1,344.26v12h-2.192V344.639a21.185,21.185,0,0,0,2.192-.379Z" transform="translate(-311.95 -270.49)"></path><path id="Path_51485" data-name="Path 51485" d="M378.27,331.96V344.8h-2.192V332.629C376.823,332.421,377.524,332.219,378.27,331.96Z" transform="translate(-351.347 -258.999)"></path><path id="Path_51486" data-name="Path 51486" d="M420.446,313.807v14.03h-2.192V314.78q.581-.221,1.137-.474c.354-.152.695-.316,1.055-.5Z" transform="translate(-390.749 -242.04)"></path><path id="Path_51487" data-name="Path 51487" d="M462.908,291.91v15.47h-2.2V293.065c.423-.221.846-.436,1.263-.632Z" transform="translate(-430.414 -221.583)"></path><path id="Path_51488" data-name="Path 51488" d="M504.968,272.408v16.752h-2.186V273.368a23.186,23.186,0,0,1,2.186-.96Z" transform="translate(-469.719 -203.363)"></path><path id="Path_51489" data-name="Path 51489" d="M547.148,260.685v17.523h-2.186V261.234l.632-.2a13.491,13.491,0,0,1,1.554-.347Z" transform="translate(-509.125 -192.411)"></path><path id="Path_51490" data-name="Path 51490" d="M589.308,258.163V275.85h-2.186V258.245h0A12.627,12.627,0,0,1,589.308,258.163Z" transform="translate(-548.513 -190.04)"></path><path id="Path_51491" data-name="Path 51491" d="M631.4,259.686v17.183h-2.2V259.25a9.671,9.671,0,0,1,1.213.19q.486.1.985.246Z" transform="translate(-587.824 -191.071)"></path><path id="Path_51492" data-name="Path 51492" d="M673.361,269.408v16.336h-1.8V268.75c.6.2,1.2.423,1.8.657Z" transform="translate(-627.399 -199.946)"></path><path id="Path_51493" data-name="Path 51493" d="M1.059,54.73H47.021v3.506H1.059Z" transform="translate(-0.989 0)"></path><path id="Path_51494" data-name="Path 51494" d="M1.151,116.318v9.848h0a10.2,10.2,0,0,1,3.108.316,8.178,8.178,0,0,1,1.756.752l.442.24c.215.12.423.24.632.366l.632.348a11.186,11.186,0,0,0,1.263.632h0a.278.278,0,0,1,.221.107,22.594,22.594,0,0,0,2.261.922l.581.2c.72.234,1.453.429,2.192.594l.581.114h0a21.6,21.6,0,0,0,2.192.329c.2,0,.385.038.581.051.733.057,1.459.082,2.192.082h.581a18.306,18.306,0,0,0,2.2-.171l.581-.082c.733-.114,1.465-.259,2.192-.436.2-.051.392-.095.581-.152h0a21.765,21.765,0,0,0,2.192-.726c.2-.076.392-.145.581-.234l.512-.215c.556-.253,1.118-.531,1.68-.821l.581-.3.524-.278c.556-.291,1.106-.581,1.674-.865l.587-.291h0a22.334,22.334,0,0,1,2.186-.91,5.275,5.275,0,0,1,.587-.183.887.887,0,0,1,.183-.063A14.033,14.033,0,0,1,44.1,125.2a19.353,19.353,0,0,1,3.051.954V116.3h-46ZM3.3,123.526a.3.3,0,0,1,0-.587.3.3,0,0,1,0,.587Zm0-4.776h0a.291.291,0,1,1,.291-.291.291.291,0,0,1-.291.291Zm5.256.487h0a.3.3,0,0,1,0,.587.3.3,0,0,1,0-.587Zm-3.79.1h0a.291.291,0,1,1-.006,0Zm.095,6.525a.3.3,0,0,1,0-.587.3.3,0,0,1-.006.587Zm0-7.694a.3.3,0,0,1,0-.587.3.3,0,0,1-.006.587Zm.587,3.7a.3.3,0,0,1,0-.587.3.3,0,0,1-.006.587Zm.872,1.554h0a.291.291,0,1,0-.006,0Zm.423-3.4h0a.87.87,0,1,0-.006,0Zm1.042.872h0a.3.3,0,0,1,0,.587.3.3,0,0,1-.006-.587Zm.291,5.553h0a.291.291,0,1,0-.006,0Zm.291-1.56h0a.29.29,0,1,0-.006,0Zm0-1.554h0a.587.587,0,0,1,0-1.169.587.587,0,0,1-.006,1.169Zm3.6-3.411a.53.53,0,1,1-.006,0Zm-1.845-.095a.291.291,0,1,1-.006,0Zm.19,3.215a.256.256,0,1,0-.006,0Zm.392-5.054a.2.2,0,1,0-.006-.013Zm.682,10.612a.2.2,0,1,0-.006-.013Zm.973-2.142a.587.587,0,0,1,0-1.169.587.587,0,0,1-.006,1.156Zm.291-2.824h0a.588.588,0,0,1,0-1.169.588.588,0,0,1-.006,1.156Zm.783-4.965h0a.205.205,0,1,0-.006-.013Zm11,.777h0a.657.657,0,1,1-.006-.013ZM23.065,117.5h0a.291.291,0,0,1,0,.581.3.3,0,0,1-.006-.594Zm-2.918,2.628a.2.2,0,1,0-.006-.013ZM19.66,117.3h0a.3.3,0,0,1,0,.587.3.3,0,1,1,.013-.6Zm-3.79,8.181h0a1.29,1.29,0,1,1,.013-.013Zm-.487-3.31h0a.291.291,0,1,1,0,.581.3.3,0,0,1-.013-.594ZM14.7,121.1h0a.3.3,0,0,1,0,.587.3.3,0,0,1-.013-.6Zm-.082,2.9a.291.291,0,1,1-.291.291A.291.291,0,0,1,14.619,124Zm.973,4.965a10.874,10.874,0,1,0-.025.013Zm1.358-9.64a2.016,2.016,0,1,0-.025.013Zm1.074,1.554a.41.41,0,1,1-.025.013Zm.487,8.768h0a.3.3,0,0,1,0-.587.313.313,0,0,1-.025.625Zm1.365-2.527h0a.412.412,0,1,0-.025.006Zm-.1-2.729h0a1.2,1.2,0,1,0-.025.006Zm1.851,4.58h0a1,1,0,1,0-.057.006Zm1.169-7.208h0a.311.311,0,1,1-.025.006Zm1.169,4.384a2.208,2.208,0,1,0-.025.006Zm1.169,2.142a.42.42,0,1,0-.025.006Zm.291-10.227h0a.291.291,0,1,1,0-.581.294.294,0,0,1-.025.587Zm1.465,4.972h0a.411.411,0,1,0-.025.006Zm.581,3.013h0a.291.291,0,0,1,0-.581.294.294,0,0,1-.025.588ZM41,121.669h0a.327.327,0,1,1-.025.006Zm-9.343-1.263h0a.26.26,0,1,1-.025,0Zm-2.628,7.208a.257.257,0,1,0-.025,0Zm0-5.256h0a.257.257,0,1,0-.025,0Zm.291-4.776h0a1.172,1.172,0,1,1-.025,0Zm1.169,7.5h0a.8.8,0,1,0-.025,0Zm1.169,1.655h0a.53.53,0,1,0-.025,0Zm1.169-9.153h0a.259.259,0,1,1-.025,0Zm.291,6.949h0a.181.181,0,1,0-.025-.032Zm.581-1.952h0a.179.179,0,1,0-.025-.032Zm.493-2.628h0a.18.18,0,1,0-.025-.032Zm1.358-1.459h0a.18.18,0,1,0-.025-.032Zm1.365,5.843h0a.528.528,0,1,0-.025-.032Zm.682-4.283h0a.574.574,0,1,0-.025-.032Zm3.4,4.087h0a.373.373,0,1,0-.025-.032Zm.493-5.647h-.1a.291.291,0,1,1,0-.581h.1a.29.29,0,0,1-.025.549Zm1.263,2.142h0a.18.18,0,1,0-.025-.032Zm2.236-2.723h0a.291.291,0,1,1,0,.581.307.307,0,0,1-.051-.613Zm-.19,6.317h0a.177.177,0,1,0-.025-.025Zm.291-1.946h0a.563.563,0,1,0-.025-.025Z" transform="translate(-1.076 -57.526)"></path></g></g></svg>