<svg xmlns="http://www.w3.org/2000/svg" width="76" height="76" viewBox="0 0 76 76"><g id="Group_25764" data-name="Group 25764" transform="translate(-284 -676)"><circle id="Ellipse_947" data-name="Ellipse 947" cx="38" cy="38" r="38" transform="translate(284 676)" fill="#fff"></circle><g id="noun-farm-18711" transform="translate(220.865 688.471)"><path id="Path_51504" data-name="Path 51504" d="M143.137,141.637c-.3-.63-.629-1.244-.979-1.844-16.218,3.344-35.866,12.142-44.522,25.176a25.7,25.7,0,0,0,8.958,9.414c7.528-14.575,27-29.264,36.542-32.745Z" transform="translate(-19.511 -127.047)" fill="#010101"></path><path id="Path_51505" data-name="Path 51505" d="M125.21,10.5A25.575,25.575,0,0,0,80.6,16.6C93.7,10.1,114.159,8.82,125.211,10.5Z" transform="translate(-4.028)" fill="#010101"></path><path id="Path_51506" data-name="Path 51506" d="M366.55,207.713a25.583,25.583,0,0,0,21.487-35.343c-8.912,9.109-17.87,22.388-21.487,35.343Z" transform="translate(-263.906 -156.654)" fill="#010101"></path><path id="Path_51507" data-name="Path 51507" d="M136.56,263.66h.8V271h-.8Z" transform="translate(-54.886 -239.621)" fill="#010101"></path><path id="Path_51508" data-name="Path 51508" d="M113.789,185.015c1.431,1.343,1.9,4.223,1.814,5.673,2.845-2.31-.288-6.744-2.773-7.309a9.389,9.389,0,0,1-.114,3.1c-.368,2.055.592,4.059,2.144,4.223a9.86,9.86,0,0,0-1.071-5.689Z" transform="translate(-33.144 -166.659)" fill="#010101"></path><path id="Path_51509" data-name="Path 51509" d="M77.448,258.434a8.248,8.248,0,0,1,3.931.041c-1.626-2.46-4.558-.937-5.211.254a6.515,6.515,0,0,1,2.029.718c1.282.67,2.806.452,3.238-.542A18.38,18.38,0,0,0,77.448,258.434Z" transform="translate(0 -233.711)" fill="#010101"></path><path id="Path_51510" data-name="Path 51510" d="M150.35,246.95a8.263,8.263,0,0,1-2.4,3.109c2.942.188,3.495-3.07,2.938-4.309a6.518,6.518,0,0,1-1.8,1.185c-1.31.618-2.053,1.968-1.522,2.91A18.172,18.172,0,0,0,150.35,246.95Z" transform="translate(-64.733 -223.343)" fill="#010101"></path><path id="Path_51511" data-name="Path 51511" d="M328.47,468.53h.8v7.336h-.8Z" transform="translate(-229.298 -425.811)" fill="#010101"></path><path id="Path_51512" data-name="Path 51512" d="M305.709,389.885c1.431,1.343,1.9,4.223,1.814,5.672,2.845-2.309-.288-6.744-2.773-7.308a9.393,9.393,0,0,1-.114,3.1c-.367,2.055.592,4.06,2.145,4.223a9.864,9.864,0,0,0-1.071-5.689Z" transform="translate(-207.565 -352.85)" fill="#010101"></path><path id="Path_51513" data-name="Path 51513" d="M269.35,463.3a8.243,8.243,0,0,1,3.931.04c-1.627-2.46-4.558-.937-5.212.254a6.511,6.511,0,0,1,2.029.718c1.282.67,2.806.452,3.238-.541A18.308,18.308,0,0,0,269.35,463.3Z" transform="translate(-174.404 -419.893)" fill="#010101"></path><path id="Path_51514" data-name="Path 51514" d="M342.294,451.816a8.266,8.266,0,0,1-2.4,3.11c2.942.187,3.5-3.071,2.938-4.309a6.545,6.545,0,0,1-1.8,1.184c-1.308.618-2.053,1.968-1.52,2.909a18.383,18.383,0,0,0,2.779-2.894Z" transform="translate(-239.177 -409.532)" fill="#010101"></path><path id="Path_51515" data-name="Path 51515" d="M250.46,201.24h.584v5.328h-.584Z" transform="translate(-158.401 -182.892)" fill="#010101"></path><path id="Path_51516" data-name="Path 51516" d="M233.931,144.144a6.006,6.006,0,0,1,1.316,4.119c2.067-1.677-.21-4.9-2.013-5.306a6.8,6.8,0,0,1-.084,2.253c-.266,1.492.43,2.948,1.557,3.067a7.16,7.16,0,0,0-.777-4.132Z" transform="translate(-142.618 -129.923)" fill="#010101"></path><path id="Path_51517" data-name="Path 51517" d="M207.537,197.443a6,6,0,0,1,2.855.03c-1.182-1.786-3.31-.681-3.785.184a4.715,4.715,0,0,1,1.473.521c.932.488,2.038.328,2.351-.392a13.233,13.233,0,0,0-2.9-.343Z" transform="translate(-118.547 -178.598)" fill="#010101"></path><path id="Path_51518" data-name="Path 51518" d="M260.5,189.093a6.011,6.011,0,0,1-1.743,2.257c2.136.136,2.538-2.23,2.134-3.13a4.782,4.782,0,0,1-1.3.86c-.951.448-1.491,1.43-1.1,2.113a13.229,13.229,0,0,0,2.019-2.1Z" transform="translate(-165.58 -171.059)" fill="#010101"></path><path id="Path_51519" data-name="Path 51519" d="M403.57,367.28h.585v5.329h-.585Z" transform="translate(-297.551 -333.793)" fill="#010101"></path><path id="Path_51520" data-name="Path 51520" d="M387.029,310.173a6.016,6.016,0,0,1,1.317,4.119c2.066-1.677-.21-4.9-2.013-5.307a6.753,6.753,0,0,1-.084,2.254c-.265,1.492.431,2.948,1.558,3.068a7.152,7.152,0,0,0-.778-4.133Z" transform="translate(-281.758 -280.813)" fill="#010101"></path><path id="Path_51521" data-name="Path 51521" d="M360.658,363.5a5.969,5.969,0,0,1,2.856.029c-1.182-1.787-3.31-.681-3.784.184a4.773,4.773,0,0,1,1.473.521c.933.487,2.038.329,2.352-.394A13.281,13.281,0,0,0,360.658,363.5Z" transform="translate(-257.708 -329.51)" fill="#010101"></path><path id="Path_51522" data-name="Path 51522" d="M413.6,355.14a6.014,6.014,0,0,1-1.743,2.258c2.136.135,2.538-2.23,2.134-3.13a4.752,4.752,0,0,1-1.3.861c-.951.448-1.492,1.429-1.1,2.112A13.286,13.286,0,0,0,413.6,355.14Z" transform="translate(-304.72 -321.967)" fill="#010101"></path><path id="Path_51523" data-name="Path 51523" d="M357.02,161.41h.418v3.575h-.418Z" transform="translate(-255.245 -146.693)" fill="#010101"></path><path id="Path_51524" data-name="Path 51524" d="M344.3,123.1a3.726,3.726,0,0,1,1,2.764c1.572-1.125-.16-3.286-1.533-3.561a4.007,4.007,0,0,1-.063,1.511,1.615,1.615,0,0,0,1.186,2.057,4.332,4.332,0,0,0-.591-2.771Z" transform="translate(-243.104 -111.152)" fill="#010101"></path><path id="Path_51525" data-name="Path 51525" d="M324.243,158.866a5.152,5.152,0,0,1,2.171.019,1.859,1.859,0,0,0-2.877.124,3.916,3.916,0,0,1,1.12.35c.709.327,1.549.219,1.787-.265a11.582,11.582,0,0,0-2.2-.228Z" transform="translate(-224.815 -143.815)" fill="#010101"></path><path id="Path_51526" data-name="Path 51526" d="M364.5,153.27a4.114,4.114,0,0,1-1.326,1.515,1.549,1.549,0,0,0,1.623-2.1,3.675,3.675,0,0,1-.993.577c-.723.3-1.133.959-.839,1.419a9.444,9.444,0,0,0,1.536-1.41Z" transform="translate(-260.558 -138.763)" fill="#010101"></path><path id="Path_51527" data-name="Path 51527" d="M473.46,277.86h.417v3.575h-.417Z" transform="translate(-361.068 -252.526)" fill="#010101"></path><path id="Path_51528" data-name="Path 51528" d="M460.76,239.541a3.718,3.718,0,0,1,1,2.763c1.572-1.124-.16-3.286-1.531-3.561a4.046,4.046,0,0,1-.063,1.512,1.615,1.615,0,0,0,1.185,2.057,4.316,4.316,0,0,0-.593-2.771Z" transform="translate(-348.949 -216.974)" fill="#010101"></path><path id="Path_51529" data-name="Path 51529" d="M440.677,275.317a5.172,5.172,0,0,1,2.171.019,1.86,1.86,0,0,0-2.878.124,3.926,3.926,0,0,1,1.121.35c.707.327,1.548.22,1.787-.264A11.466,11.466,0,0,0,440.677,275.317Z" transform="translate(-330.632 -249.649)" fill="#010101"></path><path id="Path_51530" data-name="Path 51530" d="M480.934,269.724a4.12,4.12,0,0,1-1.328,1.514,1.548,1.548,0,0,0,1.624-2.1,3.7,3.7,0,0,1-.993.577c-.722.3-1.134.959-.841,1.418A9.509,9.509,0,0,0,480.934,269.724Z" transform="translate(-366.377 -244.599)" fill="#010101"></path><path id="Path_51531" data-name="Path 51531" d="M444.11,141.54h.281v2.414h-.281Z" transform="translate(-334.395 -128.635)" fill="#010101"></path><path id="Path_51532" data-name="Path 51532" d="M435.506,115.686a2.514,2.514,0,0,1,.675,1.865c1.061-.76-.106-2.218-1.034-2.4a2.731,2.731,0,0,1-.042,1.021,1.09,1.09,0,0,0,.8,1.389A2.917,2.917,0,0,0,435.506,115.686Z" transform="translate(-326.184 -104.649)" fill="#010101"></path><path id="Path_51533" data-name="Path 51533" d="M421.973,139.832a3.476,3.476,0,0,1,1.466.014,1.255,1.255,0,0,0-1.942.083,2.658,2.658,0,0,1,.757.236c.478.22,1.045.148,1.2-.179a7.794,7.794,0,0,0-1.486-.155Z" transform="translate(-313.843 -126.702)" fill="#010101"></path><path id="Path_51534" data-name="Path 51534" d="M449.153,136.043a2.812,2.812,0,0,1-.9,1.023,1.045,1.045,0,0,0,1.094-1.418,2.486,2.486,0,0,1-.67.39c-.488.2-.764.646-.566.957a6.524,6.524,0,0,0,1.036-.952Z" transform="translate(-337.977 -123.28)" fill="#010101"></path></g></g></svg>