<svg xmlns="http://www.w3.org/2000/svg" width="76" height="76" viewBox="0 0 76 76"><g id="Group_25761" data-name="Group 25761" transform="translate(-284 -676)"><circle id="Ellipse_947" data-name="Ellipse 947" cx="38" cy="38" r="38" transform="translate(284 676)" fill="#fff"></circle><g id="noun-digging-3681410" transform="translate(191.12 675.994)"><path id="Path_51474" data-name="Path 51474" d="M192.627,323.68c1.183,5.711-.154,10.547-3.859,12.554a7.5,7.5,0,0,1-3.5.875c-3.293,0-6.894-2.007-9.93-5.454-3.344,3.859-5.66,7.769-5.66,8.953,0,2.521,8.7,3.55,19.346,3.55s19.346-1.029,19.346-3.55c0-2.213-7.975-13.84-15.744-16.927Z" transform="translate(-54.991 -281.4)"></path><path id="Path_51475" data-name="Path 51475" d="M122.921,37.906a.887.887,0,0,0-.257,1.183l1.029,1.955-3.242,1.749a1.1,1.1,0,0,0-.412,1.492c3.55,6.02,8.85,9.416,12.142,7.615,3.293-1.749,3.4-8.026.36-14.355a1.051,1.051,0,0,0-1.492-.463l-3.242,1.749-1.029-1.955a.916.916,0,0,0-1.132-.412l-9.776-18.214,1.389-1.955a1.554,1.554,0,0,0-.1-1.955,1.575,1.575,0,0,0-1.9-.36l-5.3,2.882a1.556,1.556,0,0,0,.72,2.933h.051l2.418-.1Z" transform="translate(0)"></path></g></g></svg>