<svg xmlns="http://www.w3.org/2000/svg" width="76" height="76" viewBox="0 0 76 76"><g id="Group_25763" data-name="Group 25763" transform="translate(-284 -676)"><circle id="Ellipse_947" data-name="Ellipse 947" cx="38" cy="38" r="38" transform="translate(284 676)" fill="#fff"></circle><g id="noun-soil-moisture-meter-4546300" transform="translate(210.891 671.598)"><path id="Path_51495" data-name="Path 51495" d="M324.215,525.778a.778.778,0,1,1-.778-.778.778.778,0,0,1,.778.778" transform="translate(-214.264 -462.402)"></path><path id="Path_51496" data-name="Path 51496" d="M131.137,350.393a6.213,6.213,0,0,0-1.536.192.777.777,0,0,1-.815-.287,6.3,6.3,0,0,0-3.584-2.345.779.779,0,0,1-.6-.689,4.952,4.952,0,0,0-6.353-4.306.777.777,0,0,1-.788-.212,10.022,10.022,0,0,0-3.949-2.576l-.659,1.713V348h0a2.03,2.03,0,1,1-4.061,0v-6.12l-.787-2.047a10.028,10.028,0,0,0-6.26,4.37.778.778,0,0,1-.885.321,4.96,4.96,0,0,0-5.642,2.051.778.778,0,0,1-.721.353c-.239-.02-.477-.031-.708-.031h0a8.033,8.033,0,0,0-6.291,3.062v7.883h19.475a2.333,2.333,0,1,1,4.4,0h6.3a.777.777,0,1,1,.55-.228.777.777,0,0,1-.55.228h16.485v-6.67a6.169,6.169,0,0,0-3.015-.782Zm-40.085,6.675a2.336,2.336,0,1,1,1.648-.684,2.333,2.333,0,0,1-1.648.684Zm6.942-1.555a.778.778,0,1,1,.55-.228A.778.778,0,0,1,97.994,355.513Zm2.753-4.415a2.334,2.334,0,1,1,1.649-.683,2.333,2.333,0,0,1-1.649.683Zm3.992-5.541h0a.777.777,0,1,1,.55-.228.778.778,0,0,1-.55.228Zm12.151,4.477h0a2.335,2.335,0,1,1,1.648-.684,2.334,2.334,0,0,1-1.648.684Zm7.14,2.619h0a.777.777,0,1,1,.778-.778.777.777,0,0,1-.778.778Zm5.954,4.665h0a2.335,2.335,0,1,1,1.649-.684,2.333,2.333,0,0,1-1.649.684Z" transform="translate(0 -293.693)"></path><path id="Path_51497" data-name="Path 51497" d="M345.605,398.2v2.981h0a.475.475,0,0,1-.95,0V398.2Z" transform="translate(-234.304 -346.87)"></path><path id="Path_51498" data-name="Path 51498" d="M313.007,17.5a3.612,3.612,0,0,0-3.608,3.608V39.325a2.331,2.331,0,0,0,.156.837l2.926,7.605a.781.781,0,0,1,.052.279v1.729h.95V48.046a.781.781,0,0,1,.052-.279l2.926-7.605a2.331,2.331,0,0,0,.156-.837V21.108a3.612,3.612,0,0,0-3.608-3.608Zm1.45,7.842a.778.778,0,0,1,0,1.555h-.673v2.2h.673a.778.778,0,0,1,0,1.555h-.673v2.2h.673a.778.778,0,0,1,0,1.555h-.673v2.36a2.03,2.03,0,1,1-1.555,0v-2.36h-.673a.778.778,0,1,1,0-1.555h.673v-2.2h-.673a.778.778,0,1,1,0-1.555h.673V26.9h-.673a.778.778,0,1,1,0-1.555h.673v-2.2h-.673a.778.778,0,1,1,0-1.555h.673v-1.1a.778.778,0,0,1,1.555,0v1.1h.673a.778.778,0,1,1,0,1.555h-.673v2.2Z" transform="translate(-202.181)"></path><path id="Path_51499" data-name="Path 51499" d="M120.285,499.528a.778.778,0,1,1-.778-.778.778.778,0,0,1,.778.778" transform="translate(-28.456 -438.485)"></path><path id="Path_51500" data-name="Path 51500" d="M229.385,432.348a.778.778,0,1,1-.778-.778.777.777,0,0,1,.778.778" transform="translate(-127.861 -377.275)"></path><path id="Path_51501" data-name="Path 51501" d="M411.045,420.368a.778.778,0,1,1-.778-.778.777.777,0,0,1,.778.778" transform="translate(-293.378 -366.359)"></path><path id="Path_51502" data-name="Path 51502" d="M558.4,502.348a.778.778,0,1,1-.778-.778.777.777,0,0,1,.778.778" transform="translate(-427.634 -441.054)"></path><path id="Path_51503" data-name="Path 51503" d="M345.6,250.628a.475.475,0,1,1-.475-.475A.475.475,0,0,1,345.6,250.628Z" transform="translate(-234.303 -211.978)"></path></g></g></svg>