<svg xmlns="http://www.w3.org/2000/svg" width="30" height="30" viewBox="0 0 30 30"><g id="kannada" data-name="Group 25848" transform="translate(-466 -308)" style="fill: rgb(255, 255, 255);"><path id="Path_51610" data-name="Path 51610" d="M15,0A15,15,0,1,1,0,15,15,15,0,0,1,15,0Z" transform="translate(466 308)"></path><g id="_1200px-Icon_ಕ_black" data-name="1200px-Icon_ಕ black" transform="translate(79.615 1231.902)"><path id="Path_51616" data-name="Path 51616" d="M405.409-919.4a5.783,5.783,0,0,0-.812.547,1.474,1.474,0,0,0,.282.328,4.328,4.328,0,0,1,1.379,2.751,1.451,1.451,0,0,1-1.153,1.654c-.524.2-.282.19-5.411.2l-4.694.013v2.027h5.794l.115.236a2,2,0,0,1,.233,1.009.959.959,0,0,1-.121.622,2.768,2.768,0,0,1-.3.465l-.18.223H395v1.9h2.407l-.285.262a4.334,4.334,0,0,0-1.389,2.457,6.37,6.37,0,0,0,0,1.638,4.6,4.6,0,0,0,.714,1.821,5.717,5.717,0,0,0,1.074,1.11,5.388,5.388,0,0,0,1.788.832,10.821,10.821,0,0,0,4.451.036,5.96,5.96,0,0,0,1.86-.757,4.108,4.108,0,0,0,1.995-3.452,4.3,4.3,0,0,0-.288-2.047,5.515,5.515,0,0,0-1.359-1.621l-.2-.147h2.4v-1.9h-5.175l.1-.174a2.316,2.316,0,0,0-.03-2.011,1.5,1.5,0,0,1-.092-.223c.007,0,.35-.023.763-.043a8.824,8.824,0,0,0,1.834-.236,3.82,3.82,0,0,0,1.6-.685,4.048,4.048,0,0,0,1.133-1.8,5.242,5.242,0,0,0-.347-3.226,17.527,17.527,0,0,0-1.346-1.991c-.174-.219-.272-.318-.318-.314A8.692,8.692,0,0,0,405.409-919.4Zm-2.751,12.332a3.668,3.668,0,0,1,2.358,1.458,3.007,3.007,0,0,1,.39.907,4.651,4.651,0,0,1,0,1.507,2.868,2.868,0,0,1-1.6,1.867,4.611,4.611,0,0,1-2.011.383,5.588,5.588,0,0,1-2.067-.242,2.879,2.879,0,0,1-1.959-2.024,4.129,4.129,0,0,1,0-1.474,3.5,3.5,0,0,1,1.657-2.063,4.436,4.436,0,0,1,1.425-.39c.056-.007.416-.01.8,0A4.683,4.683,0,0,1,402.658-907.073Z" transform="translate(0)" fill="#fff" style="fill: rgb(18, 102, 52);"></path></g></g></svg>