<svg xmlns="http://www.w3.org/2000/svg" width="27" height="31" viewBox="0 0 27 31" fill="#fff"><g data-name="Group 25844" transform="translate(-218 -640)"><path id="Path_51608" data-name="Path 51608" d="M-.48,0H14.782l3.149,3.914L0,31Z" transform="translate(226 640)"></path><rect id="Rectangle_4932" data-name="Rectangle 4932" width="21" height="30" rx="1" transform="translate(218 641)" fill="#fff"></rect><rect id="Rectangle_4933" data-name="Rectangle 4933" width="19" height="25" transform="translate(218 643)"></rect><rect id="Rectangle_4935" data-name="Rectangle 4935" width="21" height="27" rx="1" transform="translate(224 644)" fill="#fff"></rect><rect id="Rectangle_4934" data-name="Rectangle 4934" width="19" height="25" transform="translate(226 646)"></rect><rect id="Rectangle_4936" data-name="Rectangle 4936" width="16" height="2" rx="1" transform="translate(227 650)" fill="#fff"></rect><rect id="Rectangle_4940" data-name="Rectangle 4940" width="5" height="2" rx="1" transform="translate(219 647)" fill="#fff"></rect><rect id="Rectangle_4941" data-name="Rectangle 4941" width="5" height="2" rx="1" transform="translate(219 651)" fill="#fff"></rect><rect id="Rectangle_4942" data-name="Rectangle 4942" width="5" height="2" rx="1" transform="translate(219 655)" fill="#fff"></rect><rect id="Rectangle_4943" data-name="Rectangle 4943" width="5" height="2" rx="1" transform="translate(219 659)" fill="#fff"></rect><rect id="Rectangle_4937" data-name="Rectangle 4937" width="16" height="2" rx="1" transform="translate(227 654)" fill="#fff"></rect><rect id="Rectangle_4938" data-name="Rectangle 4938" width="16" height="2" rx="1" transform="translate(227 658)" fill="#fff"></rect><rect id="Rectangle_4939" data-name="Rectangle 4939" width="16" height="2" rx="1" transform="translate(227 663)" fill="#fff"></rect></g></svg>