<svg xmlns="http://www.w3.org/2000/svg" width="19.917" height="28.177" viewBox="0 0 19.917 28.177">
<g id="rupee" transform="translate(-181.57 -41.929)">
<path id="Path_51450" data-name="Path 51450" d="M191.53,182.437a9.968,9.968,0,0,0,9.958-9.958c0-5.093-5.589-10.406-6.412-11.159h-7.093c-.823.754-6.413,6.067-6.413,11.159a9.97,9.97,0,0,0,9.959,9.958Zm-3.9-12.234a.388.388,0,1,1,0-.776h4.313a2.125,2.125,0,0,0-2.085-1.736h-2.227a.388.388,0,1,1,0-.776h7.8a.388.388,0,1,1,0,.776h-3.618a2.886,2.886,0,0,1,.9,1.736h2.716a.388.388,0,1,1,0,.776h-2.716a2.888,2.888,0,0,1-2.034,2.378l5.018,4.788a.388.388,0,0,1-.535.562l-5.466-5.215h-2.072a.388.388,0,0,1,0-.776h2.227a2.125,2.125,0,0,0,2.085-1.737h-4.312Z" transform="translate(0 -112.331)"></path>
<path id="Path_51451" data-name="Path 51451" d="M276.105,114.914h7.425a.7.7,0,0,0,.7-.7v-.692a.7.7,0,0,0-.7-.7h-7.425a.7.7,0,0,0-.7.7v.692A.7.7,0,0,0,276.105,114.914Z" transform="translate(-88.287 -66.702)"></path>
<path id="Path_51452" data-name="Path 51452" d="M264.225,45.345l2.408-2.938a7.69,7.69,0,0,1-4.514-.121l-1.077-.357-1.076.358a7.674,7.674,0,0,1-4.515.121l2.408,2.938h6.366Z" transform="translate(-69.512)"></path>
</g>
</svg>