<svg xmlns="http://www.w3.org/2000/svg" width="42.119" height="51.053" viewBox="0 0 42.119 51.053">
<g id="noun-file-pdf-1781918" transform="translate(-165.198 -56)">
<path id="Path_51611" data-name="Path 51611" d="M387.9,73.039h14.422L385.28,56V70.422a2.671,2.671,0,0,0,2.616,2.617Z" transform="translate(-195.002)"></path>
<path id="Path_51612" data-name="Path 51612" d="M218.774,70.422V56H201.416a2.628,2.628,0,0,0-2.617,2.617V78.974h20.8a3.815,3.815,0,0,1,3.829,3.893v9.317a3.854,3.854,0,0,1-3.829,3.893H198.8v8.36a2.628,2.628,0,0,0,2.617,2.617h33.057a2.588,2.588,0,0,0,2.617-2.617V74.315H222.666a3.908,3.908,0,0,1-3.893-3.893Z" transform="translate(-29.772)"></path>
<path id="Path_51613" data-name="Path 51613" d="M272.06,310.24a7.555,7.555,0,0,0-1.021.064v5.105H272a2.148,2.148,0,0,0,1.915-.893,3.183,3.183,0,0,0,.447-1.85c0-1.659-.7-2.425-2.3-2.425Z" transform="translate(-93.78 -225.268)"></path>
<path id="Path_51614" data-name="Path 51614" d="M192.384,271.416a2.588,2.588,0,0,0-2.617-2.617H167.815a2.588,2.588,0,0,0-2.617,2.617v9.317a2.588,2.588,0,0,0,2.617,2.617h22.017a2.588,2.588,0,0,0,2.617-2.617v-9.317Zm-18.507,5.169a4.05,4.05,0,0,1-2.552.766h-.383v3.127h-1.915v-8.36l.383-.064a13.511,13.511,0,0,1,2.106-.191,3.913,3.913,0,0,1,2.425.7,2.356,2.356,0,0,1,.957,1.915,2.436,2.436,0,0,1-1.021,2.106Zm7.658,2.361a4,4,0,0,1-3.382,1.4,17.79,17.79,0,0,1-2.106-.191l-.255-.064v-7.977l.255-.064c1.213-.128,1.978-.191,2.361-.191a3.993,3.993,0,0,1,3.191,1.276,4.213,4.213,0,0,1,.83,2.808,4.921,4.921,0,0,1-.893,3Zm7.02-5.36H184.79v1.6h3.382V276.9h-3.319v3.574h-1.723v-8.615h5.425Z" transform="translate(0 -188.549)"></path>
<path id="Path_51615" data-name="Path 51615" d="M215.677,310.24h-.638v2.106c.064,0,.383.064.511.064,1.468,0,1.659-.638,1.659-1.148.064-.319.064-1.021-1.531-1.021Z" transform="translate(-44.161 -225.267)"></path>
</g>
</svg>