<svg xmlns="http://www.w3.org/2000/svg" width="166.953" height="40.237" viewBox="0 0 166.953 40.237"><g id="Group_4" data-name="Group 4" transform="translate(-99.18 -220.09)"><path id="Path_1" data-name="Path 1" d="M295.219,226.091c-1.614,0-2.677.587-2.677,1.76,0,4.254,13.533,1.834,13.533,11.076,0,5.244-4.621,7.922-10.342,7.922a19.317,19.317,0,0,1-11.846-4.107l2.6-5.245c2.641,2.274,6.638,3.888,9.315,3.888,1.98,0,3.227-.733,3.227-2.09,0-4.364-13.533-1.724-13.533-10.819,0-4.8,4.071-7.849,10.269-7.849a19.718,19.718,0,0,1,10.269,2.9l-2.53,5.318C300.793,227.3,297.346,226.091,295.219,226.091Z" transform="translate(-136.787 -0.397)" fill="#e2005b"></path><path id="Path_2" data-name="Path 2" d="M374.447,244.376l3.961,13.423,3.887-13.423h6.235l3.924,13.423,3.961-13.423H402.8l-7.262,19.841H389.08L385.3,251.968l-3.814,12.249h-6.455l-7.225-19.841Z" transform="translate(-198.937 -17.986)" fill="#e2005b"></path><path id="Path_3" data-name="Path 3" d="M518.806,250.575v12.909h-6.418v-2.237a7.162,7.162,0,0,1-5.978,2.531c-4.254,0-6.785-2.567-6.785-6.2,0-3.778,2.677-5.942,7.592-6.015h5.171v-.22c0-1.87-1.283-2.971-3.777-2.971a14.531,14.531,0,0,0-5.941,1.577l-1.8-4.4a21.855,21.855,0,0,1,9.242-2.164C515.578,243.387,518.769,246.027,518.806,250.575Zm-6.418,6.2v-1.724H508.5c-1.834,0-2.751.66-2.751,2.054,0,1.357.99,2.237,2.677,2.237A3.915,3.915,0,0,0,512.388,256.773Z" transform="translate(-296.556 -17.253)" fill="#e2005b"></path><path id="Path_4" data-name="Path 4" d="M587.881,247.793c-1.1,0-1.871.4-1.871,1.247,0,2.6,10.416,1.357,10.379,8.252,0,4.071-3.558,6.381-8.4,6.381a14.627,14.627,0,0,1-8.949-2.824l2.053-4.218a12.891,12.891,0,0,0,7.042,2.457c1.21,0,2.091-.4,2.091-1.211,0-2.714-10.232-1.357-10.232-8.215,0-4.144,3.484-6.418,8.142-6.418a16.113,16.113,0,0,1,8.252,2.311l-2.2,4.254A15.052,15.052,0,0,0,587.881,247.793Z" transform="translate(-355.369 -17.148)" fill="#e2005b"></path><path id="Path_5" data-name="Path 5" d="M666.3,250.208a10.921,10.921,0,0,1-5.354,1.321c-3.851.037-6.638-2.237-6.638-6.345v-8.508h-2.75v-4.328h2.75v-5.5H660.8v5.5h5.135v4.328H660.8v7.482c0,1.467.661,2.127,1.8,2.09a6.851,6.851,0,0,0,2.457-.66Z" transform="translate(-409.07 -5.003)" fill="#e2005b"></path><path id="Path_6" data-name="Path 6" d="M724.18,244.376v19.841h-6.491V244.376Z" transform="translate(-458.047 -17.986)" fill="#e2005b"></path><g id="Group_2" data-name="Group 2" transform="translate(99.18 220.09)"><circle id="Ellipse_1" data-name="Ellipse 1" cx="2.269" cy="2.269" r="2.269" transform="translate(17.849)" fill="#e2005b"></circle><circle id="Ellipse_2" data-name="Ellipse 2" cx="2.269" cy="2.269" r="2.269" transform="translate(17.849 35.699)" fill="#e2005b"></circle><circle id="Ellipse_3" data-name="Ellipse 3" cx="2.269" cy="2.269" r="2.269" transform="translate(8.925 2.391)" fill="#e2005b"></circle><circle id="Ellipse_4" data-name="Ellipse 4" cx="2.265" cy="2.265" r="2.265" transform="translate(26.778 33.312)" fill="#e2005b"></circle><circle id="Ellipse_5" data-name="Ellipse 5" cx="2.269" cy="2.269" r="2.269" transform="translate(2.391 8.925)" fill="#e2005b"></circle><circle id="Ellipse_6" data-name="Ellipse 6" cx="2.269" cy="2.269" r="2.269" transform="translate(33.307 26.774)" fill="#e2005b"></circle><circle id="Ellipse_7" data-name="Ellipse 7" cx="2.269" cy="2.269" r="2.269" transform="translate(0 17.849)" fill="#e2005b"></circle><circle id="Ellipse_8" data-name="Ellipse 8" cx="2.269" cy="2.269" r="2.269" transform="translate(35.699 17.849)" fill="#e2005b"></circle><circle id="Ellipse_9" data-name="Ellipse 9" cx="2.368" cy="2.368" r="2.368" transform="translate(2.292 26.675)" fill="#e2005b"></circle><circle id="Ellipse_10" data-name="Ellipse 10" cx="2.269" cy="2.269" r="2.269" transform="translate(33.307 8.925)" fill="#e2005b"></circle><circle id="Ellipse_11" data-name="Ellipse 11" cx="2.269" cy="2.269" r="2.269" transform="translate(8.925 33.307)" fill="#e2005b"></circle><circle id="Ellipse_12" data-name="Ellipse 12" cx="2.269" cy="2.269" r="2.269" transform="translate(26.774 2.391)" fill="#e2005b"></circle><circle id="Ellipse_13" data-name="Ellipse 13" cx="1.531" cy="1.531" r="1.531" transform="translate(18.588 8.756)" fill="#e2005b"></circle><circle id="Ellipse_14" data-name="Ellipse 14" cx="1.569" cy="1.569" r="1.569" transform="translate(18.55 28.38)" fill="#e2005b"></circle><circle id="Ellipse_15" data-name="Ellipse 15" cx="1.53" cy="1.53" r="1.53" transform="translate(13.673 10.074)" fill="#e2005b"></circle><circle id="Ellipse_16" data-name="Ellipse 16" cx="1.569" cy="1.569" r="1.569" transform="translate(23.465 27.063)" fill="#e2005b"></circle><circle id="Ellipse_17" data-name="Ellipse 17" cx="1.569" cy="1.569" r="1.569" transform="translate(10.036 13.633)" fill="#e2005b"></circle><circle id="Ellipse_18" data-name="Ellipse 18" cx="1.569" cy="1.569" r="1.569" transform="translate(27.064 23.464)" fill="#e2005b"></circle><circle id="Ellipse_19" data-name="Ellipse 19" cx="1.569" cy="1.569" r="1.569" transform="translate(8.719 18.549)" fill="#e2005b"></circle><circle id="Ellipse_20" data-name="Ellipse 20" cx="1.569" cy="1.569" r="1.569" transform="translate(28.381 18.549)" fill="#e2005b"></circle><circle id="Ellipse_21" data-name="Ellipse 21" cx="1.524" cy="1.524" r="1.524" transform="translate(10.08 23.509)" fill="#e2005b"></circle><circle id="Ellipse_22" data-name="Ellipse 22" cx="1.569" cy="1.569" r="1.569" transform="translate(27.064 13.633)" fill="#e2005b"></circle><circle id="Ellipse_23" data-name="Ellipse 23" cx="1.531" cy="1.531" r="1.531" transform="translate(13.672 27.101)" fill="#e2005b"></circle><circle id="Ellipse_24" data-name="Ellipse 24" cx="1.524" cy="1.524" r="1.524" transform="translate(23.51 10.079)" fill="#e2005b"></circle><g id="Group_1" data-name="Group 1" transform="translate(16.07 16.019)"><circle id="Ellipse_25" data-name="Ellipse 25" cx="1.286" cy="1.286" r="1.286" transform="translate(2.762)" fill="#e2005b"></circle><circle id="Ellipse_26" data-name="Ellipse 26" cx="1.286" cy="1.286" r="1.286" transform="translate(2.762 5.524)" fill="#e2005b"></circle><circle id="Ellipse_27" data-name="Ellipse 27" cx="1.286" cy="1.286" r="1.286" transform="translate(0 2.762)" fill="#e2005b"></circle><circle id="Ellipse_28" data-name="Ellipse 28" cx="1.286" cy="1.286" r="1.286" transform="translate(5.524 2.762)" fill="#e2005b"></circle></g></g><g id="Group_3" data-name="Group 3" transform="translate(147.105 252.77)"><path id="Path_7" data-name="Path 7" d="M384.073,346.511v6.853h-1.586v-2.809h-3.113v2.809h-1.586v-6.853h1.586v2.7h3.113v-2.7Z" transform="translate(-353.433 -346.394)" fill="#003981"></path><path id="Path_8" data-name="Path 8" d="M412.628,352.091v1.273h-5.306v-6.853H412.5v1.273h-3.6v1.488h3.182v1.233H408.9v1.586Z" transform="translate(-375.305 -346.394)" fill="#003981"></path><path id="Path_9" data-name="Path 9" d="M433.731,351.9h-3.182l-.607,1.468h-1.625l3.054-6.853h1.566L436,353.364h-1.664Zm-.5-1.2-1.086-2.623-1.087,2.623Z" transform="translate(-390.853 -346.394)" fill="#003981"></path><path id="Path_10" data-name="Path 10" d="M460.687,346.511h1.586v5.56h3.436v1.292h-5.022Z" transform="translate(-414.825 -346.394)" fill="#003981"></path><path id="Path_11" data-name="Path 11" d="M478.733,347.8H476.54v-1.292h5.972V347.8h-2.193v5.561h-1.586Z" transform="translate(-426.565 -346.394)" fill="#003981"></path><path id="Path_12" data-name="Path 12" d="M509.123,346.511v6.853h-1.586v-2.809h-3.113v2.809h-1.586v-6.853h1.586v2.7h3.113v-2.7Z" transform="translate(-446.041 -346.394)" fill="#003981"></path><path id="Path_13" data-name="Path 13" d="M286.1,347.8h-2.193v-1.292h5.972V347.8h-2.193v5.561H286.1Z" transform="translate(-283.909 -346.394)" fill="#003981"></path><path id="Path_14" data-name="Path 14" d="M316.491,346.511v6.853H314.9v-2.809h-3.113v2.809h-1.586v-6.853h1.586v2.7H314.9v-2.7Z" transform="translate(-303.384 -346.394)" fill="#003981"></path><path id="Path_15" data-name="Path 15" d="M545.639,349.6a3.774,3.774,0,0,1,6.539-2.33l-1.018.94a2.2,2.2,0,0,0-1.723-.8,2.193,2.193,0,0,0,0,4.386,2.183,2.183,0,0,0,1.723-.813l1.018.94a3.767,3.767,0,0,1-6.539-2.32Z" transform="translate(-477.738 -346.059)" fill="#003981"></path><path id="Path_16" data-name="Path 16" d="M576.369,351.9h-3.182l-.607,1.468h-1.625l3.054-6.853h1.566l3.064,6.853h-1.664Zm-.5-1.2-1.087-2.623-1.087,2.623Z" transform="translate(-496.486 -346.394)" fill="#003981"></path><path id="Path_17" data-name="Path 17" d="M601.218,347.8h-2.193v-1.292H605V347.8H602.8v5.561h-1.586Z" transform="translate(-517.273 -346.394)" fill="#003981"></path><path id="Path_18" data-name="Path 18" d="M625.944,351.9h-3.181l-.607,1.468h-1.625l3.054-6.853h1.567l3.064,6.853h-1.664Zm-.5-1.2-1.087-2.623-1.086,2.623Z" transform="translate(-533.2 -346.394)" fill="#003981"></path><path id="Path_19" data-name="Path 19" d="M652.9,346.511h1.586v5.56h3.437v1.292H652.9Z" transform="translate(-557.172 -346.394)" fill="#003981"></path><path id="Path_20" data-name="Path 20" d="M673.551,350.936v2.428h-1.586v-2.448l-2.653-4.405H671l1.831,3.045,1.83-3.045h1.556Z" transform="translate(-569.326 -346.394)" fill="#003981"></path><path id="Path_21" data-name="Path 21" d="M695.835,352.354l.539-1.194a4.033,4.033,0,0,0,2.261.715c.94,0,1.321-.313,1.321-.734,0-1.282-3.984-.4-3.984-2.947,0-1.165.939-2.134,2.888-2.134a4.6,4.6,0,0,1,2.378.607l-.489,1.2a3.874,3.874,0,0,0-1.9-.538c-.94,0-1.3.352-1.3.783,0,1.263,3.984.391,3.984,2.908,0,1.145-.95,2.124-2.908,2.124A4.886,4.886,0,0,1,695.835,352.354Z" transform="translate(-588.968 -346.059)" fill="#003981"></path><path id="Path_22" data-name="Path 22" d="M720.816,347.8h-2.193v-1.292h5.972V347.8H722.4v5.561h-1.586Z" transform="translate(-605.844 -346.394)" fill="#003981"></path><path id="Path_23" data-name="Path 23" d="M344.081,352.091v1.273h-5.306v-6.853h5.179v1.273h-3.6v1.488h3.182v1.233h-3.182v1.586Z" transform="translate(-324.541 -346.394)" fill="#003981"></path></g></g></svg>