<svg xmlns="http://www.w3.org/2000/svg" id="Group_334" data-name="Group 334" width="141.528" height="51.395" viewBox="0 0 141.528 51.395"><g id="Group_68" data-name="Group 68"><path id="Path_239" data-name="Path 239" d="M1615.627,4397.791v-21.4h-21.4Z" transform="translate(-1487.77 -4376.388)" fill="#00ac8d"></path><path id="Path_240" data-name="Path 240" d="M1519.247,4404.357a19.091,19.091,0,0,1,5.773-14.165,19.761,19.761,0,0,1,14.463-5.692,22.835,22.835,0,0,1,5.152.566,18.5,18.5,0,0,1,4.075,1.376q1.619.811,2.861,1.592a11.1,11.1,0,0,1,1.835,1.375l.539.54-4.372,7.123q-.485-.43-1.348-1.079a19.379,19.379,0,0,0-3.4-1.754,12.26,12.26,0,0,0-4.911-1.105q-5.235,0-8.067,3.237a11.4,11.4,0,0,0-2.833,7.77,12.268,12.268,0,0,0,2.914,8.122,9.859,9.859,0,0,0,7.986,3.479,12.152,12.152,0,0,0,5.154-1.187,14.221,14.221,0,0,0,3.8-2.374l1.295-1.187,4.857,6.906a9.407,9.407,0,0,1-.647.7,21.312,21.312,0,0,1-1.915,1.538,22.832,22.832,0,0,1-3.157,1.968,23.25,23.25,0,0,1-9.821,2.266q-8.958,0-14.6-5.665A19.5,19.5,0,0,1,1519.247,4404.357Z" transform="translate(-1519.247 -4372.982)" fill="#7f3f97"></path><path id="Path_241" data-name="Path 241" d="M1576.918,4418.831l4.958-7.167q.486.43,1.348,1.105a18.342,18.342,0,0,0,3.288,1.777,11.076,11.076,0,0,0,4.582,1.106,5.354,5.354,0,0,0,2.855-.728,2.486,2.486,0,0,0-.108-4.313,13.156,13.156,0,0,0-3.206-1.643,44.262,44.262,0,0,1-4.177-1.805,37.12,37.12,0,0,1-4.177-2.372,10.351,10.351,0,0,1-3.207-3.477,9.738,9.738,0,0,1-1.294-5.013,10.6,10.6,0,0,1,3.909-8.515,14.587,14.587,0,0,1,9.727-3.288,19.977,19.977,0,0,1,6.764,1.1,14.181,14.181,0,0,1,4.339,2.183l1.294,1.078-3.988,7.707q-.432-.377-1.213-.945a17.4,17.4,0,0,0-3.018-1.508,11.026,11.026,0,0,0-4.285-.943,5.336,5.336,0,0,0-2.884.755,2.491,2.491,0,0,0-1.213,2.263q0,1.293,1.779,2.318a30.4,30.4,0,0,0,4.339,1.994,52.951,52.951,0,0,1,5.12,2.264,12,12,0,0,1,4.339,3.745,9.7,9.7,0,0,1,1.778,5.848,11.251,11.251,0,0,1-3.665,8.489q-3.665,3.475-9.918,3.476a21.027,21.027,0,0,1-4.9-.567,17.939,17.939,0,0,1-3.961-1.374,30.518,30.518,0,0,1-2.83-1.616,9.5,9.5,0,0,1-1.778-1.4Z" transform="translate(-1495.035 -4372.982)" fill="#7f3f97"></path><path id="Path_265" data-name="Path 265" d="M1597.786,4379.951v11.012H1608.8Z" transform="translate(-1486.275 -4374.893)" fill="#7f3f97"></path><path id="Path_266" data-name="Path 266" d="M1560.855,4413.879l10.486-12.693v21.688h10.613v-37.435h-10.644l-10.476,13.479Z" transform="translate(-1501.786 -4372.586)" fill="#00ac8d"></path><path id="Path_267" data-name="Path 267" d="M1567.085,4413.879l-10.8-12.693v21.688H1546v-37.435h10.236l10.829,13.479V4413.9" transform="translate(-1508.016 -4372.586)" fill="#7f3f97"></path></g><g id="Group_69" data-name="Group 69" transform="translate(130.054 0.114)"><path id="Path_268" data-name="Path 268" d="M1615.363,4377.342h-1.727v4.849h-1.065v-4.849h-1.725v-.875h4.517Z" transform="translate(-1610.846 -4376.467)" fill="#7f3f97"></path><path id="Path_269" data-name="Path 269" d="M1620.762,4376.467v5.724h-.937v-3.7c0-.149.007-.308.023-.48l-1.729,3.25a.4.4,0,0,1-.376.232h-.151a.4.4,0,0,1-.376-.232l-1.749-3.263c.009.087.016.174.02.258s.009.163.009.234v3.7h-.939v-5.724h.8c.047,0,.088,0,.122,0a.355.355,0,0,1,.094.02.189.189,0,0,1,.075.051.441.441,0,0,1,.066.094l1.713,3.18c.044.083.087.171.125.261s.075.182.112.276q.055-.147.115-.284c.04-.091.081-.178.126-.262l1.691-3.171a.358.358,0,0,1,.067-.094.2.2,0,0,1,.077-.051.366.366,0,0,1,.093-.02c.034,0,.076,0,.122,0Z" transform="translate(-1609.288 -4376.467)" fill="#7f3f97"></path></g></svg>