<svg xmlns="http://www.w3.org/2000/svg" width="84.046" height="59.834" viewBox="0 0 84.046 59.834"><g id="Group_4242" data-name="Group 4242" transform="translate(-747.309 -183.801)"><g id="Group_15" data-name="Group 15" transform="translate(769.201 202.46)"><circle id="Ellipse_194" data-name="Ellipse 194" cx="20.087" cy="20.087" r="20.087" fill="none" stroke="#fff" stroke-width="2"></circle><circle id="Ellipse_195" data-name="Ellipse 195" cx="6.477" cy="6.477" r="6.477" transform="translate(13.889 8.883)" fill="none" stroke="#fff" stroke-width="2"></circle><path id="Path_9" data-name="Path 9" d="M797.12,229.593v-.764a8.978,8.978,0,0,0-8.977-8.98h-8.32a8.978,8.978,0,0,0-8.978,8.978h0v.959" transform="translate(-763.896 -194.2)" fill="none" stroke="#fff" stroke-width="2"></path></g><g id="Group_16" data-name="Group 16" transform="translate(808.469 208.593)"><path id="Path_10" data-name="Path 10" d="M797,206.514a13.953,13.953,0,1,1,.28,23.179" transform="translate(-796.999 -204.055)" fill="none" stroke="#fff" stroke-width="2"></path><circle id="Ellipse_196" data-name="Ellipse 196" cx="4.499" cy="4.499" r="4.499" transform="translate(3.605 6.172)" fill="none" stroke="#fff" stroke-width="2"></circle><path id="Path_11" data-name="Path 11" d="M813.078,225.243v-.531a6.236,6.236,0,0,0-6.237-6.237h-5.778" transform="translate(-796.041 -200.656)" fill="none" stroke="#fff" stroke-width="2"></path></g><g id="Group_17" data-name="Group 17" transform="translate(748.332 208.593)"><path id="Path_12" data-name="Path 12" d="M770.2,206.514a13.954,13.954,0,1,0-.281,23.179" transform="translate(-748.332 -204.055)" fill="none" stroke="#fff" stroke-width="2"></path><circle id="Ellipse_197" data-name="Ellipse 197" cx="4.499" cy="4.499" r="4.499" transform="translate(9.26 6.172)" fill="none" stroke="#fff" stroke-width="2"></circle><path id="Path_13" data-name="Path 13" d="M752.238,225.243v-.531a6.236,6.236,0,0,1,6.237-6.237h5.778" transform="translate(-747.412 -200.656)" fill="none" stroke="#fff" stroke-width="2"></path></g><path id="Path_521" data-name="Path 521" d="M768.608,201.736l1.236-6.04c.85-3.54,2.322-6.448,5.186-6.448h18.958c2.864,0,4.419,2.83,5.186,6.448l1.236,6.04" transform="translate(4.779 1.048)" fill="none" stroke="#fff" stroke-width="2"></path><path id="Path_522" data-name="Path 522" d="M777.512,189.678a4.878,4.878,0,0,1,9.756,0" transform="translate(6.877)" fill="none" stroke="#fff" stroke-width="2"></path></g></svg>