<svg xmlns="http://www.w3.org/2000/svg" width="27.245" height="59.65" viewBox="0 0 27.245 59.65">
  <g id="noun-organic-farming-2944363" transform="translate(-242.609 -45.047)">
    <path id="Path_51460" data-name="Path 51460" d="M251.237,431.369a11.611,11.611,0,0,0-8.1-2.73.555.555,0,0,0-.522.61,11.61,11.61,0,0,0,11.566,10.367h.533a.555.555,0,0,0,.522-.61,11.611,11.611,0,0,0-4-7.637Zm-3.885,4.562a10.49,10.49,0,0,1-3.53-6.249,10.5,10.5,0,0,1,10.189,8.78A10.489,10.489,0,0,1,247.352,435.931Z" transform="translate(0 -334.919)" fill="#fff"/>
    <path id="Path_51461" data-name="Path 51461" d="M369.954,428.658a11.611,11.611,0,0,0-12.1,10.356.555.555,0,0,0,.522.61h.533a11.61,11.61,0,0,0,11.566-10.367.556.556,0,0,0-.522-.6Zm-4.218,7.292a10.488,10.488,0,0,1-6.66,2.531,10.5,10.5,0,0,1,10.245-8.769,10.49,10.49,0,0,1-3.585,6.238Z" transform="translate(-100.624 -334.938)" fill="#fff"/>
    <path id="Path_51462" data-name="Path 51462" d="M251.237,357.059a11.613,11.613,0,0,0-8.1-2.775.555.555,0,0,0-.522.61,11.61,11.61,0,0,0,11.566,10.367h.533a.555.555,0,0,0,.522-.61,11.609,11.609,0,0,0-4-7.592Zm-3.885,4.54a10.49,10.49,0,0,1-3.53-6.249,10.5,10.5,0,0,1,10.189,8.769A10.489,10.489,0,0,1,247.352,361.6Z" transform="translate(0 -269.998)" fill="#fff"/>
    <path id="Path_51463" data-name="Path 51463" d="M369.954,353.957a11.61,11.61,0,0,0-12.1,10.356.555.555,0,0,0,.522.61h.533a11.61,11.61,0,0,0,11.566-10.378.555.555,0,0,0-.522-.61Zm-4.218,7.348a10.489,10.489,0,0,1-6.66,2.519,10.5,10.5,0,0,1,10.245-8.769,10.489,10.489,0,0,1-3.585,6.249Z" transform="translate(-100.624 -269.705)" fill="#fff"/>
    <path id="Path_51464" data-name="Path 51464" d="M251.237,282.654a11.611,11.611,0,0,0-8.1-2.753.555.555,0,0,0-.522.61,11.61,11.61,0,0,0,11.566,10.367h.533a.555.555,0,0,0,.522-.61,11.609,11.609,0,0,0-4-7.614Zm-3.885,4.573a10.488,10.488,0,0,1-3.552-6.216,10.5,10.5,0,0,1,10.212,8.735A10.49,10.49,0,0,1,247.352,287.227Z" transform="translate(0 -205.05)" fill="#fff"/>
    <path id="Path_51465" data-name="Path 51465" d="M369.954,279.908a11.611,11.611,0,0,0-12.1,10.356.555.555,0,0,0,.522.611h.533a11.61,11.61,0,0,0,11.566-10.367.556.556,0,0,0-.522-.6Zm-4.218,7.326a10.49,10.49,0,0,1-6.66,2.52,10.5,10.5,0,0,1,10.211-8.735A10.489,10.489,0,0,1,365.736,287.234Z" transform="translate(-100.624 -205.057)" fill="#fff"/>
    <path id="Path_51466" data-name="Path 51466" d="M251.237,208.309a11.613,11.613,0,0,0-8.1-2.775.555.555,0,0,0-.522.61,11.611,11.611,0,0,0,11.555,10.367h.544a.555.555,0,0,0,.522-.61,11.6,11.6,0,0,0-4-7.592Zm-3.885,4.562a10.487,10.487,0,0,1-3.53-6.249,10.5,10.5,0,0,1,10.189,8.769A10.487,10.487,0,0,1,247.352,212.87Z" transform="translate(0 -140.117)" fill="#fff"/>
    <path id="Path_51467" data-name="Path 51467" d="M369.954,205.234a11.61,11.61,0,0,0-12.1,10.356.555.555,0,0,0,.522.61h.544a11.611,11.611,0,0,0,11.555-10.4.555.555,0,0,0-.522-.61Zm-4.218,7.347a10.487,10.487,0,0,1-6.66,2.52,10.5,10.5,0,0,1,10.245-8.769,10.488,10.488,0,0,1-3.585,6.249Z" transform="translate(-100.624 -139.828)" fill="#fff"/>
    <path id="Path_51468" data-name="Path 51468" d="M251.237,133.947a11.611,11.611,0,0,0-8.1-2.786.555.555,0,0,0-.522.61,11.611,11.611,0,0,0,11.555,10.378h.544a.555.555,0,0,0,.522-.61,11.6,11.6,0,0,0-4-7.592Zm-3.885,4.573a10.487,10.487,0,0,1-3.552-6.249,10.5,10.5,0,0,1,10.212,8.769A10.49,10.49,0,0,1,247.352,138.521Z" transform="translate(0 -75.18)" fill="#fff"/>
    <path id="Path_51469" data-name="Path 51469" d="M357.945,141.935a.555.555,0,0,0,.4.189h.544a11.609,11.609,0,0,0,11.554-10.367.554.554,0,0,0-.51-.6,11.611,11.611,0,0,0-12.1,10.356.553.553,0,0,0,.111.422Zm4.584-7.159a10.479,10.479,0,0,1,6.737-2.508,10.5,10.5,0,0,1-10.212,8.769,10.489,10.489,0,0,1,3.5-6.249Z" transform="translate(-100.603 -75.176)" fill="#fff"/>
    <path id="Path_51470" data-name="Path 51470" d="M325.522,45.227a.554.554,0,0,0-.455-.177.6.6,0,0,0-.411.177,11.61,11.61,0,0,0-.1,15.928.6.6,0,0,0,.41.178.556.556,0,0,0,.4-.178,11.61,11.61,0,0,0,.1-15.928Zm-.455,14.707a10.5,10.5,0,0,1,0-13.486,10.5,10.5,0,0,1,0,13.486Z" transform="translate(-68.834 0)" fill="#fff"/>
  </g>
</svg>
