<svg xmlns="http://www.w3.org/2000/svg" width="117" height="117" viewBox="0 0 117 117"><g id="Group_4254" data-name="Group 4254" transform="translate(-0.026)"><circle id="Ellipse_108" data-name="Ellipse 108" cx="58.5" cy="58.5" r="58.5" transform="translate(0.026)" fill="#fff"></circle><g id="Group_4240" data-name="Group 4240" transform="translate(23.775 29.385)"><path id="Path_493" data-name="Path 493" d="M1197.069,1029.753l-9.009-13.931-8.7,13.364.023.03a10.517,10.517,0,1,0,17.682.537Z" transform="translate(-1177.551 -1006.169)" fill="none" stroke="#126634" stroke-linejoin="round" stroke-width="2"></path><circle id="Ellipse_100" data-name="Ellipse 100" cx="11.233" cy="11.233" r="11.233" transform="translate(33.689 8.512)" fill="none" stroke="#126634" stroke-linejoin="round" stroke-width="2"></circle><line id="Line_32" data-name="Line 32" y1="4.475" transform="translate(44.922)" fill="none" stroke="#126634" stroke-linejoin="round" stroke-width="2"></line><line id="Line_33" data-name="Line 33" x1="4.475" transform="translate(25.177 19.745)" fill="none" stroke="#126634" stroke-linejoin="round" stroke-width="2"></line><line id="Line_34" data-name="Line 34" x1="3.255" y1="3.071" transform="translate(30.56 6.195)" fill="none" stroke="#126634" stroke-linejoin="round" stroke-width="2"></line><line id="Line_35" data-name="Line 35" x2="3.071" y2="3.255" transform="translate(55.401 30.851)" fill="none" stroke="#126634" stroke-linejoin="round" stroke-width="2"></line><line id="Line_36" data-name="Line 36" y1="3.071" x2="3.255" transform="translate(56.028 6.195)" fill="none" stroke="#126634" stroke-linejoin="round" stroke-width="2"></line><line id="Line_37" data-name="Line 37" x2="4.475" transform="translate(60.191 19.745)" fill="none" stroke="#126634" stroke-linejoin="round" stroke-width="2"></line><line id="Line_38" data-name="Line 38" x1="3.255" y2="3.071" transform="translate(30.56 30.223)" fill="none" stroke="#126634" stroke-linejoin="round" stroke-width="2"></line><line id="Line_39" data-name="Line 39" y2="4.475" transform="translate(44.922 35.014)" fill="none" stroke="#126634" stroke-linejoin="round" stroke-width="2"></line><path id="Path_494" data-name="Path 494" d="M1193.766,1043.953a4.356,4.356,0,1,1,1.793-8.317,4.435,4.435,0,0,1-.047-.449,64.684,64.684,0,0,0,12.885-1.984,5.33,5.33,0,0,0,9.232,1.984,5.376,5.376,0,0,1,4.209,8.72Z" transform="translate(-1170.694 -987.3)" fill="none" stroke="#126634" stroke-linejoin="round" stroke-width="2"></path><line id="Line_40" data-name="Line 40" x2="13.163" transform="translate(48.549 56.609)" fill="none" stroke="#126634" stroke-linejoin="round" stroke-width="2"></line></g></g></svg>