<svg xmlns="http://www.w3.org/2000/svg" width="117" height="117" viewBox="0 0 117 117"><g id="Group_25806" data-name="Group 25806" transform="translate(-62 -1359)"><circle id="Ellipse_107" data-name="Ellipse 107" cx="58.5" cy="58.5" r="58.5" transform="translate(62 1359)" fill="#fff"></circle><g id="noun-conservation-1460023" transform="translate(-142.531 1076.641)"><path id="Path_51453" data-name="Path 51453" d="M150.467,67.211a6.392,6.392,0,0,0-6.318,5.48l-4.339-.609a5.019,5.019,0,0,0-3.044.381l-17.355,8.22a3.806,3.806,0,0,0-1.9,4.872l3.73,9.058h0a3.806,3.806,0,0,0,5.329,1.9l4.947-2.664h0a6.848,6.848,0,0,1,4.872-.609l21.009,5.4,1.37.152h0a5.02,5.02,0,0,0,2.435-.609l17.127-9.134A4.187,4.187,0,0,0,180,83.424h-.076a4.34,4.34,0,0,0-5.785-1.751l-6.927,3.654v-11.8a6.393,6.393,0,0,0-6.318-6.318H156.48V48.182h.533A15.452,15.452,0,0,0,171.7,33.415V32.121a.78.78,0,0,0-.761-.761h-1.217a15.452,15.452,0,0,0-14.767,14.767v7.612a14.691,14.691,0,0,0-12.56-8.221h-1.979a.836.836,0,0,0-.533.228.762.762,0,0,0-.229.533v1.979a14.692,14.692,0,0,0,14.082,13.93h1.218v4.947Zm3.273-6.546A13.092,13.092,0,0,1,141.181,48.1V46.963h1.142a13.091,13.091,0,0,1,12.559,12.559v1.142ZM156.48,46.2h0A13.854,13.854,0,0,1,169.8,32.958h.381v.457a13.854,13.854,0,0,1-13.245,13.245h-.457ZM174.9,82.891a2.816,2.816,0,0,1,3.73,1.142h.076a2.664,2.664,0,0,1-1.066,3.578l-17.127,9.362a3.576,3.576,0,0,1-2.664.3l-21.009-5.4a8.37,8.37,0,0,0-6.013.685l-4.947,2.664h0a2.283,2.283,0,0,1-3.2-1.142l-3.73-9.058A2.283,2.283,0,0,1,120.1,82.13l17.355-8.221a3.578,3.578,0,0,1,2.207-.228l18.192,2.436a2.678,2.678,0,0,1-.457,5.328h-9.515a3.121,3.121,0,0,0-.532,6.165l13.473,2.512h.457Zm-9.21-9.362V85.936l-4.872,2.512L147.65,86.012a1.6,1.6,0,0,1,.3-3.121h9.515a4.186,4.186,0,0,0,4.186-3.882,4.263,4.263,0,0,0-3.577-4.491l-12.332-1.6a4.871,4.871,0,0,1,4.8-4.187H160.9a4.872,4.872,0,0,1,4.8,4.8Z" transform="translate(110 270.412)" fill="#2e6339"></path></g></g></svg>