<svg xmlns="http://www.w3.org/2000/svg" width="82" height="54.667" viewBox="0 0 82 54.667">
  <g id="noun-rupee-323966" transform="translate(-176.399 -156.8)">
    <path id="Path_51456" data-name="Path 51456" d="M257.156,156.8h-67.09a1.243,1.243,0,0,0-1.243,1.243v4.969h-4.969a1.243,1.243,0,0,0-1.243,1.243v4.969h-4.969a1.243,1.243,0,0,0-1.243,1.243v39.757a1.243,1.243,0,0,0,1.243,1.243h67.09a1.242,1.242,0,0,0,1.243-1.243v-4.969h4.969a1.242,1.242,0,0,0,1.243-1.243v-4.969h4.969A1.242,1.242,0,0,0,258.4,197.8V158.043a1.243,1.243,0,0,0-1.243-1.242ZM243.49,208.981H178.885V171.709H243.49Zm6.212-6.212h-3.727v-32.3a1.243,1.243,0,0,0-1.243-1.243H185.1V165.5H249.7Zm6.212-6.212h-3.728v-32.3a1.243,1.243,0,0,0-1.243-1.243H191.308v-3.727h64.606Z" fill="#fff"/>
    <path id="Path_51457" data-name="Path 51457" d="M429.012,252h-4.969a1.243,1.243,0,1,0,0,2.486h4.969a1.243,1.243,0,0,0,0-2.486Z" transform="translate(-191.735 -74.079)" fill="#fff"/>
    <path id="Path_51458" data-name="Path 51458" d="M309.518,253.241A1.243,1.243,0,0,0,308.275,252H289.639a1.243,1.243,0,0,0,0,2.486H295.5a5.472,5.472,0,0,1,4.434,2.291A6.092,6.092,0,0,1,301,259.453H289.639a1.243,1.243,0,0,0,0,2.486H300.82c-.013.042-.02.087-.035.128a4.612,4.612,0,0,1-3.1,3,21.664,21.664,0,0,1-6.547.6c-.5,0-1.007-.008-1.51,0a1.242,1.242,0,0,0-.738,2.236L303.8,279.082a1.243,1.243,0,0,0,1.492-1.987l-11.933-8.951a18.489,18.489,0,0,0,5.058-.7,7.041,7.041,0,0,0,4.72-4.581,7.875,7.875,0,0,0,.247-.923h4.889a1.243,1.243,0,0,0,0-2.486H303.49a8.6,8.6,0,0,0-1.538-4.126,8.074,8.074,0,0,0-.707-.843h7.031a1.243,1.243,0,0,0,1.243-1.242Z" transform="translate(-87.149 -74.078)" fill="#fff"/>
    <path id="Path_51459" data-name="Path 51459" d="M216.212,352.8h-4.969a1.243,1.243,0,1,0,0,2.486h4.969a1.243,1.243,0,0,0,0-2.486Z" transform="translate(-26.146 -152.515)" fill="#fff"/>
  </g>
</svg>
