<svg xmlns="http://www.w3.org/2000/svg" width="51.797" height="57.833" viewBox="0 0 51.797 57.833"><g id="noun-seed-4170912" transform="translate(-121.323 -26.256)"><path id="Path_51454" data-name="Path 51454" d="M158.281,41.6c6.755-1.852,1.218-9.717,9.38-9.6a.99.99,0,1,0,0-1.981,7.3,7.3,0,0,0-5.428,1.812c-3.1,3.179-.228,8.063-6.319,8.122l1.654-12.578h0a.99.99,0,0,0-.99-1.119H137.759a.991.991,0,0,0-.99,1.119l1.823,13.351C110.977,49.7,118.415,83.7,147.208,84.089c27.178-.188,36.32-31.734,11.073-42.491ZM138.947,28.236h16.521l-1.545,11.737a.99.99,0,0,0-.277.178,30.243,30.243,0,0,0-13.124.06Zm8.261,53.871c-13.232,0-24-9.122-24-20.334,1.3-26.97,46.71-26.961,48,0C171.206,72.984,160.44,82.107,147.208,82.107Z" transform="translate(0 0)" fill="#fff"></path><path id="Path_51455" data-name="Path 51455" d="M237,237.873a16.463,16.463,0,0,0-14.431,8.488v-4.873c5.685-3.714,5.428-10.261-.416-13.777a1.06,1.06,0,0,0-1.129,0c-5.844,3.516-6.1,10.063-.416,13.777v4.873A16.463,16.463,0,0,0,206.18,237.9a.991.991,0,0,0-.99.99,16.412,16.412,0,0,0,32.824,0,.991.991,0,0,0-1.01-1.02Zm-18.571-3.13c0-1.842,1.119-3.605,3.15-5.031,4.18,2.832,4.18,7.221,0,10.063C219.6,238.348,218.432,236.586,218.432,234.744Zm-11.222,5.16a14.352,14.352,0,0,1,13.124,11.5l-7.795-7.656h0a.99.99,0,1,0-1.387,1.407l7.745,7.617A14.262,14.262,0,0,1,207.211,239.9Zm17.056,12.876,7.745-7.617h0a.99.99,0,1,0-1.387-1.407l-7.795,7.656A14.352,14.352,0,0,1,235.954,239.9a14.262,14.262,0,0,1-11.687,12.866Z" transform="translate(-74.373 -178.507)" fill="#fff"></path></g></svg>